<?xml version="1.0" encoding="UTF-8"?>
<svg width="92px" height="64px" viewBox="0 0 92 64" version="1.1" xmlns="http://www.w3.org/2000/svg" xmlns:xlink="http://www.w3.org/1999/xlink">
    <!-- Generator: Sketch 61.2 (89653) - https://sketch.com -->
    <title>excerpt-icon-v2a-original-grayscale copy</title>
    <desc>Created with Sketch.</desc>
    <g id="Page-1" stroke="none" stroke-width="1" fill="none" fill-rule="evenodd">
        <g id="CollectionFilters_Desktop_V3-Copy-19" transform="translate(-65.000000, -1564.000000)">
            <g id="excerpt-icon-v2a-original-grayscale-copy" transform="translate(65.000000, 1564.000000)">
                <g>
                    <polygon id="Path" fill="#FFFFFF" fill-rule="nonzero" points="0 7.33945905 91.4285714 7.33945905 91.4285714 63.5385905 0 63.5385905"></polygon>
                    <path d="M91.2188952,7.54913524 L0.209698743,7.54913524 L0.209698743,63.3289143 L91.2188952,63.3289143 L91.2188952,7.54913524 Z M0,7.33945905 L0,63.5385905 L91.4285714,63.5385905 L91.4285714,7.33945905 L0,7.33945905 Z" id="Shape" fill="#000000"></path>
                    <path d="M5.45223314,2.72608305 C5.45223314,2.72608305 15.3080686,0 25.583299,0 C35.8585295,0 45.7143467,2.72608305 45.7143467,2.72608305 L45.7143467,59.344701 C45.7143467,59.344701 35.8585295,57.4573714 25.3736229,57.4573714 C14.8886552,57.4573714 5.45223314,59.344701 5.45223314,59.344701 L5.45223314,2.72608305 Z" id="Path" fill="#FFFFFF" fill-rule="nonzero"></path>
                    <path d="M5.45223314,2.72608305 C5.45223314,2.72608305 15.3080686,0 25.583299,0 C35.8585295,0 45.7143467,2.72608305 45.7143467,2.72608305 L45.7143467,59.344701 C45.7143467,59.344701 45.6787505,59.3378743 45.6095086,59.3250743 C44.5271162,59.1246019 35.228221,57.4573714 25.3736229,57.4573714 C15.5326171,57.4573714 6.61534476,59.1199695 5.55708343,59.324221 C5.48782933,59.3375695 5.45223314,59.344701 5.45223314,59.344701 L5.45223314,2.72608305 Z M5.55708343,59.2174324 C5.62845867,59.2037181 5.7296701,59.1844571 5.8590781,59.1605029 C6.13808762,59.1088152 6.54823619,59.0350019 7.07303619,58.9464381 C8.12269714,58.7693105 9.63126857,58.533181 11.4677029,58.2970514 C15.1402057,57.8248533 20.1252571,57.3525333 25.3736229,57.3525333 C30.6218667,57.3525333 35.7116952,57.8248533 39.4888533,58.2969905 C41.3775848,58.53312 42.9385143,58.7691886 44.0273676,58.9463162 C44.5718552,59.03488 44.9982781,59.1086933 45.2887771,59.160381 C45.427261,59.1850057 45.534781,59.2046324 45.6095086,59.2184076 L45.6095086,2.80625371 C45.598781,2.80337676 45.5869562,2.80020724 45.5740952,2.79675733 C45.4996724,2.77687467 45.3891048,2.74767238 45.2446476,2.71048533 C44.9557333,2.63610514 44.5313219,2.529792 43.98976,2.4021821 C42.9066971,2.14696229 41.3553981,1.8065859 39.4833067,1.46619733 C35.7384533,0.785322667 30.712381,0.104849067 25.583299,0.104849067 C20.4542171,0.104849067 15.4281448,0.785322667 11.6832914,1.46619733 C9.81113905,1.8065859 8.25990095,2.14696229 7.17677714,2.4021821 C6.63527619,2.529792 6.21086476,2.63610514 5.92193219,2.71048533 C5.77747505,2.74767238 5.66689524,2.77687467 5.59250286,2.79675733 C5.57960533,2.80020724 5.56779276,2.80337676 5.55708343,2.80625371 L5.55708343,59.2174324 Z" id="Shape" fill="#000000"></path>
                    <path d="M9.65150476,36.5920914 C9.65138286,36.5920914 9.65138286,36.5920914 9.64608,36.5399162 C9.64092987,36.4878019 9.64092987,36.4878019 9.64092987,36.487741 L9.75305143,36.4765867 C9.8266819,36.4692724 9.9354819,36.4586057 10.0759771,36.4449524 C10.3570286,36.4177067 10.7650438,36.378819 11.273021,36.3320686 C12.2889143,36.2386895 13.7046552,36.1141638 15.3038629,35.9896381 C18.5019733,35.7405867 22.4355352,35.4914133 25.373501,35.4914133 C28.3114667,35.4914133 32.2450286,35.7405867 35.4430781,35.9896381 C37.0423467,36.1141638 38.4580267,36.2386895 39.473981,36.3320686 C39.9818971,36.378819 40.3899124,36.4177067 40.6709638,36.4449524 C40.81152,36.4586057 40.920259,36.4692724 40.9939505,36.4765867 L41.1057315,36.487741 C41.1057315,36.487741 41.1061638,36.4878019 41.100861,36.5399162 C41.095619,36.5920914 41.0955581,36.5920914 41.0954971,36.5920914 L40.9835886,36.5809371 C40.910019,36.5736229 40.80128,36.5629562 40.6608457,36.5493029 C40.3799771,36.5221181 39.9721448,36.4831695 39.4643505,36.43648 C38.4488229,36.3431619 37.0336305,36.2186362 35.4349714,36.0941714 C32.2372267,35.845181 28.3070781,35.5963124 25.373501,35.5963124 C22.4398629,35.5963124 18.5097752,35.845181 15.3120305,36.0941714 C13.7133714,36.2186362 12.298179,36.3431619 11.2825905,36.43648 C10.7748571,36.4831695 10.3670248,36.5221181 10.0860952,36.5493029 C9.94566095,36.5629562 9.83698286,36.5736229 9.76341333,36.5809371 L9.65150476,36.5920914 Z" id="Path" fill="#000000"></path>
                    <path d="M9.65150476,39.2658286 C9.65138286,39.2658286 9.65138286,39.2658286 9.64608,39.2136533 C9.64092987,39.161539 9.64092987,39.161539 9.64092987,39.1614781 L9.75305143,39.1503238 C9.8266819,39.1430095 9.9354819,39.1323429 10.0759771,39.1186895 C10.3570286,39.0914438 10.7650438,39.0525562 11.273021,39.0058057 C12.2889143,38.9124267 13.7046552,38.787901 15.3038629,38.6633752 C18.5019733,38.4143238 22.4355352,38.1651505 25.373501,38.1651505 C28.3114667,38.1651505 32.2450286,38.4143238 35.4430781,38.6633752 C37.0423467,38.787901 38.4580267,38.9124267 39.473981,39.0058057 C39.9818971,39.0525562 40.3899124,39.0914438 40.6709638,39.1186895 C40.81152,39.1323429 40.920259,39.1430095 40.9939505,39.1503238 L41.1057315,39.1614781 C41.1057315,39.1614781 41.1061638,39.161539 41.100861,39.2136533 C41.095619,39.2658286 41.0955581,39.2658286 41.0954971,39.2658286 L40.9835886,39.2546743 C40.910019,39.24736 40.80128,39.2366933 40.6608457,39.22304 C40.3799771,39.1957943 39.9721448,39.1569067 39.4643505,39.1102171 C38.4488229,39.016899 37.0336305,38.8923733 35.4349714,38.7679086 C32.2372267,38.5189181 28.3070781,38.2700495 25.373501,38.2700495 C22.4398629,38.2700495 18.5097752,38.5189181 15.3120305,38.7679086 C13.7133714,38.8923733 12.298179,39.016899 11.2825905,39.1102171 C10.7748571,39.1569067 10.3670248,39.1957943 10.0860952,39.22304 C9.94566095,39.2366933 9.83698286,39.24736 9.76341333,39.2546743 L9.65150476,39.2658286 Z" id="Path" fill="#000000"></path>
                    <path d="M9.65150476,41.9393829 C9.65138286,41.9393829 9.65138286,41.9394438 9.64608,41.8872686 C9.64092987,41.8350933 9.64092987,41.8350933 9.64092987,41.8350933 L9.75305143,41.8238781 C9.8266819,41.8166248 9.9354819,41.8058971 10.0759771,41.7923048 C10.3570286,41.765059 10.7650438,41.7261105 11.273021,41.679421 C12.2889143,41.5860419 13.7046552,41.4615162 15.3038629,41.3369295 C18.5019733,41.087939 22.4355352,40.8387657 25.373501,40.8387657 C28.3114667,40.8387657 32.2450286,41.087939 35.4430781,41.3369295 C37.0423467,41.4615162 38.4580267,41.5860419 39.473981,41.679421 C39.9818971,41.7261105 40.3899124,41.765059 40.6709638,41.7923048 C40.81152,41.8058971 40.920259,41.8166248 40.9939505,41.8238781 L41.1057315,41.8350324 C41.1057315,41.8350324 41.1061638,41.8350933 41.100861,41.8872686 C41.095619,41.9394438 41.0955581,41.9393829 41.0954971,41.9393829 L40.9835886,41.9282286 C40.910019,41.9209752 40.80128,41.9102476 40.6608457,41.8966552 C40.3799771,41.8694095 39.9721448,41.8305219 39.4643505,41.7838324 C38.4488229,41.6904533 37.0336305,41.5659886 35.4349714,41.4414629 C32.2372267,41.1924724 28.3070781,40.9436038 25.373501,40.9436038 C22.4398629,40.9436038 18.5097752,41.1924724 15.3120305,41.4414629 C13.7133714,41.5659886 12.298179,41.6904533 11.2825905,41.7838324 C10.7748571,41.8305219 10.3670248,41.8694095 10.0860952,41.8966552 C9.94566095,41.9102476 9.83698286,41.9209752 9.76341333,41.9282286 L9.65150476,41.9393829 Z" id="Path" fill="#000000"></path>
                    <path d="M9.65150476,28.5711848 C9.65138286,28.5711848 9.65138286,28.5711848 9.64608,28.5190095 C9.64092987,28.4668952 9.64092987,28.4668952 9.64092987,28.4668343 L9.75305143,28.45568 C9.8266819,28.4483657 9.9354819,28.437699 10.0759771,28.4240457 C10.3570286,28.3968 10.7650438,28.3579124 11.273021,28.3111619 C12.2889143,28.2177829 13.7046552,28.0932571 15.3038629,27.9687314 C18.5019733,27.71968 22.4355352,27.4705067 25.373501,27.4705067 C28.3114667,27.4705067 32.2450286,27.71968 35.4430781,27.9687314 C37.0423467,28.0932571 38.4580267,28.2177829 39.473981,28.3111619 C39.9818971,28.3579124 40.3899124,28.3968 40.6709638,28.4240457 C40.81152,28.437699 40.920259,28.4483657 40.9939505,28.45568 L41.1057315,28.4668343 C41.1057315,28.4668343 41.1061638,28.4668952 41.100861,28.5190095 C41.095619,28.5711848 41.0955581,28.5711848 41.0954971,28.5711848 L40.9835886,28.5600305 C40.910019,28.5527162 40.80128,28.5420495 40.6608457,28.5283962 C40.3799771,28.5011505 39.9721448,28.4622629 39.4643505,28.4155733 C38.4488229,28.3222552 37.0336305,28.1977295 35.4349714,28.0732648 C32.2372267,27.8242743 28.3070781,27.5754057 25.373501,27.5754057 C22.4398629,27.5754057 18.5097752,27.8242743 15.3120305,28.0732648 C13.7133714,28.1977295 12.298179,28.3222552 11.2825905,28.4155733 C10.7748571,28.4622629 10.3670248,28.5011505 10.0860952,28.5283962 C9.94566095,28.5420495 9.83698286,28.5527162 9.76341333,28.5600305 L9.65150476,28.5711848 Z" id="Path" fill="#000000"></path>
                    <path d="M9.65150476,44.613059 C9.65138286,44.613059 9.65138286,44.613059 9.64608,44.5609448 C9.64092987,44.5087695 9.64092987,44.5087695 9.64092987,44.5087695 L9.75305143,44.4975543 C9.8266819,44.49024 9.9354819,44.4795733 10.0759771,44.46592 C10.3570286,44.4386743 10.7650438,44.3997867 11.273021,44.3530971 C12.2889143,44.2596571 13.7046552,44.1351314 15.3038629,44.0106057 C18.5019733,43.7616152 22.4355352,43.5124419 25.373501,43.5124419 C28.3114667,43.5124419 32.2450286,43.7616152 35.4430781,44.0106057 C37.0423467,44.1351314 38.4580267,44.2596571 39.473981,44.3530971 C39.9818971,44.3997867 40.3899124,44.4386743 40.6709638,44.46592 C40.81152,44.4795733 40.920259,44.49024 40.9939505,44.4975543 L41.1057315,44.5087086 C41.1057315,44.5087086 41.1061638,44.5087695 41.100861,44.5609448 C41.095619,44.613059 41.0955581,44.613059 41.0954971,44.613059 L40.9835886,44.6019048 C40.910019,44.5945905 40.80128,44.5839238 40.6608457,44.5702705 C40.3799771,44.5430857 39.9721448,44.5041981 39.4643505,44.4575086 C38.4488229,44.3641295 37.0336305,44.2396648 35.4349714,44.115139 C32.2372267,43.8661486 28.3070781,43.61728 25.373501,43.61728 C22.4398629,43.61728 18.5097752,43.8661486 15.3120305,44.115139 C13.7133714,44.2396648 12.298179,44.3641295 11.2825905,44.4575086 C10.7748571,44.5041981 10.3670248,44.5430857 10.0860952,44.5702705 C9.94566095,44.5839238 9.83698286,44.5945905 9.76341333,44.6019048 L9.65150476,44.613059 Z" id="Path" fill="#000000"></path>
                    <path d="M9.65150476,54.5212992 C9.65138286,54.5213562 9.65138286,54.5213562 9.64608,54.469181 C9.64092987,54.4170057 9.64092987,54.4170057 9.64092987,54.4170057 L9.75305143,54.4058514 C9.8266819,54.3985371 9.9354819,54.3878095 10.0759771,54.3742171 C10.3570286,54.3469714 10.7650438,54.3080229 11.273021,54.2613333 C12.2889143,54.1679543 13.7046552,54.0434286 15.3038629,53.9189029 C18.5019733,53.6698514 22.4355352,53.4206781 25.373501,53.4206781 C28.3114667,53.4206781 32.2450286,53.6698514 35.4430781,53.9189029 C37.0423467,54.0434286 38.4580267,54.1679543 39.473981,54.2613333 C39.9818971,54.3080229 40.3899124,54.3469714 40.6709638,54.3742171 C40.81152,54.3878095 40.920259,54.3985371 40.9939505,54.4058514 L41.1057315,54.4169448 C41.1057315,54.4170057 41.1061638,54.4170057 41.100861,54.469181 C41.095619,54.5213562 41.0955581,54.5213562 41.0954971,54.5212992 L40.9835886,54.510141 C40.910019,54.5028876 40.80128,54.49216 40.6608457,54.4785676 C40.3799771,54.4513219 39.9721448,54.4124343 39.4643505,54.3657448 C38.4488229,54.2723657 37.0336305,54.147901 35.4349714,54.0234362 C32.2372267,53.7743848 28.3070781,53.5255162 25.373501,53.5255162 C22.4398629,53.5255162 18.5097752,53.7743848 15.3120305,54.0234362 C13.7133714,54.147901 12.298179,54.2723657 11.2825905,54.3657448 C10.7748571,54.4124343 10.3670248,54.4513219 10.0860952,54.4785676 C9.94566095,54.49216 9.83698286,54.5028876 9.76341333,54.510141 L9.65150476,54.5212992 Z" id="Path" fill="#000000"></path>
                    <path d="M9.65150476,31.244861 C9.65138286,31.244861 9.65138286,31.244861 9.64608,31.1926857 C9.64092987,31.1405105 9.64092987,31.1405105 9.64092987,31.1405105 L9.75305143,31.1293562 C9.8266819,31.1220419 9.9354819,31.1113143 10.0759771,31.0977219 C10.3570286,31.0704762 10.7650438,31.0315276 11.273021,30.9848381 C12.2889143,30.891459 13.7046552,30.7669333 15.3038629,30.6424076 C18.5019733,30.3933562 22.4355352,30.1441829 25.373501,30.1441829 C28.3114667,30.1441829 32.2450286,30.3933562 35.4430781,30.6424076 C37.0423467,30.7669333 38.4580267,30.891459 39.473981,30.9848381 C39.9818971,31.0315276 40.3899124,31.0704762 40.6709638,31.0977219 C40.81152,31.1113143 40.920259,31.1220419 40.9939505,31.1293562 L41.1057315,31.1405105 C41.1057315,31.1405105 41.1061638,31.1405105 41.100861,31.1926857 C41.095619,31.244861 41.0955581,31.244861 41.0954971,31.244861 L40.9835886,31.2336457 C40.910019,31.2263924 40.80128,31.2156648 40.6608457,31.2020724 C40.3799771,31.1748267 39.9721448,31.135939 39.4643505,31.0892495 C38.4488229,30.9958705 37.0336305,30.8714057 35.4349714,30.746941 C32.2372267,30.4978895 28.3070781,30.249021 25.373501,30.249021 C22.4398629,30.249021 18.5097752,30.4978895 15.3120305,30.746941 C13.7133714,30.8714057 12.298179,30.9958705 11.2825905,31.0892495 C10.7748571,31.135939 10.3670248,31.1748267 10.0860952,31.2020724 C9.94566095,31.2156648 9.83698286,31.2263924 9.76341333,31.2336457 L9.65150476,31.244861 Z" id="Path" fill="#000000"></path>
                    <path d="M9.65150476,47.2867352 C9.65138286,47.2867352 9.65138286,47.2867352 9.64608,47.23456 C9.64092987,47.1824457 9.64092987,47.1824457 9.64092987,47.1823848 L9.75305143,47.1712305 C9.8266819,47.1639162 9.9354819,47.1532495 10.0759771,47.1395962 C10.3570286,47.1123505 10.7650438,47.0734629 11.273021,47.0267124 C12.2889143,46.9333333 13.7046552,46.8088076 15.3038629,46.6842819 C18.5019733,46.4352305 22.4355352,46.1860571 25.373501,46.1860571 C28.3114667,46.1860571 32.2450286,46.4352305 35.4430781,46.6842819 C37.0423467,46.8088076 38.4580267,46.9333333 39.473981,47.0267124 C39.9818971,47.0734629 40.3899124,47.1123505 40.6709638,47.1395962 C40.81152,47.1532495 40.920259,47.1639162 40.9939505,47.1712305 L41.1057315,47.1823848 C41.1057315,47.1823848 41.1061638,47.1824457 41.100861,47.23456 C41.095619,47.2867352 41.0955581,47.2867352 41.0954971,47.2867352 L40.9835886,47.275581 C40.910019,47.2682667 40.80128,47.2576 40.6608457,47.2439467 C40.3799771,47.216701 39.9721448,47.1778133 39.4643505,47.1311238 C38.4488229,47.0378057 37.0336305,46.91328 35.4349714,46.7888152 C32.2372267,46.5398248 28.3070781,46.2909562 25.373501,46.2909562 C22.4398629,46.2909562 18.5097752,46.5398248 15.3120305,46.7888152 C13.7133714,46.91328 12.298179,47.0378057 11.2825905,47.1311238 C10.7748571,47.1778133 10.3670248,47.216701 10.0860952,47.2439467 C9.94566095,47.2576 9.83698286,47.2682667 9.76341333,47.275581 L9.65150476,47.2867352 Z" id="Path" fill="#000000"></path>
                    <path d="M9.65150476,49.9079924 C9.65138286,49.9079924 9.65138286,49.9079924 9.64608,49.8558781 C9.64092987,49.8037029 9.64092987,49.8037029 9.64092987,49.8037029 L9.75305143,49.7924876 C9.8266819,49.7852343 9.9354819,49.7745067 10.0759771,49.7608533 C10.3570286,49.7336076 10.7650438,49.69472 11.273021,49.6480305 C12.2889143,49.5545905 13.7046552,49.4300648 15.3038629,49.305539 C18.5019733,49.0565486 22.4355352,48.8073752 25.373501,48.8073752 C28.3114667,48.8073752 32.2450286,49.0565486 35.4430781,49.305539 C37.0423467,49.4300648 38.4580267,49.5545905 39.473981,49.6480305 C39.9818971,49.69472 40.3899124,49.7336076 40.6709638,49.7608533 C40.81152,49.7745067 40.920259,49.7852343 40.9939505,49.7924876 L41.1057315,49.8036419 C41.1057315,49.8036419 41.1061638,49.8037029 41.100861,49.8558781 C41.095619,49.9079924 41.0955581,49.9079924 41.0954971,49.9079924 L40.9835886,49.8968381 C40.910019,49.8895238 40.80128,49.8788571 40.6608457,49.8652648 C40.3799771,49.838019 39.9721448,49.7991314 39.4643505,49.7524419 C38.4488229,49.6590629 37.0336305,49.5345981 35.4349714,49.4100724 C32.2372267,49.1610819 28.3070781,48.9122133 25.373501,48.9122133 C22.4398629,48.9122133 18.5097752,49.1610819 15.3120305,49.4100724 C13.7133714,49.5345981 12.298179,49.6590629 11.2825905,49.7524419 C10.7748571,49.7991314 10.3670248,49.838019 10.0860952,49.8652648 C9.94566095,49.8788571 9.83698286,49.8895238 9.76341333,49.8968381 L9.65150476,49.9079924 Z" id="Path" fill="#000000"></path>
                    <path d="M9.65150476,56.1989486 C9.65138286,56.1989486 9.65138286,56.1989486 9.64608,56.1467733 C9.64092987,56.0945981 9.64092987,56.0945981 9.64092987,56.0945981 L9.75305143,56.0834438 C9.8266819,56.0761295 9.9354819,56.0654019 10.0759771,56.0518095 C10.3570286,56.0245638 10.7650438,55.9856152 11.273021,55.9389257 C12.2889143,55.8455467 13.7046552,55.721021 15.3038629,55.5964952 C18.5019733,55.3474438 22.4355352,55.0982705 25.373501,55.0982705 L25.373501,55.2031086 C22.4398629,55.2031086 18.5097752,55.4520381 15.3120305,55.7010286 C13.7133714,55.8254933 12.298179,55.9499581 11.2825905,56.0433371 C10.7748571,56.0900267 10.3670248,56.1289143 10.0860952,56.15616 C9.94566095,56.1697524 9.83698286,56.18048 9.76341333,56.1877943 L9.65150476,56.1989486 Z" id="Path" fill="#000000"></path>
                    <path d="M9.65150476,33.9184762 C9.65138286,33.9184762 9.65138286,33.9185371 9.64608,33.8663619 C9.64092987,33.8141867 9.64092987,33.8141867 9.64092987,33.8141867 L9.75305143,33.8029714 C9.8266819,33.7957181 9.9354819,33.7849905 10.0759771,33.7713981 C10.3570286,33.7441524 10.7650438,33.7052038 11.273021,33.6585143 C12.2889143,33.5651352 13.7046552,33.4406095 15.3038629,33.3160229 C18.5019733,33.0670324 22.4355352,32.817859 25.373501,32.817859 C28.3114667,32.817859 32.2450286,33.0670324 35.4430781,33.3160229 C37.0423467,33.4406095 38.4580267,33.5651352 39.473981,33.6585143 C39.9818971,33.7052038 40.3899124,33.7441524 40.6709638,33.7713981 C40.81152,33.7849905 40.920259,33.7957181 40.9939505,33.8029714 L41.1057315,33.8141257 C41.1057315,33.8141257 41.1061638,33.8141867 41.100861,33.8663619 C41.095619,33.9185371 41.0955581,33.9184762 41.0954971,33.9184762 L40.9835886,33.9073219 C40.910019,33.9000686 40.80128,33.889341 40.6608457,33.8757486 C40.3799771,33.8485029 39.9721448,33.8096152 39.4643505,33.7629257 C38.4488229,33.6695467 37.0336305,33.5450819 35.4349714,33.4205562 C32.2372267,33.1715657 28.3070781,32.9226971 25.373501,32.9226971 C22.4398629,32.9226971 18.5097752,33.1715657 15.3120305,33.4205562 C13.7133714,33.5450819 12.298179,33.6695467 11.2825905,33.7629257 C10.7748571,33.8096152 10.3670248,33.8485029 10.0860952,33.8757486 C9.94566095,33.889341 9.83698286,33.9000686 9.76341333,33.9073219 L9.65150476,33.9184762 Z" id="Path" fill="#000000"></path>
                    <path d="M45.7142857,2.72613181 C45.7142857,2.72613181 54.7313371,0.209746895 65.6353524,0.209746895 C76.5397333,0.209746895 85.976381,2.72613181 85.976381,2.72613181 L85.976381,59.344701 C85.976381,59.344701 78.4274286,57.2477562 65.6353524,57.2477562 C52.8440076,57.2477562 45.7142857,59.344701 45.7142857,59.344701 L45.7142857,2.72613181 Z" id="Path" fill="#FFFFFF" fill-rule="nonzero"></path>
                    <path d="M45.7142857,2.72613181 C45.7142857,2.72613181 54.7313371,0.209746895 65.6353524,0.209746895 C76.5397333,0.209746895 85.976381,2.72613181 85.976381,2.72613181 L85.976381,59.344701 C85.976381,59.344701 85.9410286,59.3349486 85.8715429,59.3167238 C84.9212952,59.06816 77.553981,57.2477562 65.6353524,57.2477562 C53.7417752,57.2477562 46.742979,59.0607238 45.8191238,59.3152 C45.7493943,59.3344 45.7142857,59.344701 45.7142857,59.344701 L45.7142857,2.72613181 Z M45.8191238,59.206461 C45.8709333,59.19232 45.9376762,59.1744 46.0191695,59.1531886 C46.2401829,59.0955276 46.5697524,59.0133638 47.0050133,58.9148038 C47.8755352,58.7176838 49.1688838,58.4551619 50.862019,58.19264 C54.2484114,57.6675962 59.2341333,57.1429181 65.6353524,57.1429181 C72.037181,57.1429181 77.1273143,57.6675962 80.6186667,58.192579 C82.3637333,58.45504 83.7095619,58.7175619 84.6189714,58.914621 C85.0742857,59.01312 85.4198857,59.0952838 85.6521143,59.1528229 C85.7423238,59.1752533 85.8160762,59.1939048 85.8715429,59.2084114 L85.8715429,2.80711314 C85.8624,2.80474819 85.8526476,2.8021821 85.8416762,2.79942705 C85.7703619,2.78107429 85.6636952,2.75412724 85.5247238,2.71981105 C85.2461714,2.65117257 84.8353524,2.55304533 84.3087238,2.43526705 C83.2554667,2.19969829 81.7365333,1.88552533 79.8774857,1.5713219 C76.1593905,0.94286019 71.0802286,0.314596571 65.6353524,0.314596571 C60.1911467,0.314596571 55.2170667,0.942841905 51.6038095,1.57123657 C49.7973029,1.88540952 48.3313981,2.199552 47.3172724,2.4350781 C46.8102705,2.5528381 46.4162133,2.65094095 46.14912,2.71955505 C46.0155733,2.75386514 45.9137219,2.7808 45.8453943,2.79914057 C45.8360076,2.80165181 45.8272305,2.80401067 45.8191238,2.80619886 L45.8191238,59.206461 Z" id="Shape" fill="#000000"></path>
                    <path d="M49.9136,9.85557333 C49.913539,9.85557333 49.9134781,9.85557333 49.9082362,9.8033981 C49.9030422,9.75122286 49.9030422,9.75122286 49.9030422,9.75122286 L50.0151467,9.74006857 C50.0888381,9.73275429 50.1975771,9.72202667 50.3381333,9.70843429 C50.6191848,9.68118857 51.0272,9.64224 51.5351162,9.59555048 C52.5510705,9.50217143 53.9667505,9.37764571 55.566019,9.25312 C58.7640686,9.00406857 62.6974476,8.75489524 65.6353524,8.75489524 C68.5738667,8.75489524 72.5071238,9.00406857 75.7052952,9.25312 C77.3046857,9.37764571 78.72,9.50217143 79.7360762,9.59555048 C80.2438095,9.64224 80.6521905,9.68118857 80.933181,9.70843429 C81.0733714,9.72202667 81.1824762,9.73275429 81.2562286,9.74006857 L81.3677916,9.75122286 C81.3677916,9.75122286 81.368381,9.75122286 81.3628952,9.8033981 C81.358019,9.85557333 81.3574095,9.85557333 81.3574095,9.85557333 L81.2458667,9.8443581 C81.1721143,9.83710476 81.063619,9.82637714 80.922819,9.81278476 C80.6418286,9.78553905 80.2340571,9.74665143 79.7263238,9.6999619 C78.7108571,9.60658286 77.2955429,9.4821181 75.6973714,9.35765333 C72.4992,9.1086019 68.5689905,8.85973333 65.6353524,8.85973333 C62.7017143,8.85973333 58.7718705,9.1086019 55.5741257,9.35765333 C53.9755276,9.4821181 52.5602743,9.60658286 51.5447467,9.6999619 C51.0369524,9.74665143 50.62912,9.78553905 50.3482514,9.81278476 C50.2078171,9.82637714 50.0990781,9.83710476 50.0255086,9.8443581 L49.9136,9.85557333 Z" id="Path" fill="#000000"></path>
                    <path d="M49.9136,36.5920914 C49.913539,36.5920914 49.9134781,36.5920914 49.9082362,36.5399162 C49.9030422,36.4878019 49.9030422,36.4878019 49.9030422,36.487741 L50.0151467,36.4765867 C50.0888381,36.4692724 50.1975771,36.4586057 50.3381333,36.4449524 C50.6191848,36.4177067 51.0272,36.378819 51.5351162,36.3320686 C52.5510705,36.2386895 53.9667505,36.1141638 55.566019,35.9896381 C58.7640686,35.7405867 62.6974476,35.4914133 65.6353524,35.4914133 C68.5738667,35.4914133 72.5071238,35.7405867 75.7052952,35.9896381 C77.3046857,36.1141638 78.72,36.2386895 79.7360762,36.3320686 C80.2438095,36.378819 80.6521905,36.4177067 80.933181,36.4449524 C81.0733714,36.4586057 81.1824762,36.4692724 81.2562286,36.4765867 L81.3677916,36.487741 C81.3677916,36.487741 81.368381,36.4878019 81.3628952,36.5399162 C81.358019,36.5920914 81.3574095,36.5920914 81.3574095,36.5920914 L81.2458667,36.5809371 C81.1721143,36.5736229 81.063619,36.5629562 80.922819,36.5493029 C80.6418286,36.5221181 80.2340571,36.4831695 79.7263238,36.43648 C78.7108571,36.3431619 77.2955429,36.2186362 75.6973714,36.0941714 C72.4992,35.845181 68.5689905,35.5963124 65.6353524,35.5963124 C62.7017143,35.5963124 58.7718705,35.845181 55.5741257,36.0941714 C53.9755276,36.2186362 52.5602743,36.3431619 51.5447467,36.43648 C51.0369524,36.4831695 50.62912,36.5221181 50.3482514,36.5493029 C50.2078171,36.5629562 50.0990781,36.5736229 50.0255086,36.5809371 L49.9136,36.5920914 Z" id="Path" fill="#000000"></path>
                    <path d="M49.9136,23.2238324 C49.913539,23.2238324 49.9134781,23.2238933 49.9082362,23.1717181 C49.9030422,23.1195429 49.9030422,23.1195429 49.9030422,23.1195429 L50.0151467,23.1083276 C50.0888381,23.1010743 50.1975771,23.0903467 50.3381333,23.0767543 C50.6191848,23.0495086 51.0272,23.01056 51.5351162,22.9638705 C52.5510705,22.8704914 53.9667505,22.7459657 55.566019,22.621379 C58.7640686,22.3723886 62.6974476,22.1232152 65.6353524,22.1232152 C68.5738667,22.1232152 72.5071238,22.3723886 75.7052952,22.621379 C77.3046857,22.7459657 78.72,22.8704914 79.7360762,22.9638705 C80.2438095,23.01056 80.6521905,23.0495086 80.933181,23.0767543 C81.0733714,23.0903467 81.1824762,23.1010743 81.2562286,23.1083276 L81.3677916,23.1194819 C81.3677916,23.1194819 81.368381,23.1195429 81.3628952,23.1717181 C81.358019,23.2238933 81.3574095,23.2238324 81.3574095,23.2238324 L81.2458667,23.2126781 C81.1721143,23.2054248 81.063619,23.1946971 80.922819,23.1811048 C80.6418286,23.153859 80.2340571,23.1149714 79.7263238,23.0682819 C78.7108571,22.9749029 77.2955429,22.8504381 75.6973714,22.7259124 C72.4992,22.4769219 68.5689905,22.2280533 65.6353524,22.2280533 C62.7017143,22.2280533 58.7718705,22.4769219 55.5741257,22.7259124 C53.9755276,22.8504381 52.5602743,22.9749029 51.5447467,23.0682819 C51.0369524,23.1149714 50.62912,23.153859 50.3482514,23.1811048 C50.2078171,23.1946971 50.0990781,23.2054248 50.0255086,23.2126781 L49.9136,23.2238324 Z" id="Path" fill="#000000"></path>
                    <path d="M49.9136,12.5291925 C49.913539,12.5292495 49.9134781,12.5292495 49.9082362,12.4770743 C49.9030422,12.424899 49.9030422,12.424899 49.9030422,12.424899 L50.0151467,12.4136838 C50.0888381,12.4064305 50.1975771,12.3957029 50.3381333,12.3821105 C50.6191848,12.3548648 51.0272,12.3159162 51.5351162,12.2692267 C52.5510705,12.1758476 53.9667505,12.0513219 55.566019,11.9267352 C58.7640686,11.6777448 62.6974476,11.4285714 65.6353524,11.4285714 C68.5738667,11.4285714 72.5071238,11.6777448 75.7052952,11.9267352 C77.3046857,12.0513219 78.72,12.1758476 79.7360762,12.2692267 C80.2438095,12.3159162 80.6521905,12.3548648 80.933181,12.3821105 C81.0733714,12.3957029 81.1824762,12.4064305 81.2562286,12.4136838 L81.3677916,12.4248381 C81.3677916,12.4248381 81.368381,12.424899 81.3628952,12.4770743 C81.358019,12.5292495 81.3574095,12.5292495 81.3574095,12.5291925 L81.2458667,12.5180343 C81.1721143,12.510781 81.063619,12.5000533 80.922819,12.486461 C80.6418286,12.4592152 80.2340571,12.4203276 79.7263238,12.3736381 C78.7108571,12.280259 77.2955429,12.1557943 75.6973714,12.0312686 C72.4992,11.7822781 68.5689905,11.5334095 65.6353524,11.5334095 C62.7017143,11.5334095 58.7718705,11.7822781 55.5741257,12.0312686 C53.9755276,12.1557943 52.5602743,12.280259 51.5447467,12.3736381 C51.0369524,12.4203276 50.62912,12.4592152 50.3482514,12.486461 C50.2078171,12.5000533 50.0990781,12.510781 50.0255086,12.5180343 L49.9136,12.5291925 Z" id="Path" fill="#000000"></path>
                    <path d="M49.9136,39.2658286 C49.913539,39.2658286 49.9134781,39.2658286 49.9082362,39.2136533 C49.9030422,39.161539 49.9030422,39.161539 49.9030422,39.1614781 L50.0151467,39.1503238 C50.0888381,39.1430095 50.1975771,39.1323429 50.3381333,39.1186895 C50.6191848,39.0914438 51.0272,39.0525562 51.5351162,39.0058057 C52.5510705,38.9124267 53.9667505,38.787901 55.566019,38.6633752 C58.7640686,38.4143238 62.6974476,38.1651505 65.6353524,38.1651505 C68.5738667,38.1651505 72.5071238,38.4143238 75.7052952,38.6633752 C77.3046857,38.787901 78.72,38.9124267 79.7360762,39.0058057 C80.2438095,39.0525562 80.6521905,39.0914438 80.933181,39.1186895 C81.0733714,39.1323429 81.1824762,39.1430095 81.2562286,39.1503238 L81.3677916,39.1614781 C81.3677916,39.1614781 81.368381,39.161539 81.3628952,39.2136533 C81.358019,39.2658286 81.3574095,39.2658286 81.3574095,39.2658286 L81.2458667,39.2546743 C81.1721143,39.24736 81.063619,39.2366933 80.922819,39.22304 C80.6418286,39.1957943 80.2340571,39.1569067 79.7263238,39.1102171 C78.7108571,39.016899 77.2955429,38.8923733 75.6973714,38.7679086 C72.4992,38.5189181 68.5689905,38.2700495 65.6353524,38.2700495 C62.7017143,38.2700495 58.7718705,38.5189181 55.5741257,38.7679086 C53.9755276,38.8923733 52.5602743,39.016899 51.5447467,39.1102171 C51.0369524,39.1569067 50.62912,39.1957943 50.3482514,39.22304 C50.2078171,39.2366933 50.0990781,39.24736 50.0255086,39.2546743 L49.9136,39.2658286 Z" id="Path" fill="#000000"></path>
                    <path d="M49.9136,25.8975086 C49.913539,25.8975086 49.9134781,25.8975086 49.9082362,25.8453943 C49.9030422,25.793219 49.9030422,25.793219 49.9030422,25.793219 L50.0151467,25.7820038 C50.0888381,25.7746895 50.1975771,25.7640229 50.3381333,25.7503695 C50.6191848,25.7231238 51.0272,25.6842362 51.5351162,25.6375467 C52.5510705,25.5441067 53.9667505,25.419581 55.566019,25.2950552 C58.7640686,25.0460648 62.6974476,24.7968914 65.6353524,24.7968914 C68.5738667,24.7968914 72.5071238,25.0460648 75.7052952,25.2950552 C77.3046857,25.419581 78.72,25.5441067 79.7360762,25.6375467 C80.2438095,25.6842362 80.6521905,25.7231238 80.933181,25.7503695 C81.0733714,25.7640229 81.1824762,25.7746895 81.2562286,25.7820038 L81.3677916,25.7931581 C81.3677916,25.7931581 81.368381,25.793219 81.3628952,25.8453943 C81.358019,25.8975086 81.3574095,25.8975086 81.3574095,25.8975086 L81.2458667,25.8863543 C81.1721143,25.87904 81.063619,25.8683733 80.922819,25.85472 C80.6418286,25.8275352 80.2340571,25.7886476 79.7263238,25.7419581 C78.7108571,25.648579 77.2955429,25.5241143 75.6973714,25.3995886 C72.4992,25.1505981 68.5689905,24.9017295 65.6353524,24.9017295 C62.7017143,24.9017295 58.7718705,25.1505981 55.5741257,25.3995886 C53.9755276,25.5241143 52.5602743,25.648579 51.5447467,25.7419581 C51.0369524,25.7886476 50.62912,25.8275352 50.3482514,25.85472 C50.2078171,25.8683733 50.0990781,25.87904 50.0255086,25.8863543 L49.9136,25.8975086 Z" id="Path" fill="#000000"></path>
                    <path d="M49.9136,15.2028648 C49.913539,15.2028648 49.9134781,15.2028648 49.9082362,15.1507505 C49.9030422,15.0985752 49.9030422,15.0985752 49.9030422,15.0985752 L50.0151467,15.08736 C50.0888381,15.0800457 50.1975771,15.069379 50.3381333,15.0557257 C50.6191848,15.02848 51.0272,14.9895924 51.5351162,14.9429029 C52.5510705,14.8494629 53.9667505,14.7249371 55.566019,14.6004114 C58.7640686,14.351421 62.6974476,14.1022476 65.6353524,14.1022476 C68.5738667,14.1022476 72.5071238,14.351421 75.7052952,14.6004114 C77.3046857,14.7249371 78.72,14.8494629 79.7360762,14.9429029 C80.2438095,14.9895924 80.6521905,15.02848 80.933181,15.0557257 C81.0733714,15.069379 81.1824762,15.0800457 81.2562286,15.08736 L81.3677916,15.0985143 C81.3677916,15.0985143 81.368381,15.0985752 81.3628952,15.1507505 C81.358019,15.2028648 81.3574095,15.2028648 81.3574095,15.2028648 L81.2458667,15.1917105 C81.1721143,15.1843962 81.063619,15.1737295 80.922819,15.1600762 C80.6418286,15.1328914 80.2340571,15.0940038 79.7263238,15.0473143 C78.7108571,14.9539352 77.2955429,14.8294705 75.6973714,14.7049448 C72.4992,14.4559543 68.5689905,14.2070857 65.6353524,14.2070857 C62.7017143,14.2070857 58.7718705,14.4559543 55.5741257,14.7049448 C53.9755276,14.8294705 52.5602743,14.9539352 51.5447467,15.0473143 C51.0369524,15.0940038 50.62912,15.1328914 50.3482514,15.1600762 C50.2078171,15.1737295 50.0990781,15.1843962 50.0255086,15.1917105 L49.9136,15.2028648 Z" id="Path" fill="#000000"></path>
                    <path d="M49.9136,41.9393829 C49.913539,41.9393829 49.9134781,41.9394438 49.9082362,41.8872686 C49.9030422,41.8350933 49.9030422,41.8350933 49.9030422,41.8350933 L50.0151467,41.8238781 C50.0888381,41.8166248 50.1975771,41.8058971 50.3381333,41.7923048 C50.6191848,41.765059 51.0272,41.7261105 51.5351162,41.679421 C52.5510705,41.5860419 53.9667505,41.4615162 55.566019,41.3369295 C58.7640686,41.087939 62.6974476,40.8387657 65.6353524,40.8387657 C68.5738667,40.8387657 72.5071238,41.087939 75.7052952,41.3369295 C77.3046857,41.4615162 78.72,41.5860419 79.7360762,41.679421 C80.2438095,41.7261105 80.6521905,41.765059 80.933181,41.7923048 C81.0733714,41.8058971 81.1824762,41.8166248 81.2562286,41.8238781 L81.3677916,41.8350324 C81.3677916,41.8350324 81.368381,41.8350933 81.3628952,41.8872686 C81.358019,41.9394438 81.3574095,41.9393829 81.3574095,41.9393829 L81.2458667,41.9282286 C81.1721143,41.9209752 81.063619,41.9102476 80.922819,41.8966552 C80.6418286,41.8694095 80.2340571,41.8305219 79.7263238,41.7838324 C78.7108571,41.6904533 77.2955429,41.5659886 75.6973714,41.4414629 C72.4992,41.1924724 68.5689905,40.9436038 65.6353524,40.9436038 C62.7017143,40.9436038 58.7718705,41.1924724 55.5741257,41.4414629 C53.9755276,41.5659886 52.5602743,41.6904533 51.5447467,41.7838324 C51.0369524,41.8305219 50.62912,41.8694095 50.3482514,41.8966552 C50.2078171,41.9102476 50.0990781,41.9209752 50.0255086,41.9282286 L49.9136,41.9393829 Z" id="Path" fill="#000000"></path>
                    <path d="M49.9136,28.5711848 C49.913539,28.5711848 49.9134781,28.5711848 49.9082362,28.5190095 C49.9030422,28.4668952 49.9030422,28.4668952 49.9030422,28.4668343 L50.0151467,28.45568 C50.0888381,28.4483657 50.1975771,28.437699 50.3381333,28.4240457 C50.6191848,28.3968 51.0272,28.3579124 51.5351162,28.3111619 C52.5510705,28.2177829 53.9667505,28.0932571 55.566019,27.9687314 C58.7640686,27.71968 62.6974476,27.4705067 65.6353524,27.4705067 C68.5738667,27.4705067 72.5071238,27.71968 75.7052952,27.9687314 C77.3046857,28.0932571 78.72,28.2177829 79.7360762,28.3111619 C80.2438095,28.3579124 80.6521905,28.3968 80.933181,28.4240457 C81.0733714,28.437699 81.1824762,28.4483657 81.2562286,28.45568 L81.3677916,28.4668343 C81.3677916,28.4668343 81.368381,28.4668952 81.3628952,28.5190095 C81.358019,28.5711848 81.3574095,28.5711848 81.3574095,28.5711848 L81.2458667,28.5600305 C81.1721143,28.5527162 81.063619,28.5420495 80.922819,28.5283962 C80.6418286,28.5011505 80.2340571,28.4622629 79.7263238,28.4155733 C78.7108571,28.3222552 77.2955429,28.1977295 75.6973714,28.0732648 C72.4992,27.8242743 68.5689905,27.5754057 65.6353524,27.5754057 C62.7017143,27.5754057 58.7718705,27.8242743 55.5741257,28.0732648 C53.9755276,28.1977295 52.5602743,28.3222552 51.5447467,28.4155733 C51.0369524,28.4622629 50.62912,28.5011505 50.3482514,28.5283962 C50.2078171,28.5420495 50.0990781,28.5527162 50.0255086,28.5600305 L49.9136,28.5711848 Z" id="Path" fill="#000000"></path>
                    <path d="M49.9136,17.876541 C49.913539,17.876541 49.9134781,17.876541 49.9082362,17.8243657 C49.9030422,17.7722514 49.9030422,17.7722514 49.9030422,17.7721905 L50.0151467,17.7610362 C50.0888381,17.7537219 50.1975771,17.7430552 50.3381333,17.7294019 C50.6191848,17.7021562 51.0272,17.6632686 51.5351162,17.6165181 C52.5510705,17.523139 53.9667505,17.3986133 55.566019,17.2740876 C58.7640686,17.0250362 62.6974476,16.7758629 65.6353524,16.7758629 C68.5738667,16.7758629 72.5071238,17.0250362 75.7052952,17.2740876 C77.3046857,17.3986133 78.72,17.523139 79.7360762,17.6165181 C80.2438095,17.6632686 80.6521905,17.7021562 80.933181,17.7294019 C81.0733714,17.7430552 81.1824762,17.7537219 81.2562286,17.7610362 L81.3677916,17.7721905 C81.3677916,17.7721905 81.368381,17.7722514 81.3628952,17.8243657 C81.358019,17.876541 81.3574095,17.876541 81.3574095,17.876541 L81.2458667,17.8653867 C81.1721143,17.8580724 81.063619,17.8474057 80.922819,17.8337524 C80.6418286,17.8065676 80.2340571,17.767619 79.7263238,17.7209295 C78.7108571,17.6276114 77.2955429,17.5030857 75.6973714,17.378621 C72.4992,17.1296305 68.5689905,16.8807619 65.6353524,16.8807619 C62.7017143,16.8807619 58.7718705,17.1296305 55.5741257,17.378621 C53.9755276,17.5030857 52.5602743,17.6276114 51.5447467,17.7209295 C51.0369524,17.767619 50.62912,17.8065676 50.3482514,17.8337524 C50.2078171,17.8474057 50.0990781,17.8580724 50.0255086,17.8653867 L49.9136,17.876541 Z" id="Path" fill="#000000"></path>
                    <path d="M49.9136,44.613059 C49.913539,44.613059 49.9134781,44.613059 49.9082362,44.5609448 C49.9030422,44.5087695 49.9030422,44.5087695 49.9030422,44.5087695 L50.0151467,44.4975543 C50.0888381,44.49024 50.1975771,44.4795733 50.3381333,44.46592 C50.6191848,44.4386743 51.0272,44.3997867 51.5351162,44.3530971 C52.5510705,44.2596571 53.9667505,44.1351314 55.566019,44.0106057 C58.7640686,43.7616152 62.6974476,43.5124419 65.6353524,43.5124419 C68.5738667,43.5124419 72.5071238,43.7616152 75.7052952,44.0106057 C77.3046857,44.1351314 78.72,44.2596571 79.7360762,44.3530971 C80.2438095,44.3997867 80.6521905,44.4386743 80.933181,44.46592 C81.0733714,44.4795733 81.1824762,44.49024 81.2562286,44.4975543 L81.3677916,44.5087086 C81.3677916,44.5087086 81.368381,44.5087695 81.3628952,44.5609448 C81.358019,44.613059 81.3574095,44.613059 81.3574095,44.613059 L81.2458667,44.6019048 C81.1721143,44.5945905 81.063619,44.5839238 80.922819,44.5702705 C80.6418286,44.5430857 80.2340571,44.5041981 79.7263238,44.4575086 C78.7108571,44.3641295 77.2955429,44.2396648 75.6973714,44.115139 C72.4992,43.8661486 68.5689905,43.61728 65.6353524,43.61728 C62.7017143,43.61728 58.7718705,43.8661486 55.5741257,44.115139 C53.9755276,44.2396648 52.5602743,44.3641295 51.5447467,44.4575086 C51.0369524,44.5041981 50.62912,44.5430857 50.3482514,44.5702705 C50.2078171,44.5839238 50.0990781,44.5945905 50.0255086,44.6019048 L49.9136,44.613059 Z" id="Path" fill="#000000"></path>
                    <path d="M49.9136,54.5212992 C49.913539,54.5213562 49.9134781,54.5213562 49.9082362,54.469181 C49.9030422,54.4170057 49.9030422,54.4170057 49.9030422,54.4170057 L50.0151467,54.4058514 C50.0888381,54.3985371 50.1975771,54.3878095 50.3381333,54.3742171 C50.6191848,54.3469714 51.0272,54.3080229 51.5351162,54.2613333 C52.5510705,54.1679543 53.9667505,54.0434286 55.566019,53.9189029 C58.7640686,53.6698514 62.6974476,53.4206781 65.6353524,53.4206781 C68.5738667,53.4206781 72.5071238,53.6698514 75.7052952,53.9189029 C77.3046857,54.0434286 78.72,54.1679543 79.7360762,54.2613333 C80.2438095,54.3080229 80.6521905,54.3469714 80.933181,54.3742171 C81.0733714,54.3878095 81.1824762,54.3985371 81.2562286,54.4058514 L81.3677916,54.4169448 C81.3677916,54.4170057 81.368381,54.4170057 81.3628952,54.469181 C81.358019,54.5213562 81.3574095,54.5213562 81.3574095,54.5212992 L81.2458667,54.510141 C81.1721143,54.5028876 81.063619,54.49216 80.922819,54.4785676 C80.6418286,54.4513219 80.2340571,54.4124343 79.7263238,54.3657448 C78.7108571,54.2723657 77.2955429,54.147901 75.6973714,54.0234362 C72.4992,53.7743848 68.5689905,53.5255162 65.6353524,53.5255162 C62.7017143,53.5255162 58.7718705,53.7743848 55.5741257,54.0234362 C53.9755276,54.147901 52.5602743,54.2723657 51.5447467,54.3657448 C51.0369524,54.4124343 50.62912,54.4513219 50.3482514,54.4785676 C50.2078171,54.49216 50.0990781,54.5028876 50.0255086,54.510141 L49.9136,54.5212992 Z" id="Path" fill="#000000"></path>
                    <path d="M49.9136,31.244861 C49.913539,31.244861 49.9134781,31.244861 49.9082362,31.1926857 C49.9030422,31.1405105 49.9030422,31.1405105 49.9030422,31.1405105 L50.0151467,31.1293562 C50.0888381,31.1220419 50.1975771,31.1113143 50.3381333,31.0977219 C50.6191848,31.0704762 51.0272,31.0315276 51.5351162,30.9848381 C52.5510705,30.891459 53.9667505,30.7669333 55.566019,30.6424076 C58.7640686,30.3933562 62.6974476,30.1441829 65.6353524,30.1441829 C68.5738667,30.1441829 72.5071238,30.3933562 75.7052952,30.6424076 C77.3046857,30.7669333 78.72,30.891459 79.7360762,30.9848381 C80.2438095,31.0315276 80.6521905,31.0704762 80.933181,31.0977219 C81.0733714,31.1113143 81.1824762,31.1220419 81.2562286,31.1293562 L81.3677916,31.1405105 C81.3677916,31.1405105 81.368381,31.1405105 81.3628952,31.1926857 C81.358019,31.244861 81.3574095,31.244861 81.3574095,31.244861 L81.2458667,31.2336457 C81.1721143,31.2263924 81.063619,31.2156648 80.922819,31.2020724 C80.6418286,31.1748267 80.2340571,31.135939 79.7263238,31.0892495 C78.7108571,30.9958705 77.2955429,30.8714057 75.6973714,30.746941 C72.4992,30.4978895 68.5689905,30.249021 65.6353524,30.249021 C62.7017143,30.249021 58.7718705,30.4978895 55.5741257,30.746941 C53.9755276,30.8714057 52.5602743,30.9958705 51.5447467,31.0892495 C51.0369524,31.135939 50.62912,31.1748267 50.3482514,31.2020724 C50.2078171,31.2156648 50.0990781,31.2263924 50.0255086,31.2336457 L49.9136,31.244861 Z" id="Path" fill="#000000"></path>
                    <path d="M49.9136,20.5502171 C49.913539,20.5502171 49.9134781,20.5502171 49.9082362,20.4980419 C49.9030422,20.4458667 49.9030422,20.4458667 49.9030422,20.4458667 L50.0151467,20.4347124 C50.0888381,20.4273981 50.1975771,20.4166705 50.3381333,20.4030781 C50.6191848,20.3758324 51.0272,20.3368838 51.5351162,20.2901943 C52.5510705,20.1968152 53.9667505,20.0722895 55.566019,19.9477638 C58.7640686,19.6987124 62.6974476,19.449539 65.6353524,19.449539 C68.5738667,19.449539 72.5071238,19.6987124 75.7052952,19.9477638 C77.3046857,20.0722895 78.72,20.1968152 79.7360762,20.2901943 C80.2438095,20.3368838 80.6521905,20.3758324 80.933181,20.4030781 C81.0733714,20.4166705 81.1824762,20.4273981 81.2562286,20.4347124 L81.3677916,20.4458667 C81.3677916,20.4458667 81.368381,20.4458667 81.3628952,20.4980419 C81.358019,20.5502171 81.3574095,20.5502171 81.3574095,20.5502171 L81.2458667,20.5390019 C81.1721143,20.5317486 81.063619,20.521021 80.922819,20.5074286 C80.6418286,20.4801829 80.2340571,20.4412952 79.7263238,20.3946057 C78.7108571,20.3012267 77.2955429,20.1767619 75.6973714,20.0522971 C72.4992,19.8032457 68.5689905,19.5543771 65.6353524,19.5543771 C62.7017143,19.5543771 58.7718705,19.8032457 55.5741257,20.0522971 C53.9755276,20.1767619 52.5602743,20.3012267 51.5447467,20.3946057 C51.0369524,20.4412952 50.62912,20.4801829 50.3482514,20.5074286 C50.2078171,20.521021 50.0990781,20.5317486 50.0255086,20.5390019 L49.9136,20.5502171 Z" id="Path" fill="#000000"></path>
                    <path d="M49.9136,47.2867352 C49.913539,47.2867352 49.9134781,47.2867352 49.9082362,47.23456 C49.9030422,47.1824457 49.9030422,47.1824457 49.9030422,47.1823848 L50.0151467,47.1712305 C50.0888381,47.1639162 50.1975771,47.1532495 50.3381333,47.1395962 C50.6191848,47.1123505 51.0272,47.0734629 51.5351162,47.0267124 C52.5510705,46.9333333 53.9667505,46.8088076 55.566019,46.6842819 C58.7640686,46.4352305 62.6974476,46.1860571 65.6353524,46.1860571 C68.5738667,46.1860571 72.5071238,46.4352305 75.7052952,46.6842819 C77.3046857,46.8088076 78.72,46.9333333 79.7360762,47.0267124 C80.2438095,47.0734629 80.6521905,47.1123505 80.933181,47.1395962 C81.0733714,47.1532495 81.1824762,47.1639162 81.2562286,47.1712305 L81.3677916,47.1823848 C81.3677916,47.1823848 81.368381,47.1824457 81.3628952,47.23456 C81.358019,47.2867352 81.3574095,47.2867352 81.3574095,47.2867352 L81.2458667,47.275581 C81.1721143,47.2682667 81.063619,47.2576 80.922819,47.2439467 C80.6418286,47.216701 80.2340571,47.1778133 79.7263238,47.1311238 C78.7108571,47.0378057 77.2955429,46.91328 75.6973714,46.7888152 C72.4992,46.5398248 68.5689905,46.2909562 65.6353524,46.2909562 C62.7017143,46.2909562 58.7718705,46.5398248 55.5741257,46.7888152 C53.9755276,46.91328 52.5602743,47.0378057 51.5447467,47.1311238 C51.0369524,47.1778133 50.62912,47.216701 50.3482514,47.2439467 C50.2078171,47.2576 50.0990781,47.2682667 50.0255086,47.275581 L49.9136,47.2867352 Z" id="Path" fill="#000000"></path>
                    <path d="M49.9136,49.9079924 C49.913539,49.9079924 49.9134781,49.9079924 49.9082362,49.8558781 C49.9030422,49.8037029 49.9030422,49.8037029 49.9030422,49.8037029 L50.0151467,49.7924876 C50.0888381,49.7852343 50.1975771,49.7745067 50.3381333,49.7608533 C50.6191848,49.7336076 51.0272,49.69472 51.5351162,49.6480305 C52.5510705,49.5545905 53.9667505,49.4300648 55.566019,49.305539 C58.7640686,49.0565486 62.6974476,48.8073752 65.6353524,48.8073752 C68.5738667,48.8073752 72.5071238,49.0565486 75.7052952,49.305539 C77.3046857,49.4300648 78.72,49.5545905 79.7360762,49.6480305 C80.2438095,49.69472 80.6521905,49.7336076 80.933181,49.7608533 C81.0733714,49.7745067 81.1824762,49.7852343 81.2562286,49.7924876 L81.3677916,49.8036419 C81.3677916,49.8036419 81.368381,49.8037029 81.3628952,49.8558781 C81.358019,49.9079924 81.3574095,49.9079924 81.3574095,49.9079924 L81.2458667,49.8968381 C81.1721143,49.8895238 81.063619,49.8788571 80.922819,49.8652648 C80.6418286,49.838019 80.2340571,49.7991314 79.7263238,49.7524419 C78.7108571,49.6590629 77.2955429,49.5345981 75.6973714,49.4100724 C72.4992,49.1610819 68.5689905,48.9122133 65.6353524,48.9122133 C62.7017143,48.9122133 58.7718705,49.1610819 55.5741257,49.4100724 C53.9755276,49.5345981 52.5602743,49.6590629 51.5447467,49.7524419 C51.0369524,49.7991314 50.62912,49.838019 50.3482514,49.8652648 C50.2078171,49.8788571 50.0990781,49.8895238 50.0255086,49.8968381 L49.9136,49.9079924 Z" id="Path" fill="#000000"></path>
                    <path d="M49.9136,56.1989486 C49.913539,56.1989486 49.9134781,56.1989486 49.9082362,56.1467733 C49.9030422,56.0945981 49.9030422,56.0945981 49.9030422,56.0945981 L50.0151467,56.0834438 C50.0888381,56.0761295 50.1975771,56.0654019 50.3381333,56.0518095 C50.6191848,56.0245638 51.0272,55.9856152 51.5351162,55.9389257 C52.5510705,55.8455467 53.9667505,55.721021 55.566019,55.5964952 C58.7640686,55.3474438 62.6974476,55.0982705 65.6353524,55.0982705 L65.6353524,55.2031086 C62.7017143,55.2031086 58.7718705,55.4520381 55.5741257,55.7010286 C53.9755276,55.8254933 52.5602743,55.9499581 51.5447467,56.0433371 C51.0369524,56.0900267 50.62912,56.1289143 50.3482514,56.15616 C50.2078171,56.1697524 50.0990781,56.18048 50.0255086,56.1877943 L49.9136,56.1989486 Z" id="Path" fill="#000000"></path>
                    <path d="M49.9136,33.9184762 C49.913539,33.9184762 49.9134781,33.9185371 49.9082362,33.8663619 C49.9030422,33.8141867 49.9030422,33.8141867 49.9030422,33.8141867 L50.0151467,33.8029714 C50.0888381,33.7957181 50.1975771,33.7849905 50.3381333,33.7713981 C50.6191848,33.7441524 51.0272,33.7052038 51.5351162,33.6585143 C52.5510705,33.5651352 53.9667505,33.4406095 55.566019,33.3160229 C58.7640686,33.0670324 62.6974476,32.817859 65.6353524,32.817859 C68.5738667,32.817859 72.5071238,33.0670324 75.7052952,33.3160229 C77.3046857,33.4406095 78.72,33.5651352 79.7360762,33.6585143 C80.2438095,33.7052038 80.6521905,33.7441524 80.933181,33.7713981 C81.0733714,33.7849905 81.1824762,33.7957181 81.2562286,33.8029714 L81.3677916,33.8141257 C81.3677916,33.8141257 81.368381,33.8141867 81.3628952,33.8663619 C81.358019,33.9185371 81.3574095,33.9184762 81.3574095,33.9184762 L81.2458667,33.9073219 C81.1721143,33.9000686 81.063619,33.889341 80.922819,33.8757486 C80.6418286,33.8485029 80.2340571,33.8096152 79.7263238,33.7629257 C78.7108571,33.6695467 77.2955429,33.5450819 75.6973714,33.4205562 C72.4992,33.1715657 68.5689905,32.9226971 65.6353524,32.9226971 C62.7017143,32.9226971 58.7718705,33.1715657 55.5741257,33.4205562 C53.9755276,33.5450819 52.5602743,33.6695467 51.5447467,33.7629257 C51.0369524,33.8096152 50.62912,33.8485029 50.3482514,33.8757486 C50.2078171,33.889341 50.0990781,33.9000686 50.0255086,33.9073219 L49.9136,33.9184762 Z" id="Path" fill="#000000"></path>
                    <path d="M25.6,7.61904762 C19.5047619,7.61904762 12.1904762,8.53333333 9.14285714,9.14285714 L9.14285714,26.9714286 C13.1047619,26.2095238 21.5364876,25.9047619 25.2952381,25.9047619 C27.9771429,25.9047619 37.4857143,26.5142857 41.752381,26.9714286 L41.752381,9.14285714 C38.5828571,8.41142857 30.7809524,7.61904762 25.6,7.61904762 Z" id="Path" stroke="#C6C6C6" fill="#C4C4C4" fill-rule="nonzero"></path>
                    <path d="M9.65150476,12.5291925 C9.65138286,12.5292495 9.65138286,12.5292495 9.64608,12.4770743 C9.64092987,12.424899 9.64092987,12.424899 9.64092987,12.424899 L9.75305143,12.4136838 C9.8266819,12.4064305 9.9354819,12.3957029 10.0759771,12.3821105 C10.3570286,12.3548648 10.7650438,12.3159162 11.273021,12.2692267 C12.2889143,12.1758476 13.7046552,12.0513219 15.3038629,11.9267352 C18.5019733,11.6777448 22.4355352,11.4285714 25.373501,11.4285714 C28.3114667,11.4285714 32.2450286,11.6777448 35.4430781,11.9267352 C37.0423467,12.0513219 38.4580267,12.1758476 39.473981,12.2692267 C39.9818971,12.3159162 40.3899124,12.3548648 40.6709638,12.3821105 C40.81152,12.3957029 40.920259,12.4064305 40.9939505,12.4136838 L41.1057315,12.4248381 C41.1057315,12.4248381 41.1061638,12.424899 41.100861,12.4770743 C41.095619,12.5292495 41.0955581,12.5292495 41.0954971,12.5291925 L40.9835886,12.5180343 C40.910019,12.510781 40.80128,12.5000533 40.6608457,12.486461 C40.3799771,12.4592152 39.9721448,12.4203276 39.4643505,12.3736381 C38.4488229,12.280259 37.0336305,12.1557943 35.4349714,12.0312686 C32.2372267,11.7822781 28.3070781,11.5334095 25.373501,11.5334095 C22.4398629,11.5334095 18.5097752,11.7822781 15.3120305,12.0312686 C13.7133714,12.1557943 12.298179,12.280259 11.2825905,12.3736381 C10.7748571,12.4203276 10.3670248,12.4592152 10.0860952,12.486461 C9.94566095,12.5000533 9.83698286,12.510781 9.76341333,12.5180343 L9.65150476,12.5291925 Z" id="Path" fill="#000000"></path>
                    <path d="M9.65150476,15.2028648 C9.65138286,15.2028648 9.65138286,15.2028648 9.64608,15.1507505 C9.64092987,15.0985752 9.64092987,15.0985752 9.64092987,15.0985752 L9.75305143,15.08736 C9.8266819,15.0800457 9.9354819,15.069379 10.0759771,15.0557257 C10.3570286,15.02848 10.7650438,14.9895924 11.273021,14.9429029 C12.2889143,14.8494629 13.7046552,14.7249371 15.3038629,14.6004114 C18.5019733,14.351421 22.4355352,14.1022476 25.373501,14.1022476 C28.3114667,14.1022476 32.2450286,14.351421 35.4430781,14.6004114 C37.0423467,14.7249371 38.4580267,14.8494629 39.473981,14.9429029 C39.9818971,14.9895924 40.3899124,15.02848 40.6709638,15.0557257 C40.81152,15.069379 40.920259,15.0800457 40.9939505,15.08736 L41.1057315,15.0985143 C41.1057315,15.0985143 41.1061638,15.0985752 41.100861,15.1507505 C41.095619,15.2028648 41.0955581,15.2028648 41.0954971,15.2028648 L40.9835886,15.1917105 C40.910019,15.1843962 40.80128,15.1737295 40.6608457,15.1600762 C40.3799771,15.1328914 39.9721448,15.0940038 39.4643505,15.0473143 C38.4488229,14.9539352 37.0336305,14.8294705 35.4349714,14.7049448 C32.2372267,14.4559543 28.3070781,14.2070857 25.373501,14.2070857 C22.4398629,14.2070857 18.5097752,14.4559543 15.3120305,14.7049448 C13.7133714,14.8294705 12.298179,14.9539352 11.2825905,15.0473143 C10.7748571,15.0940038 10.3670248,15.1328914 10.0860952,15.1600762 C9.94566095,15.1737295 9.83698286,15.1843962 9.76341333,15.1917105 L9.65150476,15.2028648 Z" id="Path" fill="#000000"></path>
                    <path d="M9.65150476,17.876541 C9.65138286,17.876541 9.65138286,17.876541 9.64608,17.8243657 C9.64092987,17.7722514 9.64092987,17.7722514 9.64092987,17.7721905 L9.75305143,17.7610362 C9.8266819,17.7537219 9.9354819,17.7430552 10.0759771,17.7294019 C10.3570286,17.7021562 10.7650438,17.6632686 11.273021,17.6165181 C12.2889143,17.523139 13.7046552,17.3986133 15.3038629,17.2740876 C18.5019733,17.0250362 22.4355352,16.7758629 25.373501,16.7758629 C28.3114667,16.7758629 32.2450286,17.0250362 35.4430781,17.2740876 C37.0423467,17.3986133 38.4580267,17.523139 39.473981,17.6165181 C39.9818971,17.6632686 40.3899124,17.7021562 40.6709638,17.7294019 C40.81152,17.7430552 40.920259,17.7537219 40.9939505,17.7610362 L41.1057315,17.7721905 C41.1057315,17.7721905 41.1061638,17.7722514 41.100861,17.8243657 C41.095619,17.876541 41.0955581,17.876541 41.0954971,17.876541 L40.9835886,17.8653867 C40.910019,17.8580724 40.80128,17.8474057 40.6608457,17.8337524 C40.3799771,17.8065676 39.9721448,17.767619 39.4643505,17.7209295 C38.4488229,17.6276114 37.0336305,17.5030857 35.4349714,17.378621 C32.2372267,17.1296305 28.3070781,16.8807619 25.373501,16.8807619 C22.4398629,16.8807619 18.5097752,17.1296305 15.3120305,17.378621 C13.7133714,17.5030857 12.298179,17.6276114 11.2825905,17.7209295 C10.7748571,17.767619 10.3670248,17.8065676 10.0860952,17.8337524 C9.94566095,17.8474057 9.83698286,17.8580724 9.76341333,17.8653867 L9.65150476,17.876541 Z" id="Path" fill="#000000"></path>
                    <path d="M9.65150476,20.6445144 C9.65138286,20.6445714 9.65138286,20.6445714 9.64608,20.5923962 C9.64092987,20.540221 9.64092987,20.540221 9.64092987,20.540221 L9.75305143,20.5290667 C9.8266819,20.5217524 9.9354819,20.5110248 10.0759771,20.4974324 C10.3570286,20.4701867 10.7650438,20.4312381 11.273021,20.3845486 C12.2889143,20.2911695 13.7046552,20.1666438 15.3038629,20.0421181 C18.5019733,19.7930667 22.4355352,19.5438933 25.373501,19.5438933 C28.3114667,19.5438933 32.2450286,19.7930667 35.4430781,20.0421181 C37.0423467,20.1666438 38.4580267,20.2911695 39.473981,20.3845486 C39.9818971,20.4312381 40.3899124,20.4701867 40.6709638,20.4974324 C40.81152,20.5110248 40.920259,20.5217524 40.9939505,20.5290667 L41.1057315,20.54016 C41.1057315,20.540221 41.1061638,20.540221 41.100861,20.5923962 C41.095619,20.6445714 41.0955581,20.6445714 41.0954971,20.6445144 L40.9835886,20.6333562 C40.910019,20.6261029 40.80128,20.6153752 40.6608457,20.6017829 C40.3799771,20.5745371 39.9721448,20.5356495 39.4643505,20.48896 C38.4488229,20.395581 37.0336305,20.2711162 35.4349714,20.1466514 C32.2372267,19.8976 28.3070781,19.6487314 25.373501,19.6487314 C22.4398629,19.6487314 18.5097752,19.8976 15.3120305,20.1466514 C13.7133714,20.2711162 12.298179,20.395581 11.2825905,20.48896 C10.7748571,20.5356495 10.3670248,20.5745371 10.0860952,20.6017829 C9.94566095,20.6153752 9.83698286,20.6261029 9.76341333,20.6333562 L9.65150476,20.6445144 Z" id="Path" fill="#000000"></path>
                    <path d="M9.65150476,23.0826097 C9.65138286,23.0826667 9.65138286,23.0826667 9.64608,23.0304914 C9.64092987,22.9783162 9.64092987,22.9783162 9.64092987,22.9783162 L9.75305143,22.9671619 C9.8266819,22.9598476 9.9354819,22.94912 10.0759771,22.9355276 C10.3570286,22.9082819 10.7650438,22.8693333 11.273021,22.8226438 C12.2889143,22.7292648 13.7046552,22.604739 15.3038629,22.4802133 C18.5019733,22.2311619 22.4355352,21.9819886 25.373501,21.9819886 C28.3114667,21.9819886 32.2450286,22.2311619 35.4430781,22.4802133 C37.0423467,22.604739 38.4580267,22.7292648 39.473981,22.8226438 C39.9818971,22.8693333 40.3899124,22.9082819 40.6709638,22.9355276 C40.81152,22.94912 40.920259,22.9598476 40.9939505,22.9671619 L41.1057315,22.9782552 C41.1057315,22.9783162 41.1061638,22.9783162 41.100861,23.0304914 C41.095619,23.0826667 41.0955581,23.0826667 41.0954971,23.0826097 L40.9835886,23.0714514 C40.910019,23.0641981 40.80128,23.0534705 40.6608457,23.0398781 C40.3799771,23.0126324 39.9721448,22.9737448 39.4643505,22.9270552 C38.4488229,22.8336762 37.0336305,22.7092114 35.4349714,22.5847467 C32.2372267,22.3356952 28.3070781,22.0868267 25.373501,22.0868267 C22.4398629,22.0868267 18.5097752,22.3356952 15.3120305,22.5847467 C13.7133714,22.7092114 12.298179,22.8336762 11.2825905,22.9270552 C10.7748571,22.9737448 10.3670248,23.0126324 10.0860952,23.0398781 C9.94566095,23.0534705 9.83698286,23.0641981 9.76341333,23.0714514 L9.65150476,23.0826097 Z" id="Path" fill="#000000"></path>
                    <path d="M9.65150476,25.5207049 C9.65138286,25.5207619 9.65138286,25.5207619 9.64608,25.4685867 C9.64092987,25.4164114 9.64092987,25.4164114 9.64092987,25.4164114 L9.75305143,25.4052571 C9.8266819,25.3979429 9.9354819,25.3872152 10.0759771,25.3736229 C10.3570286,25.3463771 10.7650438,25.3074286 11.273021,25.260739 C12.2889143,25.16736 13.7046552,25.0428343 15.3038629,24.9183086 C18.5019733,24.6692571 22.4355352,24.4200838 25.373501,24.4200838 C28.3114667,24.4200838 32.2450286,24.6692571 35.4430781,24.9183086 C37.0423467,25.0428343 38.4580267,25.16736 39.473981,25.260739 C39.9818971,25.3074286 40.3899124,25.3463771 40.6709638,25.3736229 C40.81152,25.3872152 40.920259,25.3979429 40.9939505,25.4052571 L41.1057315,25.4163505 C41.1057315,25.4164114 41.1061638,25.4164114 41.100861,25.4685867 C41.095619,25.5207619 41.0955581,25.5207619 41.0954971,25.5207049 L40.9835886,25.5095467 C40.910019,25.5022933 40.80128,25.4915657 40.6608457,25.4779733 C40.3799771,25.4507276 39.9721448,25.41184 39.4643505,25.3651505 C38.4488229,25.2717714 37.0336305,25.1473067 35.4349714,25.0228419 C32.2372267,24.7737905 28.3070781,24.5249219 25.373501,24.5249219 C22.4398629,24.5249219 18.5097752,24.7737905 15.3120305,25.0228419 C13.7133714,25.1473067 12.298179,25.2717714 11.2825905,25.3651505 C10.7748571,25.41184 10.3670248,25.4507276 10.0860952,25.4779733 C9.94566095,25.4915657 9.83698286,25.5022933 9.76341333,25.5095467 L9.65150476,25.5207049 Z" id="Path" fill="#000000"></path>
                    <path d="M9.65150476,9.85557333 C9.65138286,9.85557333 9.65138286,9.85557333 9.64608,9.8033981 C9.64092987,9.75122286 9.64092987,9.75122286 9.64092987,9.75122286 L9.75305143,9.74006857 C9.8266819,9.73275429 9.9354819,9.72202667 10.0759771,9.70843429 C10.3570286,9.68118857 10.7650438,9.64224 11.273021,9.59555048 C12.2889143,9.50217143 13.7046552,9.37764571 15.3038629,9.25312 C18.5019733,9.00406857 22.4355352,8.75489524 25.373501,8.75489524 C28.3114667,8.75489524 32.2450286,9.00406857 35.4430781,9.25312 C37.0423467,9.37764571 38.4580267,9.50217143 39.473981,9.59555048 C39.9818971,9.64224 40.3899124,9.68118857 40.6709638,9.70843429 C40.81152,9.72202667 40.920259,9.73275429 40.9939505,9.74006857 L41.1057315,9.75122286 C41.1057315,9.75122286 41.1061638,9.75122286 41.100861,9.8033981 C41.095619,9.85557333 41.0955581,9.85557333 41.0954971,9.85557333 L40.9835886,9.8443581 C40.910019,9.83710476 40.80128,9.82637714 40.6608457,9.81278476 C40.3799771,9.78553905 39.9721448,9.74665143 39.4643505,9.6999619 C38.4488229,9.60658286 37.0336305,9.4821181 35.4349714,9.35765333 C32.2372267,9.1086019 28.3070781,8.85973333 25.373501,8.85973333 C22.4398629,8.85973333 18.5097752,9.1086019 15.3120305,9.35765333 C13.7133714,9.4821181 12.298179,9.60658286 11.2825905,9.6999619 C10.7748571,9.74665143 10.3670248,9.78553905 10.0860952,9.81278476 C9.94566095,9.82637714 9.83698286,9.83710476 9.76341333,9.8443581 L9.65150476,9.85557333 Z" id="Path" fill="#000000"></path>
                </g>
            </g>
        </g>
    </g>
</svg>