<svg width="151" height="106" viewBox="0 0 151 106" fill="none" xmlns="http://www.w3.org/2000/svg">
<path d="M0.722656 12.9026H150.723V105.104H0.722656V12.9026Z" fill="white"/>
<path fill-rule="evenodd" clip-rule="evenodd" d="M150.223 13.4026H1.22266V104.604H150.223V13.4026ZM0.722656 12.9026V105.104H150.723V12.9026H0.722656Z" fill="black"/>
<path d="M10.1677 5.33387C10.1677 5.33387 26.3375 0.861389 43.1952 0.861389C60.053 0.861389 76.2228 5.33387 76.2228 5.33387V98.2238C76.2228 98.2238 60.053 95.1274 42.8512 95.1274C25.6494 95.1274 10.1677 98.2238 10.1677 98.2238V5.33387Z" fill="white"/>
<path fill-rule="evenodd" clip-rule="evenodd" d="M10.1677 5.33387C10.1677 5.33387 26.3375 0.861389 43.1952 0.861389C60.053 0.861389 76.2228 5.33387 76.2228 5.33387V98.2238C76.2228 98.2238 75.9447 98.1705 75.4228 98.078C71.9643 97.465 57.7973 95.1274 42.8512 95.1274C27.9532 95.1274 14.3454 97.45 10.9677 98.072C10.4454 98.1682 10.1677 98.2238 10.1677 98.2238V5.33387ZM10.9677 97.2587C11.4111 97.1777 12.0012 97.0728 12.7224 96.9511C14.4514 96.6594 16.9346 96.2707 19.9568 95.8821C25.9987 95.1053 34.2055 94.3274 42.8512 94.3274C51.4964 94.3274 59.8746 95.1052 66.0869 95.8818C69.1944 96.2702 71.763 96.6587 73.5559 96.9503C74.3284 97.076 74.9569 97.1837 75.4228 97.2656V5.94928C75.3824 5.93881 75.34 5.92785 75.2956 5.91643C74.8255 5.7954 74.1333 5.62202 73.2494 5.41371C71.4812 4.99706 68.9468 4.44095 65.8876 3.88472C59.7649 2.7715 51.5592 1.66139 43.1952 1.66139C34.8313 1.66139 26.6256 2.7715 20.5029 3.88472C17.4437 4.44095 14.9092 4.99706 13.1411 5.41371C12.2572 5.62202 11.565 5.7954 11.0949 5.91643C11.0505 5.92785 11.0081 5.93881 10.9677 5.94928V97.2587Z" fill="black"/>
<path d="M42.4453 13.1655C32.4453 13.1655 20.4453 14.6655 15.4453 15.6655V44.9155C21.9453 43.6655 35.7786 43.1655 41.9453 43.1655C46.3453 43.1655 61.9453 44.1655 68.9453 44.9155V15.6655C63.7453 14.4655 50.9453 13.1655 42.4453 13.1655Z" fill="#C4C4C4"/>
<path fill-rule="evenodd" clip-rule="evenodd" d="M15.9453 16.0772V44.3157C22.7091 43.1357 35.9594 42.6655 41.9453 42.6655C46.2568 42.6655 61.1989 43.6168 68.4453 44.3603V16.0661C63.0645 14.9014 50.7145 13.6655 42.4453 13.6655C32.7398 13.6655 21.1347 15.0849 15.9453 16.0772ZM15.3473 15.1752C20.3772 14.1692 32.4101 12.6655 42.4453 12.6655C50.9709 12.6655 63.8106 13.9674 69.0577 15.1783L69.4453 15.2677V45.4719L68.892 45.4126C61.9016 44.6637 46.3209 43.6655 41.9453 43.6655C35.7786 43.6655 21.9881 44.1664 15.5397 45.4065L14.9453 45.5208V15.2556L15.3473 15.1752Z" fill="#C6C6C6"/>
<path fill-rule="evenodd" clip-rule="evenodd" d="M16.0886 61.2077C16.0885 61.2077 16.0884 61.2077 16.0482 60.8097C16.008 60.4118 16.0081 60.4118 16.0082 60.4118L16.1927 60.3933C16.3138 60.3813 16.4925 60.3638 16.7232 60.3414C17.1848 60.2967 17.8547 60.2328 18.6886 60.1561C20.3564 60.0028 22.6806 59.7983 25.3062 59.5939C30.5539 59.1852 37.0178 58.7756 41.851 58.7756C46.6841 58.7756 53.148 59.1852 58.3958 59.5939C61.0213 59.7983 63.3455 60.0028 65.0133 60.1561C65.8472 60.2328 66.5172 60.2967 66.9787 60.3414C67.2095 60.3638 67.3882 60.3813 67.5092 60.3933L67.6932 60.4117C67.6933 60.4117 67.6939 60.4118 67.6537 60.8097C67.6135 61.2077 67.6135 61.2077 67.6133 61.2077L67.4303 61.1894C67.3098 61.1775 67.1317 61.16 66.9015 61.1377C66.4412 61.093 65.7726 61.0293 64.9401 60.9527C63.275 60.7997 60.9547 60.5955 58.3337 60.3915C53.0883 59.983 46.6508 59.5756 41.851 59.5756C37.0511 59.5756 30.6136 59.983 25.3683 60.3915C22.7473 60.5955 20.4269 60.7997 18.7619 60.9527C17.9294 61.0293 17.2608 61.093 16.8004 61.1377C16.5702 61.16 16.3921 61.1775 16.2716 61.1894L16.0886 61.2077ZM67.6537 60.8097L67.6133 61.2077C67.8331 61.2299 68.0295 61.0698 68.0517 60.85C68.0739 60.6302 67.913 60.4339 67.6932 60.4117L67.6537 60.8097ZM15.6502 60.85C15.628 60.6302 15.7884 60.434 16.0082 60.4118L16.0482 60.8097L16.0886 61.2077C15.8688 61.2299 15.6725 61.0698 15.6502 60.85Z" fill="#808080"/>
<path fill-rule="evenodd" clip-rule="evenodd" d="M16.0886 65.5942C16.0885 65.5942 16.0884 65.5942 16.0482 65.1962C16.008 64.7982 16.0081 64.7982 16.0082 64.7982L16.1927 64.7798C16.3138 64.7678 16.4925 64.7502 16.7232 64.7279C17.1848 64.6831 17.8547 64.6192 18.6886 64.5426C20.3564 64.3892 22.6806 64.1848 25.3062 63.9803C30.5539 63.5717 37.0178 63.162 41.851 63.162C46.6841 63.162 53.148 63.5717 58.3958 63.9803C61.0213 64.1848 63.3455 64.3892 65.0133 64.5426C65.8472 64.6192 66.5172 64.6831 66.9787 64.7279C67.2095 64.7502 67.3882 64.7678 67.5092 64.7798L67.6932 64.7982C67.6933 64.7982 67.6939 64.7982 67.6537 65.1962C67.6135 65.5942 67.6135 65.5942 67.6133 65.5942L67.4303 65.5759C67.3098 65.564 67.1317 65.5465 66.9015 65.5241C66.4412 65.4795 65.7726 65.4157 64.9401 65.3392C63.275 65.1861 60.9547 64.982 58.3337 64.7779C53.0883 64.3695 46.6508 63.962 41.851 63.962C37.0511 63.962 30.6136 64.3695 25.3683 64.7779C22.7473 64.982 20.4269 65.1861 18.7619 65.3392C17.9294 65.4157 17.2608 65.4795 16.8004 65.5241C16.5702 65.5465 16.3921 65.564 16.2716 65.5759L16.0886 65.5942ZM67.6537 65.1962L67.6133 65.5942C67.8331 65.6164 68.0295 65.4562 68.0517 65.2364C68.0739 65.0166 67.913 64.8204 67.6932 64.7982L67.6537 65.1962ZM15.6502 65.2364C15.628 65.0166 15.7884 64.8204 16.0082 64.7982L16.0482 65.1962L16.0886 65.5942C15.8688 65.6164 15.6725 65.4562 15.6502 65.2364Z" fill="#808080"/>
<path fill-rule="evenodd" clip-rule="evenodd" d="M16.0886 43.6618C16.0885 43.6618 16.0884 43.6618 16.0482 43.2638C16.008 42.8659 16.0081 42.8659 16.0082 42.8659L16.1927 42.8474C16.3138 42.8355 16.4925 42.8179 16.7232 42.7955C17.1848 42.7508 17.8547 42.6869 18.6886 42.6102C20.3564 42.4569 22.6806 42.2524 25.3062 42.048C30.5539 41.6393 37.0178 41.2297 41.851 41.2297C46.6841 41.2297 53.148 41.6393 58.3958 42.048C61.0213 42.2524 63.3455 42.4569 65.0133 42.6102C65.8472 42.6869 66.5172 42.7508 66.9787 42.7955C67.2095 42.8179 67.3882 42.8355 67.5092 42.8474L67.6932 42.8658C67.6933 42.8658 67.6939 42.8659 67.6537 43.2638C67.6135 43.6618 67.6135 43.6618 67.6133 43.6618L67.4303 43.6435C67.3098 43.6316 67.1317 43.6141 66.9015 43.5918C66.4412 43.5471 65.7726 43.4834 64.9401 43.4068C63.275 43.2538 60.9547 43.0496 58.3337 42.8456C53.0883 42.4371 46.6508 42.0297 41.851 42.0297C37.0511 42.0297 30.6136 42.4371 25.3683 42.8456C22.7473 43.0496 20.4269 43.2538 18.7619 43.4068C17.9294 43.4834 17.2608 43.5471 16.8004 43.5918C16.5702 43.6141 16.3921 43.6316 16.2716 43.6435L16.0886 43.6618ZM67.6537 43.2638L67.6133 43.6618C67.8331 43.684 68.0295 43.5239 68.0517 43.3041C68.0739 43.0843 67.913 42.888 67.6932 42.8658L67.6537 43.2638ZM15.6502 43.3041C15.628 43.0843 15.7884 42.8881 16.0082 42.8659L16.0482 43.2638L16.0886 43.6618C15.8688 43.684 15.6725 43.5239 15.6502 43.3041Z" fill="black"/>
<path fill-rule="evenodd" clip-rule="evenodd" d="M16.0886 69.9807C16.0885 69.9807 16.0884 69.9807 16.0482 69.5827C16.008 69.1847 16.0081 69.1847 16.0082 69.1847L16.1927 69.1663C16.3138 69.1543 16.4925 69.1367 16.7232 69.1143C17.1848 69.0696 17.8547 69.0057 18.6886 68.929C20.3564 68.7757 22.6806 68.5713 25.3062 68.3668C30.5539 67.9582 37.0178 67.5485 41.851 67.5485C46.6841 67.5485 53.148 67.9582 58.3958 68.3668C61.0213 68.5713 63.3455 68.7757 65.0133 68.929C65.8472 69.0057 66.5172 69.0696 66.9787 69.1143C67.2095 69.1367 67.3882 69.1543 67.5092 69.1663L67.6932 69.1846C67.6933 69.1847 67.6939 69.1847 67.6537 69.5827C67.6135 69.9807 67.6135 69.9807 67.6133 69.9807L67.4303 69.9624C67.3098 69.9505 67.1317 69.9329 66.9015 69.9106C66.4412 69.866 65.7726 69.8022 64.9401 69.7257C63.275 69.5726 60.9547 69.3685 58.3337 69.1644C53.0883 68.756 46.6508 68.3485 41.851 68.3485C37.0511 68.3485 30.6136 68.756 25.3683 69.1644C22.7473 69.3685 20.4269 69.5726 18.7619 69.7257C17.9294 69.8022 17.2608 69.866 16.8004 69.9106C16.5702 69.9329 16.3921 69.9505 16.2716 69.9624L16.0886 69.9807ZM67.6537 69.5827L67.6133 69.9807C67.8331 70.0029 68.0295 69.8427 68.0517 69.6229C68.0739 69.4031 67.913 69.2069 67.6932 69.1846L67.6537 69.5827ZM15.6502 69.6229C15.628 69.4031 15.7884 69.2069 16.0082 69.1847L16.0482 69.5827L16.0886 69.9807C15.8688 70.0029 15.6725 69.8427 15.6502 69.6229Z" fill="#808080"/>
<path fill-rule="evenodd" clip-rule="evenodd" d="M16.0886 48.0483C16.0885 48.0483 16.0884 48.0483 16.0482 47.6503C16.008 47.2524 16.0081 47.2523 16.0082 47.2523L16.1927 47.2339C16.3138 47.2219 16.4925 47.2043 16.7232 47.182C17.1848 47.1372 17.8547 47.0733 18.6886 46.9967C20.3564 46.8433 22.6806 46.6389 25.3062 46.4344C30.5539 46.0258 37.0178 45.6161 41.851 45.6161C46.6841 45.6161 53.148 46.0258 58.3958 46.4344C61.0213 46.6389 63.3455 46.8433 65.0133 46.9967C65.8472 47.0733 66.5172 47.1372 66.9787 47.182C67.2095 47.2043 67.3882 47.2219 67.5092 47.2339L67.6932 47.2523C67.6933 47.2523 67.6939 47.2524 67.6537 47.6503C67.6135 48.0483 67.6135 48.0483 67.6133 48.0483L67.4303 48.03C67.3098 48.0181 67.1317 48.0006 66.9015 47.9782C66.4412 47.9336 65.7726 47.8698 64.9401 47.7933C63.275 47.6402 60.9547 47.4361 58.3337 47.232C53.0883 46.8236 46.6508 46.4161 41.851 46.4161C37.0511 46.4161 30.6136 46.8236 25.3683 47.232C22.7473 47.4361 20.4269 47.6402 18.7619 47.7933C17.9294 47.8698 17.2608 47.9336 16.8004 47.9782C16.5702 48.0006 16.3921 48.0181 16.2716 48.03L16.0886 48.0483ZM67.6537 47.6503L67.6133 48.0483C67.8331 48.0705 68.0295 47.9103 68.0517 47.6905C68.0739 47.4708 67.913 47.2745 67.6932 47.2523L67.6537 47.6503ZM15.6502 47.6905C15.628 47.4708 15.7884 47.2745 16.0082 47.2523L16.0482 47.6503L16.0886 48.0483C15.8688 48.0705 15.6725 47.9103 15.6502 47.6905Z" fill="#808080"/>
<path fill-rule="evenodd" clip-rule="evenodd" d="M16.0886 74.3671C16.0885 74.3671 16.0884 74.3671 16.0482 73.9692C16.008 73.5712 16.0081 73.5712 16.0082 73.5712L16.1927 73.5528C16.3138 73.5408 16.4925 73.5232 16.7232 73.5008C17.1848 73.4561 17.8547 73.3922 18.6886 73.3155C20.3564 73.1622 22.6806 72.9577 25.3062 72.7533C30.5539 72.3447 37.0178 71.935 41.851 71.935C46.6841 71.935 53.148 72.3447 58.3958 72.7533C61.0213 72.9577 63.3455 73.1622 65.0133 73.3155C65.8472 73.3922 66.5172 73.4561 66.9787 73.5008C67.2095 73.5232 67.3882 73.5408 67.5092 73.5528L67.6932 73.5711C67.6933 73.5711 67.6939 73.5712 67.6537 73.9692C67.6135 74.3671 67.6135 74.3671 67.6133 74.3671L67.4303 74.3489C67.3098 74.3369 67.1317 74.3194 66.9015 74.2971C66.4412 74.2525 65.7726 74.1887 64.9401 74.1122C63.275 73.9591 60.9547 73.755 58.3337 73.5509C53.0883 73.1424 46.6508 72.735 41.851 72.735C37.0511 72.735 30.6136 73.1424 25.3683 73.5509C22.7473 73.755 20.4269 73.9591 18.7619 74.1122C17.9294 74.1887 17.2608 74.2525 16.8004 74.2971C16.5702 74.3194 16.3921 74.3369 16.2716 74.3489L16.0886 74.3671ZM67.6537 73.9692L67.6133 74.3671C67.8331 74.3893 68.0295 74.2292 68.0517 74.0094C68.0739 73.7896 67.913 73.5933 67.6932 73.5711L67.6537 73.9692ZM15.6502 74.0094C15.628 73.7896 15.7884 73.5934 16.0082 73.5712L16.0482 73.9692L16.0886 74.3671C15.8688 74.3893 15.6725 74.2292 15.6502 74.0094Z" fill="#808080"/>
<path fill-rule="evenodd" clip-rule="evenodd" d="M16.0886 90.6229C16.0885 90.6229 16.0884 90.6229 16.0482 90.2249C16.008 89.8269 16.0081 89.8269 16.0082 89.8269L16.1927 89.8085C16.3138 89.7965 16.4925 89.7789 16.7232 89.7566C17.1848 89.7118 17.8547 89.6479 18.6886 89.5712C20.3564 89.4179 22.6806 89.2135 25.3062 89.009C30.5539 88.6004 37.0178 88.1907 41.851 88.1907C46.6841 88.1907 53.148 88.6004 58.3958 89.009C61.0213 89.2135 63.3455 89.4179 65.0133 89.5712C65.8472 89.6479 66.5172 89.7118 66.9787 89.7566C67.2095 89.7789 67.3882 89.7965 67.5092 89.8085L67.6932 89.8269C67.6933 89.8269 67.6939 89.8269 67.6537 90.2249C67.6135 90.6229 67.6135 90.6229 67.6133 90.6229L67.4303 90.6046C67.3098 90.5927 67.1317 90.5751 66.9015 90.5528C66.4412 90.5082 65.7726 90.4444 64.9401 90.3679C63.275 90.2148 60.9547 90.0107 58.3337 89.8066C53.0883 89.3982 46.6508 88.9907 41.851 88.9907C37.0511 88.9907 30.6136 89.3982 25.3683 89.8066C22.7473 90.0107 20.4269 90.2148 18.7619 90.3679C17.9294 90.4444 17.2608 90.5082 16.8004 90.5528C16.5702 90.5751 16.3921 90.5927 16.2716 90.6046L16.0886 90.6229ZM67.6537 90.2249L67.6133 90.6229C67.8331 90.6451 68.0295 90.4849 68.0517 90.2651C68.0739 90.0453 67.913 89.8491 67.6932 89.8269L67.6537 90.2249ZM15.6502 90.2651C15.628 90.0453 15.7884 89.8491 16.0082 89.8269L16.0482 90.2249L16.0886 90.6229C15.8688 90.6451 15.6725 90.4849 15.6502 90.2651Z" fill="#808080"/>
<path fill-rule="evenodd" clip-rule="evenodd" d="M16.0886 52.4348C16.0885 52.4348 16.0884 52.4348 16.0482 52.0368C16.008 51.6388 16.0081 51.6388 16.0082 51.6388L16.1927 51.6204C16.3138 51.6084 16.4925 51.5908 16.7232 51.5684C17.1848 51.5237 17.8547 51.4598 18.6886 51.3831C20.3564 51.2298 22.6806 51.0254 25.3062 50.8209C30.5539 50.4123 37.0178 50.0026 41.851 50.0026C46.6841 50.0026 53.148 50.4123 58.3958 50.8209C61.0213 51.0254 63.3455 51.2298 65.0133 51.3831C65.8472 51.4598 66.5172 51.5237 66.9787 51.5684C67.2095 51.5908 67.3882 51.6084 67.5092 51.6204L67.6932 51.6387C67.6933 51.6388 67.6939 51.6388 67.6537 52.0368C67.6135 52.4348 67.6135 52.4348 67.6133 52.4348L67.4303 52.4165C67.3098 52.4046 67.1317 52.387 66.9015 52.3647C66.4412 52.3201 65.7726 52.2563 64.9401 52.1798C63.275 52.0267 60.9547 51.8226 58.3337 51.6185C53.0883 51.2101 46.6508 50.8026 41.851 50.8026C37.0511 50.8026 30.6136 51.2101 25.3683 51.6185C22.7473 51.8226 20.4269 52.0267 18.7619 52.1798C17.9294 52.2563 17.2608 52.3201 16.8004 52.3647C16.5702 52.387 16.3921 52.4046 16.2716 52.4165L16.0886 52.4348ZM67.6537 52.0368L67.6133 52.4348C67.8331 52.457 68.0295 52.2968 68.0517 52.077C68.0739 51.8572 67.913 51.661 67.6932 51.6387L67.6537 52.0368ZM15.6502 52.077C15.628 51.8572 15.7884 51.661 16.0082 51.6388L16.0482 52.0368L16.0886 52.4348C15.8688 52.457 15.6725 52.2968 15.6502 52.077Z" fill="#808080"/>
<path fill-rule="evenodd" clip-rule="evenodd" d="M16.0886 78.7536C16.0885 78.7536 16.0884 78.7536 16.0482 78.3556C16.008 77.9577 16.0081 77.9577 16.0082 77.9577L16.1927 77.9392C16.3138 77.9272 16.4925 77.9097 16.7232 77.8873C17.1848 77.8426 17.8547 77.7787 18.6886 77.702C20.3564 77.5487 22.6806 77.3442 25.3062 77.1398C30.5539 76.7311 37.0178 76.3215 41.851 76.3215C46.6841 76.3215 53.148 76.7311 58.3958 77.1398C61.0213 77.3442 63.3455 77.5487 65.0133 77.702C65.8472 77.7787 66.5172 77.8426 66.9787 77.8873C67.2095 77.9097 67.3882 77.9272 67.5092 77.9392L67.6932 77.9576C67.6933 77.9576 67.6939 77.9577 67.6537 78.3556C67.6135 78.7536 67.6135 78.7536 67.6133 78.7536L67.4303 78.7353C67.3098 78.7234 67.1317 78.7059 66.9015 78.6836C66.4412 78.6389 65.7726 78.5752 64.9401 78.4986C63.275 78.3456 60.9547 78.1414 58.3337 77.9374C53.0883 77.5289 46.6508 77.1215 41.851 77.1215C37.0511 77.1215 30.6136 77.5289 25.3683 77.9374C22.7473 78.1414 20.4269 78.3456 18.7619 78.4986C17.9294 78.5752 17.2608 78.6389 16.8004 78.6836C16.5702 78.7059 16.3921 78.7234 16.2716 78.7353L16.0886 78.7536ZM67.6537 78.3556L67.6133 78.7536C67.8331 78.7758 68.0295 78.6157 68.0517 78.3959C68.0739 78.1761 67.913 77.9798 67.6932 77.9576L67.6537 78.3556ZM15.6502 78.3959C15.628 78.1761 15.7884 77.9799 16.0082 77.9577L16.0482 78.3556L16.0886 78.7536C15.8688 78.7758 15.6725 78.6157 15.6502 78.3959Z" fill="#808080"/>
<path fill-rule="evenodd" clip-rule="evenodd" d="M16.0886 83.054C16.0885 83.054 16.0884 83.054 16.0482 82.6561C16.008 82.2581 16.0081 82.2581 16.0082 82.2581L16.1927 82.2397C16.3138 82.2277 16.4925 82.2101 16.7232 82.1877C17.1848 82.143 17.8547 82.0791 18.6886 82.0024C20.3564 81.8491 22.6806 81.6446 25.3062 81.4402C30.5539 81.0315 37.0178 80.6219 41.851 80.6219C46.6841 80.6219 53.148 81.0315 58.3958 81.4402C61.0213 81.6446 63.3455 81.8491 65.0133 82.0024C65.8472 82.0791 66.5172 82.143 66.9787 82.1877C67.2095 82.2101 67.3882 82.2277 67.5092 82.2397L67.6932 82.258C67.6933 82.258 67.6939 82.2581 67.6537 82.6561C67.6135 83.054 67.6135 83.054 67.6133 83.054L67.4303 83.0358C67.3098 83.0238 67.1317 83.0063 66.9015 82.984C66.4412 82.9393 65.7726 82.8756 64.9401 82.799C63.275 82.646 60.9547 82.4419 58.3337 82.2378C53.0883 81.8293 46.6508 81.4219 41.851 81.4219C37.0511 81.4219 30.6136 81.8293 25.3683 82.2378C22.7473 82.4419 20.4269 82.646 18.7619 82.799C17.9294 82.8756 17.2608 82.9393 16.8004 82.984C16.5702 83.0063 16.3921 83.0238 16.2716 83.0358L16.0886 83.054ZM67.6537 82.6561L67.6133 83.054C67.8331 83.0762 68.0295 82.9161 68.0517 82.6963C68.0739 82.4765 67.913 82.2802 67.6932 82.258L67.6537 82.6561ZM15.6502 82.6963C15.628 82.4765 15.7884 82.2803 16.0082 82.2581L16.0482 82.6561L16.0886 83.054C15.8688 83.0762 15.6725 82.9161 15.6502 82.6963Z" fill="#808080"/>
<path fill-rule="evenodd" clip-rule="evenodd" d="M16.0886 93.3751C16.0885 93.3751 16.0884 93.3751 16.0482 92.9772C16.008 92.5792 16.0081 92.5792 16.0082 92.5792L16.1927 92.5608C16.3138 92.5488 16.4925 92.5312 16.7232 92.5088C17.1848 92.4641 17.8547 92.4002 18.6886 92.3235C20.3564 92.1702 22.6806 91.9657 25.3062 91.7613C30.5539 91.3527 37.0178 90.943 41.851 90.943C42.0719 90.943 42.251 91.1221 42.251 91.343C42.251 91.5639 42.0719 91.743 41.851 91.743C37.0511 91.743 30.6136 92.1504 25.3683 92.5589C22.7473 92.763 20.4269 92.9671 18.7619 93.1201C17.9294 93.1967 17.2608 93.2605 16.8004 93.3051C16.5702 93.3274 16.3921 93.3449 16.2716 93.3569L16.0886 93.3751ZM15.6502 93.0174C15.628 92.7976 15.7884 92.6014 16.0082 92.5792L16.0482 92.9772L16.0886 93.3751C15.8688 93.3973 15.6725 93.2372 15.6502 93.0174Z" fill="#808080"/>
<path fill-rule="evenodd" clip-rule="evenodd" d="M16.0886 56.8212C16.0885 56.8212 16.0884 56.8212 16.0482 56.4233C16.008 56.0253 16.0081 56.0253 16.0082 56.0253L16.1927 56.0069C16.3138 55.9949 16.4925 55.9773 16.7232 55.9549C17.1848 55.9102 17.8547 55.8463 18.6886 55.7696C20.3564 55.6163 22.6806 55.4118 25.3062 55.2074C30.5539 54.7988 37.0178 54.3891 41.851 54.3891C46.6841 54.3891 53.148 54.7988 58.3958 55.2074C61.0213 55.4118 63.3455 55.6163 65.0133 55.7696C65.8472 55.8463 66.5172 55.9102 66.9787 55.9549C67.2095 55.9773 67.3882 55.9949 67.5092 56.0069L67.6932 56.0252C67.6933 56.0252 67.6939 56.0253 67.6537 56.4233C67.6135 56.8212 67.6135 56.8212 67.6133 56.8212L67.4303 56.803C67.3098 56.791 67.1317 56.7735 66.9015 56.7512C66.4412 56.7066 65.7726 56.6428 64.9401 56.5663C63.275 56.4132 60.9547 56.2091 58.3337 56.005C53.0883 55.5965 46.6508 55.1891 41.851 55.1891C37.0511 55.1891 30.6136 55.5965 25.3683 56.005C22.7473 56.2091 20.4269 56.4132 18.7619 56.5663C17.9294 56.6428 17.2608 56.7066 16.8004 56.7512C16.5702 56.7735 16.3921 56.791 16.2716 56.803L16.0886 56.8212ZM67.6537 56.4233L67.6133 56.8212C67.8331 56.8434 68.0295 56.6833 68.0517 56.4635C68.0739 56.2437 67.913 56.0474 67.6932 56.0252L67.6537 56.4233ZM15.6502 56.4635C15.628 56.2437 15.7884 56.0475 16.0082 56.0253L16.0482 56.4233L16.0886 56.8212C15.8688 56.8434 15.6725 56.6833 15.6502 56.4635Z" fill="#808080"/>
<path d="M75.2227 5.33382C75.2227 5.33382 90.0162 1.20538 107.906 1.20538C125.796 1.20538 141.278 5.33382 141.278 5.33382V98.2237C141.278 98.2237 128.892 94.7834 107.906 94.7834C86.9199 94.7834 75.2227 98.2237 75.2227 98.2237V5.33382Z" fill="white"/>
<path fill-rule="evenodd" clip-rule="evenodd" d="M141.278 98.2237C141.278 98.2237 141.007 98.1485 140.478 98.0203C137.427 97.2816 125.79 94.7834 107.906 94.7834C90.1052 94.7834 78.9875 97.2586 76.0227 98.01C75.4921 98.1445 75.2227 98.2237 75.2227 98.2237V5.33382C75.2227 5.33382 90.0162 1.20538 107.906 1.20538C125.796 1.20538 141.278 5.33382 141.278 5.33382V98.2237ZM140.478 97.1976V5.95582C140.448 5.94852 140.418 5.94098 140.386 5.93321C139.933 5.82161 139.264 5.66167 138.405 5.46948C136.685 5.08506 134.205 4.57183 131.167 4.05842C125.089 3.03114 116.793 2.00538 107.906 2.00538C99.0198 2.00538 90.8966 3.03102 84.9928 4.05777C82.042 4.57095 79.6485 5.08391 77.9947 5.46801C77.1678 5.66005 76.5261 5.81984 76.0923 5.93127C76.0685 5.9374 76.0452 5.94338 76.0227 5.94921V97.1852C76.3423 97.1057 76.7357 97.0114 77.2016 96.9059C78.6433 96.5795 80.7793 96.146 83.572 95.713C89.1573 94.847 97.3692 93.9834 107.906 93.9834C118.443 93.9834 126.826 94.847 132.581 95.7124C135.458 96.1452 137.679 96.5783 139.184 96.9043C139.7 97.0161 140.132 97.1153 140.478 97.1976Z" fill="black"/>
<path fill-rule="evenodd" clip-rule="evenodd" d="M82.144 17.343C82.1439 17.343 82.1439 17.343 82.1036 16.9451C82.0634 16.5471 82.0635 16.5471 82.0636 16.5471L82.2481 16.5287C82.3692 16.5167 82.5479 16.4991 82.7787 16.4767C83.2402 16.432 83.9101 16.3681 84.7441 16.2914C86.4119 16.1381 88.736 15.9336 91.3616 15.7292C96.6093 15.3205 103.073 14.9109 107.906 14.9109C112.74 14.9109 119.203 15.3205 124.451 15.7292C127.077 15.9336 129.401 16.1381 131.069 16.2914C131.903 16.3681 132.573 16.432 133.034 16.4767C133.265 16.4991 133.444 16.5167 133.565 16.5287L133.749 16.547C133.749 16.547 133.749 16.5471 133.709 16.9451C133.669 17.343 133.669 17.343 133.669 17.343L133.486 17.3248C133.365 17.3128 133.187 17.2953 132.957 17.273C132.497 17.2284 131.828 17.1646 130.995 17.088C129.33 16.935 127.01 16.7309 124.389 16.5268C119.144 16.1183 112.706 15.7109 107.906 15.7109C103.107 15.7109 96.669 16.1183 91.4237 16.5268C88.8027 16.7309 86.4823 16.935 84.8173 17.088C83.9848 17.1646 83.3162 17.2284 82.8558 17.273C82.6257 17.2953 82.4475 17.3128 82.327 17.3248L82.144 17.343ZM133.709 16.9451L133.669 17.343C133.889 17.3652 134.085 17.2051 134.107 16.9853C134.129 16.7655 133.968 16.5692 133.749 16.547L133.709 16.9451ZM81.7057 16.9853C81.6835 16.7655 81.8438 16.5693 82.0636 16.5471L82.1036 16.9451L82.144 17.343C81.9242 17.3652 81.7279 17.2051 81.7057 16.9853Z" fill="#808080"/>
<path fill-rule="evenodd" clip-rule="evenodd" d="M82.144 61.2077C82.1439 61.2077 82.1439 61.2077 82.1036 60.8097C82.0634 60.4118 82.0635 60.4118 82.0636 60.4118L82.2481 60.3933C82.3692 60.3813 82.5479 60.3638 82.7787 60.3414C83.2402 60.2967 83.9101 60.2328 84.7441 60.1561C86.4119 60.0028 88.736 59.7983 91.3616 59.5939C96.6093 59.1852 103.073 58.7756 107.906 58.7756C112.74 58.7756 119.203 59.1852 124.451 59.5939C127.077 59.7983 129.401 60.0028 131.069 60.1561C131.903 60.2328 132.573 60.2967 133.034 60.3414C133.265 60.3638 133.444 60.3813 133.565 60.3933L133.749 60.4117C133.749 60.4117 133.749 60.4118 133.709 60.8097C133.669 61.2077 133.669 61.2077 133.669 61.2077L133.486 61.1894C133.365 61.1775 133.187 61.16 132.957 61.1377C132.497 61.093 131.828 61.0293 130.995 60.9527C129.33 60.7997 127.01 60.5955 124.389 60.3915C119.144 59.983 112.706 59.5756 107.906 59.5756C103.107 59.5756 96.669 59.983 91.4237 60.3915C88.8027 60.5955 86.4823 60.7997 84.8173 60.9527C83.9848 61.0293 83.3162 61.093 82.8558 61.1377C82.6257 61.16 82.4475 61.1775 82.327 61.1894L82.144 61.2077ZM133.709 60.8097L133.669 61.2077C133.889 61.2299 134.085 61.0698 134.107 60.85C134.129 60.6302 133.968 60.4339 133.749 60.4117L133.709 60.8097ZM81.7057 60.85C81.6835 60.6302 81.8438 60.434 82.0636 60.4118L82.1036 60.8097L82.144 61.2077C81.9242 61.2299 81.7279 61.0698 81.7057 60.85Z" fill="#808080"/>
<path fill-rule="evenodd" clip-rule="evenodd" d="M82.144 39.2754C82.1439 39.2754 82.1439 39.2754 82.1036 38.8774C82.0634 38.4795 82.0635 38.4795 82.0636 38.4794L82.2481 38.461C82.3692 38.449 82.5479 38.4315 82.7787 38.4091C83.2402 38.3643 83.9101 38.3004 84.7441 38.2238C86.4119 38.0704 88.736 37.866 91.3616 37.6616C96.6093 37.2529 103.073 36.8433 107.906 36.8433C112.74 36.8433 119.203 37.2529 124.451 37.6616C127.077 37.866 129.401 38.0704 131.069 38.2238C131.903 38.3004 132.573 38.3643 133.034 38.4091C133.265 38.4315 133.444 38.449 133.565 38.461L133.749 38.4794C133.749 38.4794 133.749 38.4795 133.709 38.8774C133.669 39.2754 133.669 39.2754 133.669 39.2754L133.486 39.2571C133.365 39.2452 133.187 39.2277 132.957 39.2054C132.497 39.1607 131.828 39.097 130.995 39.0204C129.33 38.8673 127.01 38.6632 124.389 38.4591C119.144 38.0507 112.706 37.6433 107.906 37.6433C103.107 37.6433 96.669 38.0507 91.4237 38.4591C88.8027 38.6632 86.4823 38.8673 84.8173 39.0204C83.9848 39.097 83.3162 39.1607 82.8558 39.2054C82.6257 39.2277 82.4475 39.2452 82.327 39.2571L82.144 39.2754ZM133.709 38.8774L133.669 39.2754C133.889 39.2976 134.085 39.1375 134.107 38.9177C134.129 38.6979 133.968 38.5016 133.749 38.4794L133.709 38.8774ZM81.7057 38.9177C81.6835 38.6979 81.8438 38.5017 82.0636 38.4794L82.1036 38.8774L82.144 39.2754C81.9242 39.2976 81.7279 39.1375 81.7057 38.9177Z" fill="#808080"/>
<path fill-rule="evenodd" clip-rule="evenodd" d="M82.144 21.7295C82.1439 21.7295 82.1439 21.7295 82.1036 21.3315C82.0634 20.9336 82.0635 20.9336 82.0636 20.9335L82.2481 20.9151C82.3692 20.9031 82.5479 20.8856 82.7787 20.8632C83.2402 20.8184 83.9101 20.7545 84.7441 20.6779C86.4119 20.5245 88.736 20.3201 91.3616 20.1157C96.6093 19.707 103.073 19.2974 107.906 19.2974C112.74 19.2974 119.203 19.707 124.451 20.1157C127.077 20.3201 129.401 20.5245 131.069 20.6779C131.903 20.7545 132.573 20.8184 133.034 20.8632C133.265 20.8856 133.444 20.9031 133.565 20.9151L133.749 20.9335C133.749 20.9335 133.749 20.9336 133.709 21.3315C133.669 21.7295 133.669 21.7295 133.669 21.7295L133.486 21.7112C133.365 21.6993 133.187 21.6818 132.957 21.6595C132.497 21.6148 131.828 21.5511 130.995 21.4745C129.33 21.3214 127.01 21.1173 124.389 20.9132C119.144 20.5048 112.706 20.0974 107.906 20.0974C103.107 20.0974 96.669 20.5048 91.4237 20.9132C88.8027 21.1173 86.4823 21.3214 84.8173 21.4745C83.9848 21.5511 83.3162 21.6148 82.8558 21.6595C82.6257 21.6818 82.4475 21.6993 82.327 21.7112L82.144 21.7295ZM133.709 21.3315L133.669 21.7295C133.889 21.7517 134.085 21.5916 134.107 21.3718C134.129 21.152 133.968 20.9557 133.749 20.9335L133.709 21.3315ZM81.7057 21.3718C81.6835 21.152 81.8438 20.9558 82.0636 20.9335L82.1036 21.3315L82.144 21.7295C81.9242 21.7517 81.7279 21.5916 81.7057 21.3718Z" fill="#808080"/>
<path fill-rule="evenodd" clip-rule="evenodd" d="M82.144 65.5942C82.1439 65.5942 82.1439 65.5942 82.1036 65.1962C82.0634 64.7982 82.0635 64.7982 82.0636 64.7982L82.2481 64.7798C82.3692 64.7678 82.5479 64.7502 82.7787 64.7279C83.2402 64.6831 83.9101 64.6192 84.7441 64.5426C86.4119 64.3892 88.736 64.1848 91.3616 63.9803C96.6093 63.5717 103.073 63.162 107.906 63.162C112.74 63.162 119.203 63.5717 124.451 63.9803C127.077 64.1848 129.401 64.3892 131.069 64.5426C131.903 64.6192 132.573 64.6831 133.034 64.7279C133.265 64.7502 133.444 64.7678 133.565 64.7798L133.749 64.7982C133.749 64.7982 133.749 64.7982 133.709 65.1962C133.669 65.5942 133.669 65.5942 133.669 65.5942L133.486 65.5759C133.365 65.564 133.187 65.5465 132.957 65.5241C132.497 65.4795 131.828 65.4157 130.995 65.3392C129.33 65.1861 127.01 64.982 124.389 64.7779C119.144 64.3695 112.706 63.962 107.906 63.962C103.107 63.962 96.669 64.3695 91.4237 64.7779C88.8027 64.982 86.4823 65.1861 84.8173 65.3392C83.9848 65.4157 83.3162 65.4795 82.8558 65.5241C82.6257 65.5465 82.4475 65.564 82.327 65.5759L82.144 65.5942ZM133.709 65.1962L133.669 65.5942C133.889 65.6164 134.085 65.4562 134.107 65.2364C134.129 65.0166 133.968 64.8204 133.749 64.7982L133.709 65.1962ZM81.7057 65.2364C81.6835 65.0166 81.8438 64.8204 82.0636 64.7982L82.1036 65.1962L82.144 65.5942C81.9242 65.6164 81.7279 65.4562 81.7057 65.2364Z" fill="#808080"/>
<path fill-rule="evenodd" clip-rule="evenodd" d="M82.144 43.6618C82.1439 43.6618 82.1439 43.6618 82.1036 43.2638C82.0634 42.8659 82.0635 42.8659 82.0636 42.8659L82.2481 42.8474C82.3692 42.8355 82.5479 42.8179 82.7787 42.7955C83.2402 42.7508 83.9101 42.6869 84.7441 42.6102C86.4119 42.4569 88.736 42.2524 91.3616 42.048C96.6093 41.6393 103.073 41.2297 107.906 41.2297C112.74 41.2297 119.203 41.6393 124.451 42.048C127.077 42.2524 129.401 42.4569 131.069 42.6102C131.903 42.6869 132.573 42.7508 133.034 42.7955C133.265 42.8179 133.444 42.8355 133.565 42.8474L133.749 42.8658C133.749 42.8658 133.749 42.8659 133.709 43.2638C133.669 43.6618 133.669 43.6618 133.669 43.6618L133.486 43.6435C133.365 43.6316 133.187 43.6141 132.957 43.5918C132.497 43.5471 131.828 43.4834 130.995 43.4068C129.33 43.2538 127.01 43.0496 124.389 42.8456C119.144 42.4371 112.706 42.0297 107.906 42.0297C103.107 42.0297 96.669 42.4371 91.4237 42.8456C88.8027 43.0496 86.4823 43.2538 84.8173 43.4068C83.9848 43.4834 83.3162 43.5471 82.8558 43.5918C82.6257 43.6141 82.4475 43.6316 82.327 43.6435L82.144 43.6618ZM133.709 43.2638L133.669 43.6618C133.889 43.684 134.085 43.5239 134.107 43.3041C134.129 43.0843 133.968 42.888 133.749 42.8658L133.709 43.2638ZM81.7057 43.3041C81.6835 43.0843 81.8438 42.8881 82.0636 42.8659L82.1036 43.2638L82.144 43.6618C81.9242 43.684 81.7279 43.5239 81.7057 43.3041Z" fill="#808080"/>
<path fill-rule="evenodd" clip-rule="evenodd" d="M82.144 26.116C82.1439 26.116 82.1439 26.116 82.1036 25.718C82.0634 25.32 82.0635 25.32 82.0636 25.32L82.2481 25.3016C82.3692 25.2896 82.5479 25.272 82.7787 25.2497C83.2402 25.2049 83.9101 25.141 84.7441 25.0644C86.4119 24.911 88.736 24.7066 91.3616 24.5021C96.6093 24.0935 103.073 23.6838 107.906 23.6838C112.74 23.6838 119.203 24.0935 124.451 24.5021C127.077 24.7066 129.401 24.911 131.069 25.0644C131.903 25.141 132.573 25.2049 133.034 25.2497C133.265 25.272 133.444 25.2896 133.565 25.3016L133.749 25.32C133.749 25.32 133.749 25.32 133.709 25.718C133.669 26.116 133.669 26.116 133.669 26.116L133.486 26.0977C133.365 26.0858 133.187 26.0682 132.957 26.0459C132.497 26.0013 131.828 25.9375 130.995 25.861C129.33 25.7079 127.01 25.5038 124.389 25.2997C119.144 24.8913 112.706 24.4838 107.906 24.4838C103.107 24.4838 96.669 24.8913 91.4237 25.2997C88.8027 25.5038 86.4823 25.7079 84.8173 25.861C83.9848 25.9375 83.3162 26.0013 82.8558 26.0459C82.6257 26.0682 82.4475 26.0858 82.327 26.0977L82.144 26.116ZM133.709 25.718L133.669 26.116C133.889 26.1382 134.085 25.978 134.107 25.7582C134.129 25.5384 133.968 25.3422 133.749 25.32L133.709 25.718ZM81.7057 25.7582C81.6835 25.5384 81.8438 25.3422 82.0636 25.32L82.1036 25.718L82.144 26.116C81.9242 26.1382 81.7279 25.978 81.7057 25.7582Z" fill="#808080"/>
<path fill-rule="evenodd" clip-rule="evenodd" d="M82.144 69.9807C82.1439 69.9807 82.1439 69.9807 82.1036 69.5827C82.0634 69.1847 82.0635 69.1847 82.0636 69.1847L82.2481 69.1663C82.3692 69.1543 82.5479 69.1367 82.7787 69.1143C83.2402 69.0696 83.9101 69.0057 84.7441 68.929C86.4119 68.7757 88.736 68.5713 91.3616 68.3668C96.6093 67.9582 103.073 67.5485 107.906 67.5485C112.74 67.5485 119.203 67.9582 124.451 68.3668C127.077 68.5713 129.401 68.7757 131.069 68.929C131.903 69.0057 132.573 69.0696 133.034 69.1143C133.265 69.1367 133.444 69.1543 133.565 69.1663L133.749 69.1846C133.749 69.1847 133.749 69.1847 133.709 69.5827C133.669 69.9807 133.669 69.9807 133.669 69.9807L133.486 69.9624C133.365 69.9505 133.187 69.9329 132.957 69.9106C132.497 69.866 131.828 69.8022 130.995 69.7257C129.33 69.5726 127.01 69.3685 124.389 69.1644C119.144 68.756 112.706 68.3485 107.906 68.3485C103.107 68.3485 96.669 68.756 91.4237 69.1644C88.8027 69.3685 86.4823 69.5726 84.8173 69.7257C83.9848 69.8022 83.3162 69.866 82.8558 69.9106C82.6257 69.9329 82.4475 69.9505 82.327 69.9624L82.144 69.9807ZM133.709 69.5827L133.669 69.9807C133.889 70.0029 134.085 69.8427 134.107 69.6229C134.129 69.4031 133.968 69.2069 133.749 69.1846L133.709 69.5827ZM81.7057 69.6229C81.6835 69.4031 81.8438 69.2069 82.0636 69.1847L82.1036 69.5827L82.144 69.9807C81.9242 70.0029 81.7279 69.8427 81.7057 69.6229Z" fill="#808080"/>
<path fill-rule="evenodd" clip-rule="evenodd" d="M82.144 48.0483C82.1439 48.0483 82.1439 48.0483 82.1036 47.6503C82.0634 47.2524 82.0635 47.2523 82.0636 47.2523L82.2481 47.2339C82.3692 47.2219 82.5479 47.2043 82.7787 47.182C83.2402 47.1372 83.9101 47.0733 84.7441 46.9967C86.4119 46.8433 88.736 46.6389 91.3616 46.4344C96.6093 46.0258 103.073 45.6161 107.906 45.6161C112.74 45.6161 119.203 46.0258 124.451 46.4344C127.077 46.6389 129.401 46.8433 131.069 46.9967C131.903 47.0733 132.573 47.1372 133.034 47.182C133.265 47.2043 133.444 47.2219 133.565 47.2339L133.749 47.2523C133.749 47.2523 133.749 47.2524 133.709 47.6503C133.669 48.0483 133.669 48.0483 133.669 48.0483L133.486 48.03C133.365 48.0181 133.187 48.0006 132.957 47.9782C132.497 47.9336 131.828 47.8698 130.995 47.7933C129.33 47.6402 127.01 47.4361 124.389 47.232C119.144 46.8236 112.706 46.4161 107.906 46.4161C103.107 46.4161 96.669 46.8236 91.4237 47.232C88.8027 47.4361 86.4823 47.6402 84.8173 47.7933C83.9848 47.8698 83.3162 47.9336 82.8558 47.9782C82.6257 48.0006 82.4475 48.0181 82.327 48.03L82.144 48.0483ZM133.709 47.6503L133.669 48.0483C133.889 48.0705 134.085 47.9103 134.107 47.6905C134.129 47.4708 133.968 47.2745 133.749 47.2523L133.709 47.6503ZM81.7057 47.6905C81.6835 47.4708 81.8438 47.2745 82.0636 47.2523L82.1036 47.6503L82.144 48.0483C81.9242 48.0705 81.7279 47.9103 81.7057 47.6905Z" fill="#808080"/>
<path fill-rule="evenodd" clip-rule="evenodd" d="M82.144 30.5024C82.1439 30.5025 82.1439 30.5025 82.1036 30.1045C82.0634 29.7065 82.0635 29.7065 82.0636 29.7065L82.2481 29.6881C82.3692 29.6761 82.5479 29.6585 82.7787 29.6361C83.2402 29.5914 83.9101 29.5275 84.7441 29.4508C86.4119 29.2975 88.736 29.0931 91.3616 28.8886C96.6093 28.48 103.073 28.0703 107.906 28.0703C112.74 28.0703 119.203 28.48 124.451 28.8886C127.077 29.0931 129.401 29.2975 131.069 29.4508C131.903 29.5275 132.573 29.5914 133.034 29.6361C133.265 29.6585 133.444 29.6761 133.565 29.6881L133.749 29.7064C133.749 29.7064 133.749 29.7065 133.709 30.1045C133.669 30.5025 133.669 30.5025 133.669 30.5024L133.486 30.4842C133.365 30.4722 133.187 30.4547 132.957 30.4324C132.497 30.3878 131.828 30.324 130.995 30.2475C129.33 30.0944 127.01 29.8903 124.389 29.6862C119.144 29.2777 112.706 28.8703 107.906 28.8703C103.107 28.8703 96.669 29.2777 91.4237 29.6862C88.8027 29.8903 86.4823 30.0944 84.8173 30.2475C83.9848 30.324 83.3162 30.3878 82.8558 30.4324C82.6257 30.4547 82.4475 30.4722 82.327 30.4842L82.144 30.5024ZM133.709 30.1045L133.669 30.5024C133.889 30.5247 134.085 30.3645 134.107 30.1447C134.129 29.9249 133.968 29.7286 133.749 29.7064L133.709 30.1045ZM81.7057 30.1447C81.6835 29.9249 81.8438 29.7287 82.0636 29.7065L82.1036 30.1045L82.144 30.5024C81.9242 30.5247 81.7279 30.3645 81.7057 30.1447Z" fill="#808080"/>
<path fill-rule="evenodd" clip-rule="evenodd" d="M82.144 74.3671C82.1439 74.3671 82.1439 74.3671 82.1036 73.9692C82.0634 73.5712 82.0635 73.5712 82.0636 73.5712L82.2481 73.5528C82.3692 73.5408 82.5479 73.5232 82.7787 73.5008C83.2402 73.4561 83.9101 73.3922 84.7441 73.3155C86.4119 73.1622 88.736 72.9577 91.3616 72.7533C96.6093 72.3447 103.073 71.935 107.906 71.935C112.74 71.935 119.203 72.3447 124.451 72.7533C127.077 72.9577 129.401 73.1622 131.069 73.3155C131.903 73.3922 132.573 73.4561 133.034 73.5008C133.265 73.5232 133.444 73.5408 133.565 73.5528L133.749 73.5711C133.749 73.5711 133.749 73.5712 133.709 73.9692C133.669 74.3671 133.669 74.3671 133.669 74.3671L133.486 74.3489C133.365 74.3369 133.187 74.3194 132.957 74.2971C132.497 74.2525 131.828 74.1887 130.995 74.1122C129.33 73.9591 127.01 73.755 124.389 73.5509C119.144 73.1424 112.706 72.735 107.906 72.735C103.107 72.735 96.669 73.1424 91.4237 73.5509C88.8027 73.755 86.4823 73.9591 84.8173 74.1122C83.9848 74.1887 83.3162 74.2525 82.8558 74.2971C82.6257 74.3194 82.4475 74.3369 82.327 74.3489L82.144 74.3671ZM133.709 73.9692L133.669 74.3671C133.889 74.3893 134.085 74.2292 134.107 74.0094C134.129 73.7896 133.968 73.5933 133.749 73.5711L133.709 73.9692ZM81.7057 74.0094C81.6835 73.7896 81.8438 73.5934 82.0636 73.5712L82.1036 73.9692L82.144 74.3671C81.9242 74.3893 81.7279 74.2292 81.7057 74.0094Z" fill="#808080"/>
<path fill-rule="evenodd" clip-rule="evenodd" d="M82.144 90.6229C82.1439 90.6229 82.1439 90.6229 82.1036 90.2249C82.0634 89.8269 82.0635 89.8269 82.0636 89.8269L82.2481 89.8085C82.3692 89.7965 82.5479 89.7789 82.7787 89.7566C83.2402 89.7118 83.9101 89.6479 84.7441 89.5712C86.4119 89.4179 88.736 89.2135 91.3616 89.009C96.6093 88.6004 103.073 88.1907 107.906 88.1907C112.74 88.1907 119.203 88.6004 124.451 89.009C127.077 89.2135 129.401 89.4179 131.069 89.5712C131.903 89.6479 132.573 89.7118 133.034 89.7566C133.265 89.7789 133.444 89.7965 133.565 89.8085L133.749 89.8269C133.749 89.8269 133.749 89.8269 133.709 90.2249C133.669 90.6229 133.669 90.6229 133.669 90.6229L133.486 90.6046C133.365 90.5927 133.187 90.5751 132.957 90.5528C132.497 90.5082 131.828 90.4444 130.995 90.3679C129.33 90.2148 127.01 90.0107 124.389 89.8066C119.144 89.3982 112.706 88.9907 107.906 88.9907C103.107 88.9907 96.669 89.3982 91.4237 89.8066C88.8027 90.0107 86.4823 90.2148 84.8173 90.3679C83.9848 90.4444 83.3162 90.5082 82.8558 90.5528C82.6257 90.5751 82.4475 90.5927 82.327 90.6046L82.144 90.6229ZM133.709 90.2249L133.669 90.6229C133.889 90.6451 134.085 90.4849 134.107 90.2651C134.129 90.0453 133.968 89.8491 133.749 89.8269L133.709 90.2249ZM81.7057 90.2651C81.6835 90.0453 81.8438 89.8491 82.0636 89.8269L82.1036 90.2249L82.144 90.6229C81.9242 90.6451 81.7279 90.4849 81.7057 90.2651Z" fill="#808080"/>
<path fill-rule="evenodd" clip-rule="evenodd" d="M82.144 52.4348C82.1439 52.4348 82.1439 52.4348 82.1036 52.0368C82.0634 51.6388 82.0635 51.6388 82.0636 51.6388L82.2481 51.6204C82.3692 51.6084 82.5479 51.5908 82.7787 51.5684C83.2402 51.5237 83.9101 51.4598 84.7441 51.3831C86.4119 51.2298 88.736 51.0254 91.3616 50.8209C96.6093 50.4123 103.073 50.0026 107.906 50.0026C112.74 50.0026 119.203 50.4123 124.451 50.8209C127.077 51.0254 129.401 51.2298 131.069 51.3831C131.903 51.4598 132.573 51.5237 133.034 51.5684C133.265 51.5908 133.444 51.6084 133.565 51.6204L133.749 51.6387C133.749 51.6388 133.749 51.6388 133.709 52.0368C133.669 52.4348 133.669 52.4348 133.669 52.4348L133.486 52.4165C133.365 52.4046 133.187 52.387 132.957 52.3647C132.497 52.3201 131.828 52.2563 130.995 52.1798C129.33 52.0267 127.01 51.8226 124.389 51.6185C119.144 51.2101 112.706 50.8026 107.906 50.8026C103.107 50.8026 96.669 51.2101 91.4237 51.6185C88.8027 51.8226 86.4823 52.0267 84.8173 52.1798C83.9848 52.2563 83.3162 52.3201 82.8558 52.3647C82.6257 52.387 82.4475 52.4046 82.327 52.4165L82.144 52.4348ZM133.709 52.0368L133.669 52.4348C133.889 52.457 134.085 52.2968 134.107 52.077C134.129 51.8572 133.968 51.661 133.749 51.6387L133.709 52.0368ZM81.7057 52.077C81.6835 51.8572 81.8438 51.661 82.0636 51.6388L82.1036 52.0368L82.144 52.4348C81.9242 52.457 81.7279 52.2968 81.7057 52.077Z" fill="#808080"/>
<path fill-rule="evenodd" clip-rule="evenodd" d="M82.144 34.8889C82.1439 34.8889 82.1439 34.8889 82.1036 34.491C82.0634 34.093 82.0635 34.093 82.0636 34.093L82.2481 34.0746C82.3692 34.0626 82.5479 34.045 82.7787 34.0226C83.2402 33.9779 83.9101 33.914 84.7441 33.8373C86.4119 33.684 88.736 33.4795 91.3616 33.2751C96.6093 32.8664 103.073 32.4568 107.906 32.4568C112.74 32.4568 119.203 32.8664 124.451 33.2751C127.077 33.4795 129.401 33.684 131.069 33.8373C131.903 33.914 132.573 33.9779 133.034 34.0226C133.265 34.045 133.444 34.0626 133.565 34.0746L133.749 34.0929C133.749 34.0929 133.749 34.093 133.709 34.491C133.669 34.8889 133.669 34.8889 133.669 34.8889L133.486 34.8707C133.365 34.8587 133.187 34.8412 132.957 34.8189C132.497 34.7742 131.828 34.7105 130.995 34.6339C129.33 34.4809 127.01 34.2768 124.389 34.0727C119.144 33.6642 112.706 33.2568 107.906 33.2568C103.107 33.2568 96.669 33.6642 91.4237 34.0727C88.8027 34.2768 86.4823 34.4809 84.8173 34.6339C83.9848 34.7105 83.3162 34.7742 82.8558 34.8189C82.6257 34.8412 82.4475 34.8587 82.327 34.8707L82.144 34.8889ZM133.709 34.491L133.669 34.8889C133.889 34.9111 134.085 34.751 134.107 34.5312C134.129 34.3114 133.968 34.1151 133.749 34.0929L133.709 34.491ZM81.7057 34.5312C81.6835 34.3114 81.8438 34.1152 82.0636 34.093L82.1036 34.491L82.144 34.8889C81.9242 34.9111 81.7279 34.751 81.7057 34.5312Z" fill="#808080"/>
<path fill-rule="evenodd" clip-rule="evenodd" d="M82.144 78.7536C82.1439 78.7536 82.1439 78.7536 82.1036 78.3556C82.0634 77.9577 82.0635 77.9577 82.0636 77.9577L82.2481 77.9392C82.3692 77.9272 82.5479 77.9097 82.7787 77.8873C83.2402 77.8426 83.9101 77.7787 84.7441 77.702C86.4119 77.5487 88.736 77.3442 91.3616 77.1398C96.6093 76.7311 103.073 76.3215 107.906 76.3215C112.74 76.3215 119.203 76.7311 124.451 77.1398C127.077 77.3442 129.401 77.5487 131.069 77.702C131.903 77.7787 132.573 77.8426 133.034 77.8873C133.265 77.9097 133.444 77.9272 133.565 77.9392L133.749 77.9576C133.749 77.9576 133.749 77.9577 133.709 78.3556C133.669 78.7536 133.669 78.7536 133.669 78.7536L133.486 78.7353C133.365 78.7234 133.187 78.7059 132.957 78.6836C132.497 78.6389 131.828 78.5752 130.995 78.4986C129.33 78.3456 127.01 78.1414 124.389 77.9374C119.144 77.5289 112.706 77.1215 107.906 77.1215C103.107 77.1215 96.669 77.5289 91.4237 77.9374C88.8027 78.1414 86.4823 78.3456 84.8173 78.4986C83.9848 78.5752 83.3162 78.6389 82.8558 78.6836C82.6257 78.7059 82.4475 78.7234 82.327 78.7353L82.144 78.7536ZM133.709 78.3556L133.669 78.7536C133.889 78.7758 134.085 78.6157 134.107 78.3959C134.129 78.1761 133.968 77.9798 133.749 77.9576L133.709 78.3556ZM81.7057 78.3959C81.6835 78.1761 81.8438 77.9799 82.0636 77.9577L82.1036 78.3556L82.144 78.7536C81.9242 78.7758 81.7279 78.6157 81.7057 78.3959Z" fill="#808080"/>
<path fill-rule="evenodd" clip-rule="evenodd" d="M82.144 83.054C82.1439 83.054 82.1439 83.054 82.1036 82.6561C82.0634 82.2581 82.0635 82.2581 82.0636 82.2581L82.2481 82.2397C82.3692 82.2277 82.5479 82.2101 82.7787 82.1877C83.2402 82.143 83.9101 82.0791 84.7441 82.0024C86.4119 81.8491 88.736 81.6446 91.3616 81.4402C96.6093 81.0315 103.073 80.6219 107.906 80.6219C112.74 80.6219 119.203 81.0315 124.451 81.4402C127.077 81.6446 129.401 81.8491 131.069 82.0024C131.903 82.0791 132.573 82.143 133.034 82.1877C133.265 82.2101 133.444 82.2277 133.565 82.2397L133.749 82.258C133.749 82.258 133.749 82.2581 133.709 82.6561C133.669 83.054 133.669 83.054 133.669 83.054L133.486 83.0358C133.365 83.0238 133.187 83.0063 132.957 82.984C132.497 82.9393 131.828 82.8756 130.995 82.799C129.33 82.646 127.01 82.4419 124.389 82.2378C119.144 81.8293 112.706 81.4219 107.906 81.4219C103.107 81.4219 96.669 81.8293 91.4237 82.2378C88.8027 82.4419 86.4823 82.646 84.8173 82.799C83.9848 82.8756 83.3162 82.9393 82.8558 82.984C82.6257 83.0063 82.4475 83.0238 82.327 83.0358L82.144 83.054ZM133.709 82.6561L133.669 83.054C133.889 83.0762 134.085 82.9161 134.107 82.6963C134.129 82.4765 133.968 82.2802 133.749 82.258L133.709 82.6561ZM81.7057 82.6963C81.6835 82.4765 81.8438 82.2803 82.0636 82.2581L82.1036 82.6561L82.144 83.054C81.9242 83.0762 81.7279 82.9161 81.7057 82.6963Z" fill="#808080"/>
<path fill-rule="evenodd" clip-rule="evenodd" d="M82.144 93.3751C82.1439 93.3751 82.1439 93.3751 82.1036 92.9772C82.0634 92.5792 82.0635 92.5792 82.0636 92.5792L82.2481 92.5608C82.3692 92.5488 82.5479 92.5312 82.7787 92.5088C83.2402 92.4641 83.9101 92.4002 84.7441 92.3235C86.4119 92.1702 88.736 91.9657 91.3616 91.7613C96.6093 91.3527 103.073 90.943 107.906 90.943C108.127 90.943 108.306 91.1221 108.306 91.343C108.306 91.5639 108.127 91.743 107.906 91.743C103.107 91.743 96.669 92.1504 91.4237 92.5589C88.8027 92.763 86.4823 92.9671 84.8173 93.1201C83.9848 93.1967 83.3162 93.2605 82.8558 93.3051C82.6257 93.3274 82.4475 93.3449 82.327 93.3569L82.144 93.3751ZM81.7057 93.0174C81.6835 92.7976 81.8438 92.6014 82.0636 92.5792L82.1036 92.9772L82.144 93.3751C81.9242 93.3973 81.7279 93.2372 81.7057 93.0174Z" fill="#808080"/>
<path fill-rule="evenodd" clip-rule="evenodd" d="M82.144 56.8212C82.1439 56.8212 82.1439 56.8212 82.1036 56.4233C82.0634 56.0253 82.0635 56.0253 82.0636 56.0253L82.2481 56.0069C82.3692 55.9949 82.5479 55.9773 82.7787 55.9549C83.2402 55.9102 83.9101 55.8463 84.7441 55.7696C86.4119 55.6163 88.736 55.4118 91.3616 55.2074C96.6093 54.7988 103.073 54.3891 107.906 54.3891C112.74 54.3891 119.203 54.7988 124.451 55.2074C127.077 55.4118 129.401 55.6163 131.069 55.7696C131.903 55.8463 132.573 55.9102 133.034 55.9549C133.265 55.9773 133.444 55.9949 133.565 56.0069L133.749 56.0252C133.749 56.0252 133.749 56.0253 133.709 56.4233C133.669 56.8212 133.669 56.8212 133.669 56.8212L133.486 56.803C133.365 56.791 133.187 56.7735 132.957 56.7512C132.497 56.7066 131.828 56.6428 130.995 56.5663C129.33 56.4132 127.01 56.2091 124.389 56.005C119.144 55.5965 112.706 55.1891 107.906 55.1891C103.107 55.1891 96.669 55.5965 91.4237 56.005C88.8027 56.2091 86.4823 56.4132 84.8173 56.5663C83.9848 56.6428 83.3162 56.7066 82.8558 56.7512C82.6257 56.7735 82.4475 56.791 82.327 56.803L82.144 56.8212ZM133.709 56.4233L133.669 56.8212C133.889 56.8434 134.085 56.6833 134.107 56.4635C134.129 56.2437 133.968 56.0474 133.749 56.0252L133.709 56.4233ZM81.7057 56.4635C81.6835 56.2437 81.8438 56.0475 82.0636 56.0253L82.1036 56.4233L82.144 56.8212C81.9242 56.8434 81.7279 56.6833 81.7057 56.4635Z" fill="#808080"/>
<path fill-rule="evenodd" clip-rule="evenodd" d="M16.0886 39.2754C16.0885 39.2754 16.0884 39.2754 16.0482 38.8774C16.008 38.4795 16.0081 38.4795 16.0082 38.4794L16.1927 38.461C16.3138 38.449 16.4925 38.4315 16.7232 38.4091C17.1848 38.3643 17.8547 38.3004 18.6886 38.2238C20.3564 38.0704 22.6806 37.866 25.3062 37.6616C30.5539 37.2529 37.0178 36.8433 41.851 36.8433C46.6841 36.8433 53.148 37.2529 58.3958 37.6616C61.0213 37.866 63.3455 38.0704 65.0133 38.2238C65.8472 38.3004 66.5172 38.3643 66.9787 38.4091C67.2095 38.4315 67.3882 38.449 67.5092 38.461L67.6932 38.4794C67.6933 38.4794 67.6939 38.4795 67.6537 38.8774C67.6135 39.2754 67.6135 39.2754 67.6133 39.2754L67.4303 39.2571C67.3098 39.2452 67.1317 39.2277 66.9015 39.2054C66.4412 39.1607 65.7726 39.097 64.9401 39.0204C63.275 38.8673 60.9547 38.6632 58.3337 38.4591C53.0883 38.0507 46.6508 37.6433 41.851 37.6433C37.0511 37.6433 30.6136 38.0507 25.3683 38.4591C22.7473 38.6632 20.4269 38.8673 18.7619 39.0204C17.9294 39.097 17.2608 39.1607 16.8004 39.2054C16.5702 39.2277 16.3921 39.2452 16.2716 39.2571L16.0886 39.2754ZM67.6537 38.8774L67.6133 39.2754C67.8331 39.2976 68.0295 39.1375 68.0517 38.9177C68.0739 38.6979 67.913 38.5016 67.6932 38.4794L67.6537 38.8774ZM15.6502 38.9177C15.628 38.6979 15.7884 38.5017 16.0082 38.4794L16.0482 38.8774L16.0886 39.2754C15.8688 39.2976 15.6725 39.1375 15.6502 38.9177Z" fill="black"/>
<path fill-rule="evenodd" clip-rule="evenodd" d="M16.0886 21.7295C16.0885 21.7295 16.0884 21.7295 16.0482 21.3315C16.008 20.9336 16.0081 20.9336 16.0082 20.9335L16.1927 20.9151C16.3138 20.9031 16.4925 20.8856 16.7232 20.8632C17.1848 20.8184 17.8547 20.7545 18.6886 20.6779C20.3564 20.5245 22.6806 20.3201 25.3062 20.1157C30.5539 19.707 37.0178 19.2974 41.851 19.2974C46.6841 19.2974 53.148 19.707 58.3958 20.1157C61.0213 20.3201 63.3455 20.5245 65.0133 20.6779C65.8472 20.7545 66.5172 20.8184 66.9787 20.8632C67.2095 20.8856 67.3882 20.9031 67.5092 20.9151L67.6932 20.9335C67.6933 20.9335 67.6939 20.9336 67.6537 21.3315C67.6135 21.7295 67.6135 21.7295 67.6133 21.7295L67.4303 21.7112C67.3098 21.6993 67.1317 21.6818 66.9015 21.6595C66.4412 21.6148 65.7726 21.5511 64.9401 21.4745C63.275 21.3214 60.9547 21.1173 58.3337 20.9132C53.0883 20.5048 46.6508 20.0974 41.851 20.0974C37.0511 20.0974 30.6136 20.5048 25.3683 20.9132C22.7473 21.1173 20.4269 21.3214 18.7619 21.4745C17.9294 21.5511 17.2608 21.6148 16.8004 21.6595C16.5702 21.6818 16.3921 21.6993 16.2716 21.7112L16.0886 21.7295ZM67.6537 21.3315L67.6133 21.7295C67.8331 21.7517 68.0295 21.5916 68.0517 21.3718C68.0739 21.152 67.913 20.9557 67.6932 20.9335L67.6537 21.3315ZM15.6502 21.3718C15.628 21.152 15.7884 20.9558 16.0082 20.9335L16.0482 21.3315L16.0886 21.7295C15.8688 21.7517 15.6725 21.5916 15.6502 21.3718Z" fill="black"/>
<path fill-rule="evenodd" clip-rule="evenodd" d="M16.0886 26.116C16.0885 26.116 16.0884 26.116 16.0482 25.718C16.008 25.32 16.0081 25.32 16.0082 25.32L16.1927 25.3016C16.3138 25.2896 16.4925 25.272 16.7232 25.2497C17.1848 25.2049 17.8547 25.141 18.6886 25.0644C20.3564 24.911 22.6806 24.7066 25.3062 24.5021C30.5539 24.0935 37.0178 23.6838 41.851 23.6838C46.6841 23.6838 53.148 24.0935 58.3958 24.5021C61.0213 24.7066 63.3455 24.911 65.0133 25.0644C65.8472 25.141 66.5172 25.2049 66.9787 25.2497C67.2095 25.272 67.3882 25.2896 67.5092 25.3016L67.6932 25.32C67.6933 25.32 67.6939 25.32 67.6537 25.718C67.6135 26.116 67.6135 26.116 67.6133 26.116L67.4303 26.0977C67.3098 26.0858 67.1317 26.0682 66.9015 26.0459C66.4412 26.0013 65.7726 25.9375 64.9401 25.861C63.275 25.7079 60.9547 25.5038 58.3337 25.2997C53.0883 24.8913 46.6508 24.4838 41.851 24.4838C37.0511 24.4838 30.6136 24.8913 25.3683 25.2997C22.7473 25.5038 20.4269 25.7079 18.7619 25.861C17.9294 25.9375 17.2608 26.0013 16.8004 26.0459C16.5702 26.0682 16.3921 26.0858 16.2716 26.0977L16.0886 26.116ZM67.6537 25.718L67.6133 26.116C67.8331 26.1382 68.0295 25.978 68.0517 25.7582C68.0739 25.5384 67.913 25.3422 67.6932 25.32L67.6537 25.718ZM15.6502 25.7582C15.628 25.5384 15.7884 25.3422 16.0082 25.32L16.0482 25.718L16.0886 26.116C15.8688 26.1382 15.6725 25.978 15.6502 25.7582Z" fill="black"/>
<path fill-rule="evenodd" clip-rule="evenodd" d="M16.0886 30.5024C16.0885 30.5025 16.0884 30.5025 16.0482 30.1045C16.008 29.7065 16.0081 29.7065 16.0082 29.7065L16.1927 29.6881C16.3138 29.6761 16.4925 29.6585 16.7232 29.6361C17.1848 29.5914 17.8547 29.5275 18.6886 29.4508C20.3564 29.2975 22.6806 29.0931 25.3062 28.8886C30.5539 28.48 37.0178 28.0703 41.851 28.0703C46.6841 28.0703 53.148 28.48 58.3958 28.8886C61.0213 29.0931 63.3455 29.2975 65.0133 29.4508C65.8472 29.5275 66.5172 29.5914 66.9787 29.6361C67.2095 29.6585 67.3882 29.6761 67.5092 29.6881L67.6932 29.7064C67.6933 29.7064 67.6939 29.7065 67.6537 30.1045C67.6135 30.5025 67.6135 30.5025 67.6133 30.5024L67.4303 30.4842C67.3098 30.4722 67.1317 30.4547 66.9015 30.4324C66.4412 30.3878 65.7726 30.324 64.9401 30.2475C63.275 30.0944 60.9547 29.8903 58.3337 29.6862C53.0883 29.2777 46.6508 28.8703 41.851 28.8703C37.0511 28.8703 30.6136 29.2777 25.3683 29.6862C22.7473 29.8903 20.4269 30.0944 18.7619 30.2475C17.9294 30.324 17.2608 30.3878 16.8004 30.4324C16.5702 30.4547 16.3921 30.4722 16.2716 30.4842L16.0886 30.5024ZM67.6537 30.1045L67.6133 30.5024C67.8331 30.5247 68.0295 30.3645 68.0517 30.1447C68.0739 29.9249 67.913 29.7286 67.6932 29.7064L67.6537 30.1045ZM15.6502 30.1447C15.628 29.9249 15.7884 29.7287 16.0082 29.7065L16.0482 30.1045L16.0886 30.5024C15.8688 30.5247 15.6725 30.3645 15.6502 30.1447Z" fill="black"/>
<path fill-rule="evenodd" clip-rule="evenodd" d="M16.0886 34.8889C16.0885 34.8889 16.0884 34.8889 16.0482 34.491C16.008 34.093 16.0081 34.093 16.0082 34.093L16.1927 34.0746C16.3138 34.0626 16.4925 34.045 16.7232 34.0226C17.1848 33.9779 17.8547 33.914 18.6886 33.8373C20.3564 33.684 22.6806 33.4795 25.3062 33.2751C30.5539 32.8664 37.0178 32.4568 41.851 32.4568C46.6841 32.4568 53.148 32.8664 58.3958 33.2751C61.0213 33.4795 63.3455 33.684 65.0133 33.8373C65.8472 33.914 66.5172 33.9779 66.9787 34.0226C67.2095 34.045 67.3882 34.0626 67.5092 34.0746L67.6932 34.0929C67.6933 34.0929 67.6939 34.093 67.6537 34.491C67.6135 34.8889 67.6135 34.8889 67.6133 34.8889L67.4303 34.8707C67.3098 34.8587 67.1317 34.8412 66.9015 34.8189C66.4412 34.7742 65.7726 34.7105 64.9401 34.6339C63.275 34.4809 60.9547 34.2768 58.3337 34.0727C53.0883 33.6642 46.6508 33.2568 41.851 33.2568C37.0511 33.2568 30.6136 33.6642 25.3683 34.0727C22.7473 34.2768 20.4269 34.4809 18.7619 34.6339C17.9294 34.7105 17.2608 34.7742 16.8004 34.8189C16.5702 34.8412 16.3921 34.8587 16.2716 34.8707L16.0886 34.8889ZM67.6537 34.491L67.6133 34.8889C67.8331 34.9111 68.0295 34.751 68.0517 34.5312C68.0739 34.3114 67.913 34.1151 67.6932 34.0929L67.6537 34.491ZM15.6502 34.5312C15.628 34.3114 15.7884 34.1152 16.0082 34.093L16.0482 34.491L16.0886 34.8889C15.8688 34.9111 15.6725 34.751 15.6502 34.5312Z" fill="black"/>
<path fill-rule="evenodd" clip-rule="evenodd" d="M16.0886 17.343C16.0885 17.343 16.0884 17.343 16.0482 16.9451C16.008 16.5471 16.0081 16.5471 16.0082 16.5471L16.1927 16.5287C16.3138 16.5167 16.4925 16.4991 16.7232 16.4767C17.1848 16.432 17.8547 16.3681 18.6886 16.2914C20.3564 16.1381 22.6806 15.9336 25.3062 15.7292C30.5539 15.3205 37.0178 14.9109 41.851 14.9109C46.6841 14.9109 53.148 15.3205 58.3958 15.7292C61.0213 15.9336 63.3455 16.1381 65.0133 16.2914C65.8472 16.3681 66.5172 16.432 66.9787 16.4767C67.2095 16.4991 67.3882 16.5167 67.5092 16.5287L67.6932 16.547C67.6933 16.547 67.6939 16.5471 67.6537 16.9451C67.6135 17.343 67.6135 17.343 67.6133 17.343L67.4303 17.3248C67.3098 17.3128 67.1317 17.2953 66.9015 17.273C66.4412 17.2284 65.7726 17.1646 64.9401 17.088C63.275 16.935 60.9547 16.7309 58.3337 16.5268C53.0883 16.1183 46.6508 15.7109 41.851 15.7109C37.0511 15.7109 30.6136 16.1183 25.3683 16.5268C22.7473 16.7309 20.4269 16.935 18.7619 17.088C17.9294 17.1646 17.2608 17.2284 16.8004 17.273C16.5702 17.2953 16.3921 17.3128 16.2716 17.3248L16.0886 17.343ZM67.6537 16.9451L67.6133 17.343C67.8331 17.3652 68.0295 17.2051 68.0517 16.9853C68.0739 16.7655 67.913 16.5692 67.6932 16.547L67.6537 16.9451ZM15.6502 16.9853C15.628 16.7655 15.7884 16.5693 16.0082 16.5471L16.0482 16.9451L16.0886 17.343C15.8688 17.3652 15.6725 17.2051 15.6502 16.9853Z" fill="black"/>
</svg>
