<svg width="151" height="106" viewBox="0 0 151 106" fill="none" xmlns="http://www.w3.org/2000/svg">
<path d="M0.75 12.8546H150.75V105.056H0.75V12.8546Z" fill="white"/>
<path fill-rule="evenodd" clip-rule="evenodd" d="M150.25 13.3546H1.25V104.556H150.25V13.3546ZM0.75 12.8546V105.056H150.75V12.8546H0.75Z" fill="black"/>
<path d="M9.69507 5.28577C9.69507 5.28577 25.8648 0.813293 42.7226 0.813293C59.5804 0.813293 75.7501 5.28577 75.7501 5.28577V98.1757C75.7501 98.1757 59.5804 95.0793 42.3786 95.0793C25.1767 95.0793 9.69507 98.1757 9.69507 98.1757V5.28577Z" fill="white"/>
<path fill-rule="evenodd" clip-rule="evenodd" d="M9.94507 98.1271C9.78027 98.1586 9.69507 98.1757 9.69507 98.1757V5.28577C9.69507 5.28577 25.8648 0.813293 42.7226 0.813293C59.5804 0.813293 75.7501 5.28577 75.7501 5.28577V98.1757C75.7501 98.1757 75.6648 98.1594 75.5001 98.1291C73.3963 97.7423 58.3313 95.0793 42.3786 95.0793C26.4529 95.0793 12.0016 97.7333 9.94507 98.1271ZM9.94507 97.8726C10.052 97.8522 10.1868 97.8268 10.3483 97.7968C10.8065 97.7119 11.4798 97.5907 12.3413 97.4454C14.0642 97.1546 16.5402 96.7671 19.5542 96.3796C25.5815 95.6046 33.7636 94.8293 42.3786 94.8293C50.9933 94.8293 59.3472 95.6046 65.546 96.3794C68.6458 96.7669 71.2077 97.1544 72.995 97.4451C73.8886 97.5905 74.5887 97.7116 75.0655 97.7965C75.2411 97.8278 75.3865 97.8541 75.5001 97.8749V5.47713C75.5 5.47711 75.5002 5.47716 75.5001 5.47713C75.3783 5.44457 75.1968 5.39665 74.9601 5.3357C74.4865 5.2138 73.7907 5.03951 72.9029 4.83028C71.127 4.41181 68.5833 3.85367 65.5133 3.2955C59.3721 2.17891 51.1312 1.06329 42.7226 1.06329C34.314 1.06329 26.0731 2.17891 19.9319 3.2955C16.8619 3.85367 14.3181 4.41181 12.5423 4.83028C11.6545 5.03951 10.9586 5.2138 10.4851 5.3357C10.2483 5.39665 10.0672 5.4445 9.94534 5.47706C9.94525 5.47709 9.94543 5.47704 9.94534 5.47706L9.94507 97.8726Z" fill="black"/>
<path d="M42.9727 13.1174C32.9727 13.1174 20.9727 14.6174 15.9727 15.6174V44.8674C22.4727 43.6174 36.306 43.1174 42.4727 43.1174C46.8727 43.1174 62.4727 44.1174 69.4727 44.8674V15.6174C64.2727 14.4174 51.4727 13.1174 42.9727 13.1174Z" fill="#C4C4C4"/>
<path fill-rule="evenodd" clip-rule="evenodd" d="M16.4727 16.0291V44.2676C23.2364 43.0876 36.4867 42.6174 42.4727 42.6174C46.7842 42.6174 61.7263 43.5687 68.9727 44.3122V16.018C63.5919 14.8533 51.2419 13.6174 42.9727 13.6174C33.2671 13.6174 21.6621 15.0368 16.4727 16.0291ZM15.8746 15.1271C20.9045 14.1211 32.9374 12.6174 42.9727 12.6174C51.4982 12.6174 64.3379 13.9193 69.5851 15.1302L69.9727 15.2196V45.4238L69.4194 45.3645C62.429 44.6156 46.8482 43.6174 42.4727 43.6174C36.306 43.6174 22.5155 44.1183 16.0671 45.3584L15.4727 45.4727V15.2075L15.8746 15.1271Z" fill="#C6C6C6"/>
<path fill-rule="evenodd" clip-rule="evenodd" d="M16.6159 61.1596C16.6158 61.1596 16.6158 61.1596 16.5756 60.7617C16.5353 60.3637 16.5354 60.3637 16.5356 60.3637L16.7201 60.3452C16.8411 60.3333 17.0198 60.3157 17.2506 60.2933C17.7121 60.2486 18.382 60.1847 19.216 60.108C20.8838 59.9547 23.2079 59.7502 25.8335 59.5458C31.0813 59.1371 37.5452 58.7275 42.3783 58.7275C47.2115 58.7275 53.6754 59.1371 58.9231 59.5458C61.5487 59.7502 63.8728 59.9547 65.5407 60.108C66.3746 60.1847 67.0445 60.2486 67.5061 60.2933C67.7368 60.3157 67.9155 60.3333 68.0366 60.3452L68.2205 60.3636C68.2206 60.3636 68.2213 60.3637 68.1811 60.7617C68.1409 61.1596 68.1408 61.1596 68.1407 61.1596L67.9577 61.1414C67.8372 61.1294 67.659 61.1119 67.4289 61.0896C66.9685 61.0449 66.2999 60.9812 65.4674 60.9046C63.8024 60.7516 61.482 60.5475 58.861 60.3434C53.6157 59.9349 47.1782 59.5275 42.3783 59.5275C37.5785 59.5275 31.141 59.9349 25.8956 60.3434C23.2746 60.5475 20.9543 60.7516 19.2892 60.9046C18.4567 60.9812 17.7881 61.0449 17.3278 61.0896C17.0976 61.1119 16.9195 61.1294 16.799 61.1414L16.6159 61.1596ZM68.1811 60.7617L68.1407 61.1596C68.3605 61.1818 68.5568 61.0217 68.579 60.8019C68.6013 60.5821 68.4403 60.3858 68.2205 60.3636L68.1811 60.7617ZM16.1776 60.8019C16.1554 60.5821 16.3158 60.3859 16.5356 60.3637L16.5756 60.7617L16.6159 61.1596C16.3962 61.1818 16.1998 61.0217 16.1776 60.8019Z" fill="#808080"/>
<path fill-rule="evenodd" clip-rule="evenodd" d="M16.6159 65.5461C16.6158 65.5461 16.6158 65.5461 16.5756 65.1481C16.5353 64.7502 16.5354 64.7501 16.5356 64.7501L16.7201 64.7317C16.8411 64.7197 17.0198 64.7021 17.2506 64.6798C17.7121 64.635 18.382 64.5711 19.216 64.4945C20.8838 64.3411 23.2079 64.1367 25.8335 63.9322C31.0813 63.5236 37.5452 63.114 42.3783 63.114C47.2115 63.114 53.6754 63.5236 58.9231 63.9322C61.5487 64.1367 63.8728 64.3411 65.5407 64.4945C66.3746 64.5711 67.0445 64.635 67.5061 64.6798C67.7368 64.7021 67.9155 64.7197 68.0366 64.7317L68.2205 64.7501C68.2206 64.7501 68.2213 64.7502 68.1811 65.1481C68.1409 65.5461 68.1408 65.5461 68.1407 65.5461L67.9577 65.5278C67.8372 65.5159 67.659 65.4984 67.4289 65.476C66.9685 65.4314 66.2999 65.3676 65.4674 65.2911C63.8024 65.138 61.482 64.9339 58.861 64.7298C53.6157 64.3214 47.1782 63.914 42.3783 63.914C37.5785 63.914 31.141 64.3214 25.8956 64.7298C23.2746 64.9339 20.9543 65.138 19.2892 65.2911C18.4567 65.3676 17.7881 65.4314 17.3278 65.476C17.0976 65.4984 16.9195 65.5159 16.799 65.5278L16.6159 65.5461ZM68.1811 65.1481L68.1407 65.5461C68.3605 65.5683 68.5568 65.4081 68.579 65.1883C68.6013 64.9686 68.4403 64.7723 68.2205 64.7501L68.1811 65.1481ZM16.1776 65.1883C16.1554 64.9686 16.3158 64.7723 16.5356 64.7501L16.5756 65.1481L16.6159 65.5461C16.3962 65.5683 16.1998 65.4081 16.1776 65.1883Z" fill="#808080"/>
<path fill-rule="evenodd" clip-rule="evenodd" d="M16.6159 43.6137C16.6158 43.6137 16.6158 43.6137 16.5756 43.2158C16.5353 42.8178 16.5354 42.8178 16.5356 42.8178L16.7201 42.7994C16.8411 42.7874 17.0198 42.7698 17.2506 42.7474C17.7121 42.7027 18.382 42.6388 19.216 42.5621C20.8838 42.4088 23.2079 42.2043 25.8335 41.9999C31.0813 41.5912 37.5452 41.1816 42.3783 41.1816C47.2115 41.1816 53.6754 41.5912 58.9231 41.9999C61.5487 42.2043 63.8728 42.4088 65.5407 42.5621C66.3746 42.6388 67.0445 42.7027 67.5061 42.7474C67.7368 42.7698 67.9155 42.7874 68.0366 42.7994L68.2205 42.8177C68.2206 42.8177 68.2213 42.8178 68.1811 43.2158C68.1409 43.6137 68.1408 43.6137 68.1407 43.6137L67.9577 43.5955C67.8372 43.5835 67.659 43.566 67.4289 43.5437C66.9685 43.499 66.2999 43.4353 65.4674 43.3587C63.8024 43.2057 61.482 43.0016 58.861 42.7975C53.6157 42.389 47.1782 41.9816 42.3783 41.9816C37.5785 41.9816 31.141 42.389 25.8956 42.7975C23.2746 43.0016 20.9543 43.2057 19.2892 43.3587C18.4567 43.4353 17.7881 43.499 17.3278 43.5437C17.0976 43.566 16.9195 43.5835 16.799 43.5955L16.6159 43.6137ZM68.1811 43.2158L68.1407 43.6137C68.3605 43.6359 68.5568 43.4758 68.579 43.256C68.6013 43.0362 68.4403 42.8399 68.2205 42.8177L68.1811 43.2158ZM16.1776 43.256C16.1554 43.0362 16.3158 42.84 16.5356 42.8178L16.5756 43.2158L16.6159 43.6137C16.3962 43.6359 16.1998 43.4758 16.1776 43.256Z" fill="black"/>
<path fill-rule="evenodd" clip-rule="evenodd" d="M16.6159 69.9326C16.6158 69.9326 16.6158 69.9326 16.5756 69.5346C16.5353 69.1366 16.5354 69.1366 16.5356 69.1366L16.7201 69.1182C16.8411 69.1062 17.0198 69.0886 17.2506 69.0662C17.7121 69.0215 18.382 68.9576 19.216 68.8809C20.8838 68.7276 23.2079 68.5232 25.8335 68.3187C31.0813 67.9101 37.5452 67.5004 42.3783 67.5004C47.2115 67.5004 53.6754 67.9101 58.9231 68.3187C61.5487 68.5232 63.8728 68.7276 65.5407 68.8809C66.3746 68.9576 67.0445 69.0215 67.5061 69.0662C67.7368 69.0886 67.9155 69.1062 68.0366 69.1182L68.2205 69.1365C68.2206 69.1366 68.2213 69.1366 68.1811 69.5346C68.1409 69.9326 68.1408 69.9326 68.1407 69.9326L67.9577 69.9143C67.8372 69.9024 67.659 69.8848 67.4289 69.8625C66.9685 69.8179 66.2999 69.7541 65.4674 69.6776C63.8024 69.5245 61.482 69.3204 58.861 69.1163C53.6157 68.7079 47.1782 68.3004 42.3783 68.3004C37.5785 68.3004 31.141 68.7079 25.8956 69.1163C23.2746 69.3204 20.9543 69.5245 19.2892 69.6776C18.4567 69.7541 17.7881 69.8179 17.3278 69.8625C17.0976 69.8848 16.9195 69.9024 16.799 69.9143L16.6159 69.9326ZM68.1811 69.5346L68.1407 69.9326C68.3605 69.9548 68.5568 69.7946 68.579 69.5748C68.6013 69.355 68.4403 69.1588 68.2205 69.1365L68.1811 69.5346ZM16.1776 69.5748C16.1554 69.355 16.3158 69.1588 16.5356 69.1366L16.5756 69.5346L16.6159 69.9326C16.3962 69.9548 16.1998 69.7946 16.1776 69.5748Z" fill="#808080"/>
<path fill-rule="evenodd" clip-rule="evenodd" d="M16.6159 48.0002C16.6158 48.0002 16.6158 48.0002 16.5756 47.6022C16.5353 47.2043 16.5354 47.2042 16.5356 47.2042L16.7201 47.1858C16.8411 47.1738 17.0198 47.1562 17.2506 47.1339C17.7121 47.0891 18.382 47.0252 19.216 46.9486C20.8838 46.7952 23.2079 46.5908 25.8335 46.3863C31.0813 45.9777 37.5452 45.5681 42.3783 45.5681C47.2115 45.5681 53.6754 45.9777 58.9231 46.3863C61.5487 46.5908 63.8728 46.7952 65.5407 46.9486C66.3746 47.0252 67.0445 47.0891 67.5061 47.1339C67.7368 47.1562 67.9155 47.1738 68.0366 47.1858L68.2205 47.2042C68.2206 47.2042 68.2213 47.2043 68.1811 47.6022C68.1409 48.0002 68.1408 48.0002 68.1407 48.0002L67.9577 47.9819C67.8372 47.97 67.659 47.9525 67.4289 47.9301C66.9685 47.8855 66.2999 47.8217 65.4674 47.7452C63.8024 47.5921 61.482 47.388 58.861 47.1839C53.6157 46.7755 47.1782 46.3681 42.3783 46.3681C37.5785 46.3681 31.141 46.7755 25.8956 47.1839C23.2746 47.388 20.9543 47.5921 19.2892 47.7452C18.4567 47.8217 17.7881 47.8855 17.3278 47.9301C17.0976 47.9525 16.9195 47.97 16.799 47.9819L16.6159 48.0002ZM68.1811 47.6022L68.1407 48.0002C68.3605 48.0224 68.5568 47.8622 68.579 47.6424C68.6013 47.4227 68.4403 47.2264 68.2205 47.2042L68.1811 47.6022ZM16.1776 47.6424C16.1554 47.4227 16.3158 47.2264 16.5356 47.2042L16.5756 47.6022L16.6159 48.0002C16.3962 48.0224 16.1998 47.8622 16.1776 47.6424Z" fill="#808080"/>
<path fill-rule="evenodd" clip-rule="evenodd" d="M16.6159 74.319C16.6158 74.319 16.6158 74.319 16.5756 73.9211C16.5353 73.5231 16.5354 73.5231 16.5356 73.5231L16.7201 73.5047C16.8411 73.4927 17.0198 73.4751 17.2506 73.4527C17.7121 73.408 18.382 73.3441 19.216 73.2674C20.8838 73.1141 23.2079 72.9096 25.8335 72.7052C31.0813 72.2966 37.5452 71.8869 42.3783 71.8869C47.2115 71.8869 53.6754 72.2966 58.9231 72.7052C61.5487 72.9096 63.8728 73.1141 65.5407 73.2674C66.3746 73.3441 67.0445 73.408 67.5061 73.4527C67.7368 73.4751 67.9155 73.4927 68.0366 73.5047L68.2205 73.523C68.2206 73.523 68.2213 73.5231 68.1811 73.9211C68.1409 74.319 68.1408 74.319 68.1407 74.319L67.9577 74.3008C67.8372 74.2888 67.659 74.2713 67.4289 74.249C66.9685 74.2044 66.2999 74.1406 65.4674 74.0641C63.8024 73.911 61.482 73.7069 58.861 73.5028C53.6157 73.0943 47.1782 72.6869 42.3783 72.6869C37.5785 72.6869 31.141 73.0943 25.8956 73.5028C23.2746 73.7069 20.9543 73.911 19.2892 74.0641C18.4567 74.1406 17.7881 74.2044 17.3278 74.249C17.0976 74.2713 16.9195 74.2888 16.799 74.3008L16.6159 74.319ZM68.1811 73.9211L68.1407 74.319C68.3605 74.3412 68.5568 74.1811 68.579 73.9613C68.6013 73.7415 68.4403 73.5452 68.2205 73.523L68.1811 73.9211ZM16.1776 73.9613C16.1554 73.7415 16.3158 73.5453 16.5356 73.5231L16.5756 73.9211L16.6159 74.319C16.3962 74.3412 16.1998 74.1811 16.1776 73.9613Z" fill="#808080"/>
<path fill-rule="evenodd" clip-rule="evenodd" d="M16.6159 90.5748C16.6158 90.5748 16.6158 90.5748 16.5756 90.1768C16.5353 89.7788 16.5354 89.7788 16.5356 89.7788L16.7201 89.7604C16.8411 89.7484 17.0198 89.7308 17.2506 89.7085C17.7121 89.6637 18.382 89.5998 19.216 89.5232C20.8838 89.3698 23.2079 89.1654 25.8335 88.9609C31.0813 88.5523 37.5452 88.1426 42.3783 88.1426C47.2115 88.1426 53.6754 88.5523 58.9231 88.9609C61.5487 89.1654 63.8728 89.3698 65.5407 89.5232C66.3746 89.5998 67.0445 89.6637 67.5061 89.7085C67.7368 89.7308 67.9155 89.7484 68.0366 89.7604L68.2205 89.7788C68.2206 89.7788 68.2213 89.7788 68.1811 90.1768C68.1409 90.5748 68.1408 90.5748 68.1407 90.5748L67.9577 90.5565C67.8372 90.5446 67.659 90.527 67.4289 90.5047C66.9685 90.4601 66.2999 90.3963 65.4674 90.3198C63.8024 90.1667 61.482 89.9626 58.861 89.7585C53.6157 89.3501 47.1782 88.9426 42.3783 88.9426C37.5785 88.9426 31.141 89.3501 25.8956 89.7585C23.2746 89.9626 20.9543 90.1667 19.2892 90.3198C18.4567 90.3963 17.7881 90.4601 17.3278 90.5047C17.0976 90.527 16.9195 90.5446 16.799 90.5565L16.6159 90.5748ZM68.1811 90.1768L68.1407 90.5748C68.3605 90.597 68.5568 90.4368 68.579 90.217C68.6013 89.9972 68.4403 89.801 68.2205 89.7788L68.1811 90.1768ZM16.1776 90.217C16.1554 89.9972 16.3158 89.801 16.5356 89.7788L16.5756 90.1768L16.6159 90.5748C16.3962 90.597 16.1998 90.4368 16.1776 90.217Z" fill="#808080"/>
<path fill-rule="evenodd" clip-rule="evenodd" d="M16.6159 52.3867C16.6158 52.3867 16.6158 52.3867 16.5756 51.9887C16.5353 51.5907 16.5354 51.5907 16.5356 51.5907L16.7201 51.5723C16.8411 51.5603 17.0198 51.5427 17.2506 51.5204C17.7121 51.4756 18.382 51.4117 19.216 51.335C20.8838 51.1817 23.2079 50.9773 25.8335 50.7728C31.0813 50.3642 37.5452 49.9545 42.3783 49.9545C47.2115 49.9545 53.6754 50.3642 58.9231 50.7728C61.5487 50.9773 63.8728 51.1817 65.5407 51.335C66.3746 51.4117 67.0445 51.4756 67.5061 51.5204C67.7368 51.5427 67.9155 51.5603 68.0366 51.5723L68.2205 51.5907C68.2206 51.5907 68.2213 51.5907 68.1811 51.9887C68.1409 52.3867 68.1408 52.3867 68.1407 52.3867L67.9577 52.3684C67.8372 52.3565 67.659 52.3389 67.4289 52.3166C66.9685 52.272 66.2999 52.2082 65.4674 52.1317C63.8024 51.9786 61.482 51.7745 58.861 51.5704C53.6157 51.162 47.1782 50.7545 42.3783 50.7545C37.5785 50.7545 31.141 51.162 25.8956 51.5704C23.2746 51.7745 20.9543 51.9786 19.2892 52.1317C18.4567 52.2082 17.7881 52.272 17.3278 52.3166C17.0976 52.3389 16.9195 52.3565 16.799 52.3684L16.6159 52.3867ZM68.1811 51.9887L68.1407 52.3867C68.3605 52.4089 68.5568 52.2487 68.579 52.0289C68.6013 51.8091 68.4403 51.6129 68.2205 51.5907L68.1811 51.9887ZM16.1776 52.0289C16.1554 51.8091 16.3158 51.6129 16.5356 51.5907L16.5756 51.9887L16.6159 52.3867C16.3962 52.4089 16.1998 52.2487 16.1776 52.0289Z" fill="#808080"/>
<path fill-rule="evenodd" clip-rule="evenodd" d="M16.6159 78.7055C16.6158 78.7055 16.6158 78.7055 16.5756 78.3076C16.5353 77.9096 16.5354 77.9096 16.5356 77.9096L16.7201 77.8911C16.8411 77.8792 17.0198 77.8616 17.2506 77.8392C17.7121 77.7945 18.382 77.7306 19.216 77.6539C20.8838 77.5006 23.2079 77.2961 25.8335 77.0917C31.0813 76.683 37.5452 76.2734 42.3783 76.2734C47.2115 76.2734 53.6754 76.683 58.9231 77.0917C61.5487 77.2961 63.8728 77.5006 65.5407 77.6539C66.3746 77.7306 67.0445 77.7945 67.5061 77.8392C67.7368 77.8616 67.9155 77.8792 68.0366 77.8911L68.2205 77.9095C68.2206 77.9095 68.2213 77.9096 68.1811 78.3076C68.1409 78.7055 68.1408 78.7055 68.1407 78.7055L67.9577 78.6872C67.8372 78.6753 67.659 78.6578 67.4289 78.6355C66.9685 78.5908 66.2999 78.5271 65.4674 78.4505C63.8024 78.2975 61.482 78.0934 58.861 77.8893C53.6157 77.4808 47.1782 77.0734 42.3783 77.0734C37.5785 77.0734 31.141 77.4808 25.8956 77.8893C23.2746 78.0934 20.9543 78.2975 19.2892 78.4505C18.4567 78.5271 17.7881 78.5908 17.3278 78.6355C17.0976 78.6578 16.9195 78.6753 16.799 78.6872L16.6159 78.7055ZM68.1811 78.3076L68.1407 78.7055C68.3605 78.7277 68.5568 78.5676 68.579 78.3478C68.6013 78.128 68.4403 77.9317 68.2205 77.9095L68.1811 78.3076ZM16.1776 78.3478C16.1554 78.128 16.3158 77.9318 16.5356 77.9096L16.5756 78.3076L16.6159 78.7055C16.3962 78.7277 16.1998 78.5676 16.1776 78.3478Z" fill="#808080"/>
<path fill-rule="evenodd" clip-rule="evenodd" d="M16.6159 83.0059C16.6158 83.0059 16.6158 83.0059 16.5756 82.608C16.5353 82.21 16.5354 82.21 16.5356 82.21L16.7201 82.1916C16.8411 82.1796 17.0198 82.162 17.2506 82.1396C17.7121 82.0949 18.382 82.031 19.216 81.9543C20.8838 81.801 23.2079 81.5965 25.8335 81.3921C31.0813 80.9834 37.5452 80.5738 42.3783 80.5738C47.2115 80.5738 53.6754 80.9834 58.9231 81.3921C61.5487 81.5965 63.8728 81.801 65.5407 81.9543C66.3746 82.031 67.0445 82.0949 67.5061 82.1396C67.7368 82.162 67.9155 82.1796 68.0366 82.1916L68.2205 82.2099C68.2206 82.2099 68.2213 82.21 68.1811 82.608C68.1409 83.0059 68.1408 83.0059 68.1407 83.0059L67.9577 82.9877C67.8372 82.9757 67.659 82.9582 67.4289 82.9359C66.9685 82.8913 66.2999 82.8275 65.4674 82.7509C63.8024 82.5979 61.482 82.3938 58.861 82.1897C53.6157 81.7812 47.1782 81.3738 42.3783 81.3738C37.5785 81.3738 31.141 81.7812 25.8956 82.1897C23.2746 82.3938 20.9543 82.5979 19.2892 82.7509C18.4567 82.8275 17.7881 82.8913 17.3278 82.9359C17.0976 82.9582 16.9195 82.9757 16.799 82.9877L16.6159 83.0059ZM68.1811 82.608L68.1407 83.0059C68.3605 83.0281 68.5568 82.868 68.579 82.6482C68.6013 82.4284 68.4403 82.2321 68.2205 82.2099L68.1811 82.608ZM16.1776 82.6482C16.1554 82.4284 16.3158 82.2322 16.5356 82.21L16.5756 82.608L16.6159 83.0059C16.3962 83.0281 16.1998 82.868 16.1776 82.6482Z" fill="#808080"/>
<path fill-rule="evenodd" clip-rule="evenodd" d="M16.6159 93.327C16.6158 93.327 16.6158 93.327 16.5756 92.9291C16.5353 92.5311 16.5354 92.5311 16.5356 92.5311L16.7201 92.5127C16.8411 92.5007 17.0198 92.4831 17.2506 92.4607C17.7121 92.416 18.382 92.3521 19.216 92.2754C20.8838 92.1221 23.2079 91.9176 25.8335 91.7132C31.0813 91.3046 37.5452 90.8949 42.3783 90.8949C42.5992 90.8949 42.7783 91.074 42.7783 91.2949C42.7783 91.5158 42.5992 91.6949 42.3783 91.6949C37.5785 91.6949 31.141 92.1023 25.8956 92.5108C23.2746 92.7149 20.9543 92.919 19.2892 93.0721C18.4567 93.1486 17.7881 93.2124 17.3278 93.257C17.0976 93.2793 16.9195 93.2968 16.799 93.3088L16.6159 93.327ZM16.1776 92.9693C16.1554 92.7495 16.3158 92.5533 16.5356 92.5311L16.5756 92.9291L16.6159 93.327C16.3962 93.3492 16.1998 93.1891 16.1776 92.9693Z" fill="#808080"/>
<path fill-rule="evenodd" clip-rule="evenodd" d="M16.6159 56.7731C16.6158 56.7731 16.6158 56.7732 16.5756 56.3752C16.5353 55.9772 16.5354 55.9772 16.5356 55.9772L16.7201 55.9588C16.8411 55.9468 17.0198 55.9292 17.2506 55.9068C17.7121 55.8621 18.382 55.7982 19.216 55.7215C20.8838 55.5682 23.2079 55.3637 25.8335 55.1593C31.0813 54.7507 37.5452 54.341 42.3783 54.341C47.2115 54.341 53.6754 54.7507 58.9231 55.1593C61.5487 55.3637 63.8728 55.5682 65.5407 55.7215C66.3746 55.7982 67.0445 55.8621 67.5061 55.9068C67.7368 55.9292 67.9155 55.9468 68.0366 55.9588L68.2205 55.9771C68.2206 55.9771 68.2213 55.9772 68.1811 56.3752C68.1409 56.7732 68.1408 56.7731 68.1407 56.7731L67.9577 56.7549C67.8372 56.7429 67.659 56.7254 67.4289 56.7031C66.9685 56.6585 66.2999 56.5947 65.4674 56.5182C63.8024 56.3651 61.482 56.161 58.861 55.9569C53.6157 55.5484 47.1782 55.141 42.3783 55.141C37.5785 55.141 31.141 55.5484 25.8956 55.9569C23.2746 56.161 20.9543 56.3651 19.2892 56.5182C18.4567 56.5947 17.7881 56.6585 17.3278 56.7031C17.0976 56.7254 16.9195 56.7429 16.799 56.7549L16.6159 56.7731ZM68.1811 56.3752L68.1407 56.7731C68.3605 56.7953 68.5568 56.6352 68.579 56.4154C68.6013 56.1956 68.4403 55.9993 68.2205 55.9771L68.1811 56.3752ZM16.1776 56.4154C16.1554 56.1956 16.3158 55.9994 16.5356 55.9772L16.5756 56.3752L16.6159 56.7731C16.3962 56.7953 16.1998 56.6352 16.1776 56.4154Z" fill="#808080"/>
<path d="M75.75 5.28573C75.75 5.28573 90.5436 1.15729 108.433 1.15729C126.323 1.15729 141.805 5.28573 141.805 5.28573V98.1756C141.805 98.1756 129.42 94.7353 108.433 94.7353C87.4472 94.7353 75.75 98.1756 75.75 98.1756V5.28573Z" fill="white"/>
<path fill-rule="evenodd" clip-rule="evenodd" d="M76 98.1058C75.8338 98.151 75.75 98.1756 75.75 98.1756V5.28573C75.75 5.28573 90.5436 1.15729 108.433 1.15729C126.323 1.15729 141.805 5.28573 141.805 5.28573V98.1756C141.805 98.1756 141.721 98.1523 141.555 98.1094C139.706 97.6322 127.691 94.7353 108.433 94.7353C89.2238 94.7353 77.7969 97.6178 76 98.1058ZM76 97.8469C76.0666 97.829 76.1434 97.8086 76.2305 97.7859C76.5939 97.6911 77.1354 97.5561 77.8504 97.3942C79.2803 97.0705 81.4039 96.6394 84.1836 96.2084C89.743 95.3465 97.9267 94.4853 108.433 94.4853C118.94 94.4853 127.296 95.3465 133.026 96.2082C135.892 96.6391 138.101 97.0701 139.595 97.3937C140.342 97.5555 140.91 97.6905 141.292 97.7851C141.393 97.8101 141.48 97.8322 141.555 97.8513V5.47905C141.438 5.44908 141.267 5.4058 141.045 5.35108C140.588 5.23859 139.916 5.07774 139.052 4.88463C137.325 4.49841 134.835 3.98324 131.786 3.46801C125.689 2.43741 117.36 1.40729 108.433 1.40729C99.5068 1.40729 91.3509 2.43738 85.4259 3.46781C82.4637 3.98297 80.0601 4.49805 78.3976 4.88418C77.5664 5.07723 76.9205 5.23804 76.4828 5.35047C76.2734 5.40427 76.1116 5.447 76 5.47688V97.8469Z" fill="black"/>
<path fill-rule="evenodd" clip-rule="evenodd" d="M82.6711 17.2949C82.671 17.2949 82.671 17.2949 82.6307 16.897C82.5905 16.499 82.5906 16.499 82.5907 16.499L82.7752 16.4806C82.8963 16.4686 83.075 16.451 83.3058 16.4286C83.7673 16.3839 84.4372 16.32 85.2712 16.2433C86.939 16.09 89.2631 15.8855 91.8887 15.6811C97.1364 15.2725 103.6 14.8628 108.433 14.8628C113.267 14.8628 119.731 15.2725 124.978 15.6811C127.604 15.8855 129.928 16.09 131.596 16.2433C132.43 16.32 133.1 16.3839 133.561 16.4286C133.792 16.451 133.971 16.4686 134.092 16.4806L134.276 16.4989C134.276 16.4989 134.276 16.499 134.236 16.897C134.196 17.2949 134.196 17.2949 134.196 17.2949L134.013 17.2767C133.892 17.2647 133.714 17.2472 133.484 17.2249C133.024 17.1803 132.355 17.1165 131.523 17.0399C129.858 16.8869 127.537 16.6828 124.916 16.4787C119.671 16.0702 113.233 15.6628 108.433 15.6628C103.634 15.6628 97.1961 16.0702 91.9508 16.4787C89.3298 16.6828 87.0094 16.8869 85.3444 17.0399C84.5119 17.1165 83.8433 17.1803 83.3829 17.2249C83.1528 17.2472 82.9746 17.2647 82.8541 17.2767L82.6711 17.2949ZM134.236 16.897L134.196 17.2949C134.416 17.3171 134.612 17.157 134.634 16.9372C134.656 16.7174 134.495 16.5211 134.276 16.4989L134.236 16.897ZM82.2328 16.9372C82.2106 16.7174 82.3709 16.5212 82.5907 16.499L82.6307 16.897L82.6711 17.2949C82.4513 17.3171 82.255 17.157 82.2328 16.9372Z" fill="#808080"/>
<path fill-rule="evenodd" clip-rule="evenodd" d="M82.6711 61.1596C82.671 61.1596 82.671 61.1596 82.6307 60.7617C82.5905 60.3637 82.5906 60.3637 82.5907 60.3637L82.7752 60.3452C82.8963 60.3333 83.075 60.3157 83.3058 60.2933C83.7673 60.2486 84.4372 60.1847 85.2712 60.108C86.939 59.9547 89.2631 59.7502 91.8887 59.5458C97.1364 59.1371 103.6 58.7275 108.433 58.7275C113.267 58.7275 119.731 59.1371 124.978 59.5458C127.604 59.7502 129.928 59.9547 131.596 60.108C132.43 60.1847 133.1 60.2486 133.561 60.2933C133.792 60.3157 133.971 60.3333 134.092 60.3452L134.276 60.3636C134.276 60.3636 134.276 60.3637 134.236 60.7617C134.196 61.1596 134.196 61.1596 134.196 61.1596L134.013 61.1414C133.892 61.1294 133.714 61.1119 133.484 61.0896C133.024 61.0449 132.355 60.9812 131.523 60.9046C129.858 60.7516 127.537 60.5475 124.916 60.3434C119.671 59.9349 113.233 59.5275 108.433 59.5275C103.634 59.5275 97.1961 59.9349 91.9508 60.3434C89.3298 60.5475 87.0094 60.7516 85.3444 60.9046C84.5119 60.9812 83.8433 61.0449 83.3829 61.0896C83.1528 61.1119 82.9746 61.1294 82.8541 61.1414L82.6711 61.1596ZM134.236 60.7617L134.196 61.1596C134.416 61.1818 134.612 61.0217 134.634 60.8019C134.656 60.5821 134.495 60.3858 134.276 60.3636L134.236 60.7617ZM82.2328 60.8019C82.2106 60.5821 82.3709 60.3859 82.5907 60.3637L82.6307 60.7617L82.6711 61.1596C82.4513 61.1818 82.255 61.0217 82.2328 60.8019Z" fill="#808080"/>
<path fill-rule="evenodd" clip-rule="evenodd" d="M82.6711 39.2272C82.671 39.2272 82.671 39.2273 82.6307 38.8293C82.5905 38.4313 82.5906 38.4313 82.5907 38.4313L82.7752 38.4129C82.8963 38.4009 83.075 38.3833 83.3058 38.3609C83.7673 38.3162 84.4372 38.2523 85.2712 38.1756C86.939 38.0223 89.2631 37.8178 91.8887 37.6134C97.1364 37.2048 103.6 36.7951 108.433 36.7951C113.267 36.7951 119.731 37.2048 124.978 37.6134C127.604 37.8178 129.928 38.0223 131.596 38.1756C132.43 38.2523 133.1 38.3162 133.561 38.3609C133.792 38.3833 133.971 38.4009 134.092 38.4129L134.276 38.4312C134.276 38.4312 134.276 38.4313 134.236 38.8293C134.196 39.2273 134.196 39.2272 134.196 39.2272L134.013 39.209C133.892 39.197 133.714 39.1795 133.484 39.1572C133.024 39.1126 132.355 39.0488 131.523 38.9723C129.858 38.8192 127.537 38.6151 124.916 38.411C119.671 38.0025 113.233 37.5951 108.433 37.5951C103.634 37.5951 97.1961 38.0025 91.9508 38.411C89.3298 38.6151 87.0094 38.8192 85.3444 38.9723C84.5119 39.0488 83.8433 39.1126 83.3829 39.1572C83.1528 39.1795 82.9746 39.197 82.8541 39.209L82.6711 39.2272ZM134.236 38.8293L134.196 39.2272C134.416 39.2494 134.612 39.0893 134.634 38.8695C134.656 38.6497 134.495 38.4534 134.276 38.4312L134.236 38.8293ZM82.2328 38.8695C82.2106 38.6497 82.3709 38.4535 82.5907 38.4313L82.6307 38.8293L82.6711 39.2272C82.4513 39.2494 82.255 39.0893 82.2328 38.8695Z" fill="#808080"/>
<path fill-rule="evenodd" clip-rule="evenodd" d="M82.6711 21.6813C82.671 21.6813 82.671 21.6814 82.6307 21.2834C82.5905 20.8854 82.5906 20.8854 82.5907 20.8854L82.7752 20.867C82.8963 20.855 83.075 20.8374 83.3058 20.815C83.7673 20.7703 84.4372 20.7064 85.2712 20.6297C86.939 20.4764 89.2631 20.2719 91.8887 20.0675C97.1364 19.6589 103.6 19.2492 108.433 19.2492C113.267 19.2492 119.731 19.6589 124.978 20.0675C127.604 20.2719 129.928 20.4764 131.596 20.6297C132.43 20.7064 133.1 20.7703 133.561 20.815C133.792 20.8374 133.971 20.855 134.092 20.867L134.276 20.8853C134.276 20.8853 134.276 20.8854 134.236 21.2834C134.196 21.6814 134.196 21.6813 134.196 21.6813L134.013 21.6631C133.892 21.6511 133.714 21.6336 133.484 21.6113C133.024 21.5667 132.355 21.5029 131.523 21.4264C129.858 21.2733 127.537 21.0692 124.916 20.8651C119.671 20.4566 113.233 20.0492 108.433 20.0492C103.634 20.0492 97.1961 20.4566 91.9508 20.8651C89.3298 21.0692 87.0094 21.2733 85.3444 21.4264C84.5119 21.5029 83.8433 21.5667 83.3829 21.6113C83.1528 21.6336 82.9746 21.6511 82.8541 21.6631L82.6711 21.6813ZM134.236 21.2834L134.196 21.6813C134.416 21.7036 134.612 21.5434 134.634 21.3236C134.656 21.1038 134.495 20.9075 134.276 20.8853L134.236 21.2834ZM82.2328 21.3236C82.2106 21.1038 82.3709 20.9076 82.5907 20.8854L82.6307 21.2834L82.6711 21.6813C82.4513 21.7036 82.255 21.5434 82.2328 21.3236Z" fill="#808080"/>
<path fill-rule="evenodd" clip-rule="evenodd" d="M82.6711 65.5461C82.671 65.5461 82.671 65.5461 82.6307 65.1481C82.5905 64.7502 82.5906 64.7501 82.5907 64.7501L82.7752 64.7317C82.8963 64.7197 83.075 64.7021 83.3058 64.6798C83.7673 64.635 84.4372 64.5711 85.2712 64.4945C86.939 64.3411 89.2631 64.1367 91.8887 63.9322C97.1364 63.5236 103.6 63.114 108.433 63.114C113.267 63.114 119.731 63.5236 124.978 63.9322C127.604 64.1367 129.928 64.3411 131.596 64.4945C132.43 64.5711 133.1 64.635 133.561 64.6798C133.792 64.7021 133.971 64.7197 134.092 64.7317L134.276 64.7501C134.276 64.7501 134.276 64.7502 134.236 65.1481C134.196 65.5461 134.196 65.5461 134.196 65.5461L134.013 65.5278C133.892 65.5159 133.714 65.4984 133.484 65.476C133.024 65.4314 132.355 65.3676 131.523 65.2911C129.858 65.138 127.537 64.9339 124.916 64.7298C119.671 64.3214 113.233 63.914 108.433 63.914C103.634 63.914 97.1961 64.3214 91.9508 64.7298C89.3298 64.9339 87.0094 65.138 85.3444 65.2911C84.5119 65.3676 83.8433 65.4314 83.3829 65.476C83.1528 65.4984 82.9746 65.5159 82.8541 65.5278L82.6711 65.5461ZM134.236 65.1481L134.196 65.5461C134.416 65.5683 134.612 65.4081 134.634 65.1883C134.656 64.9686 134.495 64.7723 134.276 64.7501L134.236 65.1481ZM82.2328 65.1883C82.2106 64.9686 82.3709 64.7723 82.5907 64.7501L82.6307 65.1481L82.6711 65.5461C82.4513 65.5683 82.255 65.4081 82.2328 65.1883Z" fill="#808080"/>
<path fill-rule="evenodd" clip-rule="evenodd" d="M82.6711 43.6137C82.671 43.6137 82.671 43.6137 82.6307 43.2158C82.5905 42.8178 82.5906 42.8178 82.5907 42.8178L82.7752 42.7994C82.8963 42.7874 83.075 42.7698 83.3058 42.7474C83.7673 42.7027 84.4372 42.6388 85.2712 42.5621C86.939 42.4088 89.2631 42.2043 91.8887 41.9999C97.1364 41.5912 103.6 41.1816 108.433 41.1816C113.267 41.1816 119.731 41.5912 124.978 41.9999C127.604 42.2043 129.928 42.4088 131.596 42.5621C132.43 42.6388 133.1 42.7027 133.561 42.7474C133.792 42.7698 133.971 42.7874 134.092 42.7994L134.276 42.8177C134.276 42.8177 134.276 42.8178 134.236 43.2158C134.196 43.6137 134.196 43.6137 134.196 43.6137L134.013 43.5955C133.892 43.5835 133.714 43.566 133.484 43.5437C133.024 43.499 132.355 43.4353 131.523 43.3587C129.858 43.2057 127.537 43.0016 124.916 42.7975C119.671 42.389 113.233 41.9816 108.433 41.9816C103.634 41.9816 97.1961 42.389 91.9508 42.7975C89.3298 43.0016 87.0094 43.2057 85.3444 43.3587C84.5119 43.4353 83.8433 43.499 83.3829 43.5437C83.1528 43.566 82.9746 43.5835 82.8541 43.5955L82.6711 43.6137ZM134.236 43.2158L134.196 43.6137C134.416 43.6359 134.612 43.4758 134.634 43.256C134.656 43.0362 134.495 42.8399 134.276 42.8177L134.236 43.2158ZM82.2328 43.256C82.2106 43.0362 82.3709 42.84 82.5907 42.8178L82.6307 43.2158L82.6711 43.6137C82.4513 43.6359 82.255 43.4758 82.2328 43.256Z" fill="#808080"/>
<path fill-rule="evenodd" clip-rule="evenodd" d="M82.6711 26.0678C82.671 26.0678 82.671 26.0678 82.6307 25.6699C82.5905 25.2719 82.5906 25.2719 82.5907 25.2719L82.7752 25.2535C82.8963 25.2415 83.075 25.2239 83.3058 25.2015C83.7673 25.1568 84.4372 25.0929 85.2712 25.0162C86.939 24.8629 89.2631 24.6584 91.8887 24.454C97.1364 24.0453 103.6 23.6357 108.433 23.6357C113.267 23.6357 119.731 24.0453 124.978 24.454C127.604 24.6584 129.928 24.8629 131.596 25.0162C132.43 25.0929 133.1 25.1568 133.561 25.2015C133.792 25.2239 133.971 25.2415 134.092 25.2535L134.276 25.2718C134.276 25.2718 134.276 25.2719 134.236 25.6699C134.196 26.0678 134.196 26.0678 134.196 26.0678L134.013 26.0496C133.892 26.0376 133.714 26.0201 133.484 25.9978C133.024 25.9531 132.355 25.8894 131.523 25.8128C129.858 25.6598 127.537 25.4557 124.916 25.2516C119.671 24.8431 113.233 24.4357 108.433 24.4357C103.634 24.4357 97.1961 24.8431 91.9508 25.2516C89.3298 25.4557 87.0094 25.6598 85.3444 25.8128C84.5119 25.8894 83.8433 25.9531 83.3829 25.9978C83.1528 26.0201 82.9746 26.0376 82.8541 26.0496L82.6711 26.0678ZM134.236 25.6699L134.196 26.0678C134.416 26.09 134.612 25.9299 134.634 25.7101C134.656 25.4903 134.495 25.294 134.276 25.2718L134.236 25.6699ZM82.2328 25.7101C82.2106 25.4903 82.3709 25.2941 82.5907 25.2719L82.6307 25.6699L82.6711 26.0678C82.4513 26.09 82.255 25.9299 82.2328 25.7101Z" fill="#808080"/>
<path fill-rule="evenodd" clip-rule="evenodd" d="M82.6711 69.9326C82.671 69.9326 82.671 69.9326 82.6307 69.5346C82.5905 69.1366 82.5906 69.1366 82.5907 69.1366L82.7752 69.1182C82.8963 69.1062 83.075 69.0886 83.3058 69.0662C83.7673 69.0215 84.4372 68.9576 85.2712 68.8809C86.939 68.7276 89.2631 68.5232 91.8887 68.3187C97.1364 67.9101 103.6 67.5004 108.433 67.5004C113.267 67.5004 119.731 67.9101 124.978 68.3187C127.604 68.5232 129.928 68.7276 131.596 68.8809C132.43 68.9576 133.1 69.0215 133.561 69.0662C133.792 69.0886 133.971 69.1062 134.092 69.1182L134.276 69.1365C134.276 69.1366 134.276 69.1366 134.236 69.5346C134.196 69.9326 134.196 69.9326 134.196 69.9326L134.013 69.9143C133.892 69.9024 133.714 69.8848 133.484 69.8625C133.024 69.8179 132.355 69.7541 131.523 69.6776C129.858 69.5245 127.537 69.3204 124.916 69.1163C119.671 68.7079 113.233 68.3004 108.433 68.3004C103.634 68.3004 97.1961 68.7079 91.9508 69.1163C89.3298 69.3204 87.0094 69.5245 85.3444 69.6776C84.5119 69.7541 83.8433 69.8179 83.3829 69.8625C83.1528 69.8848 82.9746 69.9024 82.8541 69.9143L82.6711 69.9326ZM134.236 69.5346L134.196 69.9326C134.416 69.9548 134.612 69.7946 134.634 69.5748C134.656 69.355 134.495 69.1588 134.276 69.1365L134.236 69.5346ZM82.2328 69.5748C82.2106 69.355 82.3709 69.1588 82.5907 69.1366L82.6307 69.5346L82.6711 69.9326C82.4513 69.9548 82.255 69.7946 82.2328 69.5748Z" fill="#808080"/>
<path fill-rule="evenodd" clip-rule="evenodd" d="M82.6711 48.0002C82.671 48.0002 82.671 48.0002 82.6307 47.6022C82.5905 47.2043 82.5906 47.2042 82.5907 47.2042L82.7752 47.1858C82.8963 47.1738 83.075 47.1562 83.3058 47.1339C83.7673 47.0891 84.4372 47.0252 85.2712 46.9486C86.939 46.7952 89.2631 46.5908 91.8887 46.3863C97.1364 45.9777 103.6 45.5681 108.433 45.5681C113.267 45.5681 119.731 45.9777 124.978 46.3863C127.604 46.5908 129.928 46.7952 131.596 46.9486C132.43 47.0252 133.1 47.0891 133.561 47.1339C133.792 47.1562 133.971 47.1738 134.092 47.1858L134.276 47.2042C134.276 47.2042 134.276 47.2043 134.236 47.6022C134.196 48.0002 134.196 48.0002 134.196 48.0002L134.013 47.9819C133.892 47.97 133.714 47.9525 133.484 47.9301C133.024 47.8855 132.355 47.8217 131.523 47.7452C129.858 47.5921 127.537 47.388 124.916 47.1839C119.671 46.7755 113.233 46.3681 108.433 46.3681C103.634 46.3681 97.1961 46.7755 91.9508 47.1839C89.3298 47.388 87.0094 47.5921 85.3444 47.7452C84.5119 47.8217 83.8433 47.8855 83.3829 47.9301C83.1528 47.9525 82.9746 47.97 82.8541 47.9819L82.6711 48.0002ZM134.236 47.6022L134.196 48.0002C134.416 48.0224 134.612 47.8622 134.634 47.6424C134.656 47.4227 134.495 47.2264 134.276 47.2042L134.236 47.6022ZM82.2328 47.6424C82.2106 47.4227 82.3709 47.2264 82.5907 47.2042L82.6307 47.6022L82.6711 48.0002C82.4513 48.0224 82.255 47.8622 82.2328 47.6424Z" fill="#808080"/>
<path fill-rule="evenodd" clip-rule="evenodd" d="M82.6711 30.4543C82.671 30.4543 82.671 30.4543 82.6307 30.0563C82.5905 29.6584 82.5906 29.6583 82.5907 29.6583L82.7752 29.6399C82.8963 29.6279 83.075 29.6103 83.3058 29.588C83.7673 29.5432 84.4372 29.4793 85.2712 29.4027C86.939 29.2493 89.2631 29.0449 91.8887 28.8405C97.1364 28.4318 103.6 28.0222 108.433 28.0222C113.267 28.0222 119.731 28.4318 124.978 28.8405C127.604 29.0449 129.928 29.2493 131.596 29.4027C132.43 29.4793 133.1 29.5432 133.561 29.588C133.792 29.6103 133.971 29.6279 134.092 29.6399L134.276 29.6583C134.276 29.6583 134.276 29.6584 134.236 30.0563C134.196 30.4543 134.196 30.4543 134.196 30.4543L134.013 30.436C133.892 30.4241 133.714 30.4066 133.484 30.3842C133.024 30.3396 132.355 30.2758 131.523 30.1993C129.858 30.0462 127.537 29.8421 124.916 29.638C119.671 29.2296 113.233 28.8222 108.433 28.8222C103.634 28.8222 97.1961 29.2296 91.9508 29.638C89.3298 29.8421 87.0094 30.0462 85.3444 30.1993C84.5119 30.2758 83.8433 30.3396 83.3829 30.3842C83.1528 30.4066 82.9746 30.4241 82.8541 30.436L82.6711 30.4543ZM134.236 30.0563L134.196 30.4543C134.416 30.4765 134.612 30.3163 134.634 30.0966C134.656 29.8768 134.495 29.6805 134.276 29.6583L134.236 30.0563ZM82.2328 30.0966C82.2106 29.8768 82.3709 29.6805 82.5907 29.6583L82.6307 30.0563L82.6711 30.4543C82.4513 30.4765 82.255 30.3163 82.2328 30.0966Z" fill="#808080"/>
<path fill-rule="evenodd" clip-rule="evenodd" d="M82.6711 74.319C82.671 74.319 82.671 74.319 82.6307 73.9211C82.5905 73.5231 82.5906 73.5231 82.5907 73.5231L82.7752 73.5047C82.8963 73.4927 83.075 73.4751 83.3058 73.4527C83.7673 73.408 84.4372 73.3441 85.2712 73.2674C86.939 73.1141 89.2631 72.9096 91.8887 72.7052C97.1364 72.2966 103.6 71.8869 108.433 71.8869C113.267 71.8869 119.731 72.2966 124.978 72.7052C127.604 72.9096 129.928 73.1141 131.596 73.2674C132.43 73.3441 133.1 73.408 133.561 73.4527C133.792 73.4751 133.971 73.4927 134.092 73.5047L134.276 73.523C134.276 73.523 134.276 73.5231 134.236 73.9211C134.196 74.319 134.196 74.319 134.196 74.319L134.013 74.3008C133.892 74.2888 133.714 74.2713 133.484 74.249C133.024 74.2044 132.355 74.1406 131.523 74.0641C129.858 73.911 127.537 73.7069 124.916 73.5028C119.671 73.0943 113.233 72.6869 108.433 72.6869C103.634 72.6869 97.1961 73.0943 91.9508 73.5028C89.3298 73.7069 87.0094 73.911 85.3444 74.0641C84.5119 74.1406 83.8433 74.2044 83.3829 74.249C83.1528 74.2713 82.9746 74.2888 82.8541 74.3008L82.6711 74.319ZM134.236 73.9211L134.196 74.319C134.416 74.3412 134.612 74.1811 134.634 73.9613C134.656 73.7415 134.495 73.5452 134.276 73.523L134.236 73.9211ZM82.2328 73.9613C82.2106 73.7415 82.3709 73.5453 82.5907 73.5231L82.6307 73.9211L82.6711 74.319C82.4513 74.3412 82.255 74.1811 82.2328 73.9613Z" fill="#808080"/>
<path fill-rule="evenodd" clip-rule="evenodd" d="M82.6711 90.5748C82.671 90.5748 82.671 90.5748 82.6307 90.1768C82.5905 89.7788 82.5906 89.7788 82.5907 89.7788L82.7752 89.7604C82.8963 89.7484 83.075 89.7308 83.3058 89.7085C83.7673 89.6637 84.4372 89.5998 85.2712 89.5232C86.939 89.3698 89.2631 89.1654 91.8887 88.9609C97.1364 88.5523 103.6 88.1426 108.433 88.1426C113.267 88.1426 119.731 88.5523 124.978 88.9609C127.604 89.1654 129.928 89.3698 131.596 89.5232C132.43 89.5998 133.1 89.6637 133.561 89.7085C133.792 89.7308 133.971 89.7484 134.092 89.7604L134.276 89.7788C134.276 89.7788 134.276 89.7788 134.236 90.1768C134.196 90.5748 134.196 90.5748 134.196 90.5748L134.013 90.5565C133.892 90.5446 133.714 90.527 133.484 90.5047C133.024 90.4601 132.355 90.3963 131.523 90.3198C129.858 90.1667 127.537 89.9626 124.916 89.7585C119.671 89.3501 113.233 88.9426 108.433 88.9426C103.634 88.9426 97.1961 89.3501 91.9508 89.7585C89.3298 89.9626 87.0094 90.1667 85.3444 90.3198C84.5119 90.3963 83.8433 90.4601 83.3829 90.5047C83.1528 90.527 82.9746 90.5446 82.8541 90.5565L82.6711 90.5748ZM134.236 90.1768L134.196 90.5748C134.416 90.597 134.612 90.4368 134.634 90.217C134.656 89.9972 134.495 89.801 134.276 89.7788L134.236 90.1768ZM82.2328 90.217C82.2106 89.9972 82.3709 89.801 82.5907 89.7788L82.6307 90.1768L82.6711 90.5748C82.4513 90.597 82.255 90.4368 82.2328 90.217Z" fill="#808080"/>
<path fill-rule="evenodd" clip-rule="evenodd" d="M82.6711 52.3867C82.671 52.3867 82.671 52.3867 82.6307 51.9887C82.5905 51.5907 82.5906 51.5907 82.5907 51.5907L82.7752 51.5723C82.8963 51.5603 83.075 51.5427 83.3058 51.5204C83.7673 51.4756 84.4372 51.4117 85.2712 51.335C86.939 51.1817 89.2631 50.9773 91.8887 50.7728C97.1364 50.3642 103.6 49.9545 108.433 49.9545C113.267 49.9545 119.731 50.3642 124.978 50.7728C127.604 50.9773 129.928 51.1817 131.596 51.335C132.43 51.4117 133.1 51.4756 133.561 51.5204C133.792 51.5427 133.971 51.5603 134.092 51.5723L134.276 51.5907C134.276 51.5907 134.276 51.5907 134.236 51.9887C134.196 52.3867 134.196 52.3867 134.196 52.3867L134.013 52.3684C133.892 52.3565 133.714 52.3389 133.484 52.3166C133.024 52.272 132.355 52.2082 131.523 52.1317C129.858 51.9786 127.537 51.7745 124.916 51.5704C119.671 51.162 113.233 50.7545 108.433 50.7545C103.634 50.7545 97.1961 51.162 91.9508 51.5704C89.3298 51.7745 87.0094 51.9786 85.3444 52.1317C84.5119 52.2082 83.8433 52.272 83.3829 52.3166C83.1528 52.3389 82.9746 52.3565 82.8541 52.3684L82.6711 52.3867ZM134.236 51.9887L134.196 52.3867C134.416 52.4089 134.612 52.2487 134.634 52.0289C134.656 51.8091 134.495 51.6129 134.276 51.5907L134.236 51.9887ZM82.2328 52.0289C82.2106 51.8091 82.3709 51.6129 82.5907 51.5907L82.6307 51.9887L82.6711 52.3867C82.4513 52.4089 82.255 52.2487 82.2328 52.0289Z" fill="#808080"/>
<path fill-rule="evenodd" clip-rule="evenodd" d="M82.6711 34.8408C82.671 34.8408 82.671 34.8408 82.6307 34.4428C82.5905 34.0448 82.5906 34.0448 82.5907 34.0448L82.7752 34.0264C82.8963 34.0144 83.075 33.9968 83.3058 33.9745C83.7673 33.9297 84.4372 33.8658 85.2712 33.7891C86.939 33.6358 89.2631 33.4314 91.8887 33.2269C97.1364 32.8183 103.6 32.4086 108.433 32.4086C113.267 32.4086 119.731 32.8183 124.978 33.2269C127.604 33.4314 129.928 33.6358 131.596 33.7891C132.43 33.8658 133.1 33.9297 133.561 33.9745C133.792 33.9968 133.971 34.0144 134.092 34.0264L134.276 34.0448C134.276 34.0448 134.276 34.0448 134.236 34.4428C134.196 34.8408 134.196 34.8408 134.196 34.8408L134.013 34.8225C133.892 34.8106 133.714 34.793 133.484 34.7707C133.024 34.7261 132.355 34.6623 131.523 34.5858C129.858 34.4327 127.537 34.2286 124.916 34.0245C119.671 33.6161 113.233 33.2086 108.433 33.2086C103.634 33.2086 97.1961 33.6161 91.9508 34.0245C89.3298 34.2286 87.0094 34.4327 85.3444 34.5858C84.5119 34.6623 83.8433 34.7261 83.3829 34.7707C83.1528 34.793 82.9746 34.8106 82.8541 34.8225L82.6711 34.8408ZM134.236 34.4428L134.196 34.8408C134.416 34.863 134.612 34.7028 134.634 34.483C134.656 34.2632 134.495 34.067 134.276 34.0448L134.236 34.4428ZM82.2328 34.483C82.2106 34.2632 82.3709 34.067 82.5907 34.0448L82.6307 34.4428L82.6711 34.8408C82.4513 34.863 82.255 34.7028 82.2328 34.483Z" fill="#808080"/>
<path fill-rule="evenodd" clip-rule="evenodd" d="M82.6711 78.7055C82.671 78.7055 82.671 78.7055 82.6307 78.3076C82.5905 77.9096 82.5906 77.9096 82.5907 77.9096L82.7752 77.8911C82.8963 77.8792 83.075 77.8616 83.3058 77.8392C83.7673 77.7945 84.4372 77.7306 85.2712 77.6539C86.939 77.5006 89.2631 77.2961 91.8887 77.0917C97.1364 76.683 103.6 76.2734 108.433 76.2734C113.267 76.2734 119.731 76.683 124.978 77.0917C127.604 77.2961 129.928 77.5006 131.596 77.6539C132.43 77.7306 133.1 77.7945 133.561 77.8392C133.792 77.8616 133.971 77.8792 134.092 77.8911L134.276 77.9095C134.276 77.9095 134.276 77.9096 134.236 78.3076C134.196 78.7055 134.196 78.7055 134.196 78.7055L134.013 78.6872C133.892 78.6753 133.714 78.6578 133.484 78.6355C133.024 78.5908 132.355 78.5271 131.523 78.4505C129.858 78.2975 127.537 78.0934 124.916 77.8893C119.671 77.4808 113.233 77.0734 108.433 77.0734C103.634 77.0734 97.1961 77.4808 91.9508 77.8893C89.3298 78.0934 87.0094 78.2975 85.3444 78.4505C84.5119 78.5271 83.8433 78.5908 83.3829 78.6355C83.1528 78.6578 82.9746 78.6753 82.8541 78.6872L82.6711 78.7055ZM134.236 78.3076L134.196 78.7055C134.416 78.7277 134.612 78.5676 134.634 78.3478C134.656 78.128 134.495 77.9317 134.276 77.9095L134.236 78.3076ZM82.2328 78.3478C82.2106 78.128 82.3709 77.9318 82.5907 77.9096L82.6307 78.3076L82.6711 78.7055C82.4513 78.7277 82.255 78.5676 82.2328 78.3478Z" fill="#808080"/>
<path fill-rule="evenodd" clip-rule="evenodd" d="M82.6711 83.0059C82.671 83.0059 82.671 83.0059 82.6307 82.608C82.5905 82.21 82.5906 82.21 82.5907 82.21L82.7752 82.1916C82.8963 82.1796 83.075 82.162 83.3058 82.1396C83.7673 82.0949 84.4372 82.031 85.2712 81.9543C86.939 81.801 89.2631 81.5965 91.8887 81.3921C97.1364 80.9834 103.6 80.5738 108.433 80.5738C113.267 80.5738 119.731 80.9834 124.978 81.3921C127.604 81.5965 129.928 81.801 131.596 81.9543C132.43 82.031 133.1 82.0949 133.561 82.1396C133.792 82.162 133.971 82.1796 134.092 82.1916L134.276 82.2099C134.276 82.2099 134.276 82.21 134.236 82.608C134.196 83.0059 134.196 83.0059 134.196 83.0059L134.013 82.9877C133.892 82.9757 133.714 82.9582 133.484 82.9359C133.024 82.8913 132.355 82.8275 131.523 82.7509C129.858 82.5979 127.537 82.3938 124.916 82.1897C119.671 81.7812 113.233 81.3738 108.433 81.3738C103.634 81.3738 97.1961 81.7812 91.9508 82.1897C89.3298 82.3938 87.0094 82.5979 85.3444 82.7509C84.5119 82.8275 83.8433 82.8913 83.3829 82.9359C83.1528 82.9582 82.9746 82.9757 82.8541 82.9877L82.6711 83.0059ZM134.236 82.608L134.196 83.0059C134.416 83.0281 134.612 82.868 134.634 82.6482C134.656 82.4284 134.495 82.2321 134.276 82.2099L134.236 82.608ZM82.2328 82.6482C82.2106 82.4284 82.3709 82.2322 82.5907 82.21L82.6307 82.608L82.6711 83.0059C82.4513 83.0281 82.255 82.868 82.2328 82.6482Z" fill="#808080"/>
<path fill-rule="evenodd" clip-rule="evenodd" d="M82.6711 93.327C82.671 93.327 82.671 93.327 82.6307 92.9291C82.5905 92.5311 82.5906 92.5311 82.5907 92.5311L82.7752 92.5127C82.8963 92.5007 83.075 92.4831 83.3058 92.4607C83.7673 92.416 84.4372 92.3521 85.2712 92.2754C86.939 92.1221 89.2631 91.9176 91.8887 91.7132C97.1364 91.3046 103.6 90.8949 108.433 90.8949C108.654 90.8949 108.833 91.074 108.833 91.2949C108.833 91.5158 108.654 91.6949 108.433 91.6949C103.634 91.6949 97.1961 92.1023 91.9508 92.5108C89.3298 92.7149 87.0094 92.919 85.3444 93.0721C84.5119 93.1486 83.8433 93.2124 83.3829 93.257C83.1528 93.2793 82.9746 93.2968 82.8541 93.3088L82.6711 93.327ZM82.2328 92.9693C82.2106 92.7495 82.3709 92.5533 82.5907 92.5311L82.6307 92.9291L82.6711 93.327C82.4513 93.3492 82.255 93.1891 82.2328 92.9693Z" fill="#808080"/>
<path fill-rule="evenodd" clip-rule="evenodd" d="M82.6711 56.7731C82.671 56.7731 82.671 56.7732 82.6307 56.3752C82.5905 55.9772 82.5906 55.9772 82.5907 55.9772L82.7752 55.9588C82.8963 55.9468 83.075 55.9292 83.3058 55.9068C83.7673 55.8621 84.4372 55.7982 85.2712 55.7215C86.939 55.5682 89.2631 55.3637 91.8887 55.1593C97.1364 54.7507 103.6 54.341 108.433 54.341C113.267 54.341 119.731 54.7507 124.978 55.1593C127.604 55.3637 129.928 55.5682 131.596 55.7215C132.43 55.7982 133.1 55.8621 133.561 55.9068C133.792 55.9292 133.971 55.9468 134.092 55.9588L134.276 55.9771C134.276 55.9771 134.276 55.9772 134.236 56.3752C134.196 56.7732 134.196 56.7731 134.196 56.7731L134.013 56.7549C133.892 56.7429 133.714 56.7254 133.484 56.7031C133.024 56.6585 132.355 56.5947 131.523 56.5182C129.858 56.3651 127.537 56.161 124.916 55.9569C119.671 55.5484 113.233 55.141 108.433 55.141C103.634 55.141 97.1961 55.5484 91.9508 55.9569C89.3298 56.161 87.0094 56.3651 85.3444 56.5182C84.5119 56.5947 83.8433 56.6585 83.3829 56.7031C83.1528 56.7254 82.9746 56.7429 82.8541 56.7549L82.6711 56.7731ZM134.236 56.3752L134.196 56.7731C134.416 56.7953 134.612 56.6352 134.634 56.4154C134.656 56.1956 134.495 55.9993 134.276 55.9771L134.236 56.3752ZM82.2328 56.4154C82.2106 56.1956 82.3709 55.9994 82.5907 55.9772L82.6307 56.3752L82.6711 56.7731C82.4513 56.7953 82.255 56.6352 82.2328 56.4154Z" fill="#808080"/>
<path fill-rule="evenodd" clip-rule="evenodd" d="M16.6159 39.2272C16.6158 39.2272 16.6158 39.2273 16.5756 38.8293C16.5353 38.4313 16.5354 38.4313 16.5356 38.4313L16.7201 38.4129C16.8411 38.4009 17.0198 38.3833 17.2506 38.3609C17.7121 38.3162 18.382 38.2523 19.216 38.1756C20.8838 38.0223 23.2079 37.8178 25.8335 37.6134C31.0813 37.2048 37.5452 36.7951 42.3783 36.7951C47.2115 36.7951 53.6754 37.2048 58.9231 37.6134C61.5487 37.8178 63.8728 38.0223 65.5407 38.1756C66.3746 38.2523 67.0445 38.3162 67.5061 38.3609C67.7368 38.3833 67.9155 38.4009 68.0366 38.4129L68.2205 38.4312C68.2206 38.4312 68.2213 38.4313 68.1811 38.8293C68.1409 39.2273 68.1408 39.2272 68.1407 39.2272L67.9577 39.209C67.8372 39.197 67.659 39.1795 67.4289 39.1572C66.9685 39.1126 66.2999 39.0488 65.4674 38.9723C63.8024 38.8192 61.482 38.6151 58.861 38.411C53.6157 38.0025 47.1782 37.5951 42.3783 37.5951C37.5785 37.5951 31.141 38.0025 25.8956 38.411C23.2746 38.6151 20.9543 38.8192 19.2892 38.9723C18.4567 39.0488 17.7881 39.1126 17.3278 39.1572C17.0976 39.1795 16.9195 39.197 16.799 39.209L16.6159 39.2272ZM68.1811 38.8293L68.1407 39.2272C68.3605 39.2494 68.5568 39.0893 68.579 38.8695C68.6013 38.6497 68.4403 38.4534 68.2205 38.4312L68.1811 38.8293ZM16.1776 38.8695C16.1554 38.6497 16.3158 38.4535 16.5356 38.4313L16.5756 38.8293L16.6159 39.2272C16.3962 39.2494 16.1998 39.0893 16.1776 38.8695Z" fill="black"/>
<path fill-rule="evenodd" clip-rule="evenodd" d="M16.6159 21.6813C16.6158 21.6813 16.6158 21.6814 16.5756 21.2834C16.5353 20.8854 16.5354 20.8854 16.5356 20.8854L16.7201 20.867C16.8411 20.855 17.0198 20.8374 17.2506 20.815C17.7121 20.7703 18.382 20.7064 19.216 20.6297C20.8838 20.4764 23.2079 20.2719 25.8335 20.0675C31.0813 19.6589 37.5452 19.2492 42.3783 19.2492C47.2115 19.2492 53.6754 19.6589 58.9231 20.0675C61.5487 20.2719 63.8728 20.4764 65.5407 20.6297C66.3746 20.7064 67.0445 20.7703 67.5061 20.815C67.7368 20.8374 67.9155 20.855 68.0366 20.867L68.2205 20.8853C68.2206 20.8853 68.2213 20.8854 68.1811 21.2834C68.1409 21.6814 68.1408 21.6813 68.1407 21.6813L67.9577 21.6631C67.8372 21.6511 67.659 21.6336 67.4289 21.6113C66.9685 21.5667 66.2999 21.5029 65.4674 21.4264C63.8024 21.2733 61.482 21.0692 58.861 20.8651C53.6157 20.4566 47.1782 20.0492 42.3783 20.0492C37.5785 20.0492 31.141 20.4566 25.8956 20.8651C23.2746 21.0692 20.9543 21.2733 19.2892 21.4264C18.4567 21.5029 17.7881 21.5667 17.3278 21.6113C17.0976 21.6336 16.9195 21.6511 16.799 21.6631L16.6159 21.6813ZM68.1811 21.2834L68.1407 21.6813C68.3605 21.7036 68.5568 21.5434 68.579 21.3236C68.6013 21.1038 68.4403 20.9075 68.2205 20.8853L68.1811 21.2834ZM16.1776 21.3236C16.1554 21.1038 16.3158 20.9076 16.5356 20.8854L16.5756 21.2834L16.6159 21.6813C16.3962 21.7036 16.1998 21.5434 16.1776 21.3236Z" fill="black"/>
<path fill-rule="evenodd" clip-rule="evenodd" d="M16.6159 26.0678C16.6158 26.0678 16.6158 26.0678 16.5756 25.6699C16.5353 25.2719 16.5354 25.2719 16.5356 25.2719L16.7201 25.2535C16.8411 25.2415 17.0198 25.2239 17.2506 25.2015C17.7121 25.1568 18.382 25.0929 19.216 25.0162C20.8838 24.8629 23.2079 24.6584 25.8335 24.454C31.0813 24.0453 37.5452 23.6357 42.3783 23.6357C47.2115 23.6357 53.6754 24.0453 58.9231 24.454C61.5487 24.6584 63.8728 24.8629 65.5407 25.0162C66.3746 25.0929 67.0445 25.1568 67.5061 25.2015C67.7368 25.2239 67.9155 25.2415 68.0366 25.2535L68.2205 25.2718C68.2206 25.2718 68.2213 25.2719 68.1811 25.6699C68.1409 26.0678 68.1408 26.0678 68.1407 26.0678L67.9577 26.0496C67.8372 26.0376 67.659 26.0201 67.4289 25.9978C66.9685 25.9531 66.2999 25.8894 65.4674 25.8128C63.8024 25.6598 61.482 25.4557 58.861 25.2516C53.6157 24.8431 47.1782 24.4357 42.3783 24.4357C37.5785 24.4357 31.141 24.8431 25.8956 25.2516C23.2746 25.4557 20.9543 25.6598 19.2892 25.8128C18.4567 25.8894 17.7881 25.9531 17.3278 25.9978C17.0976 26.0201 16.9195 26.0376 16.799 26.0496L16.6159 26.0678ZM68.1811 25.6699L68.1407 26.0678C68.3605 26.09 68.5568 25.9299 68.579 25.7101C68.6013 25.4903 68.4403 25.294 68.2205 25.2718L68.1811 25.6699ZM16.1776 25.7101C16.1554 25.4903 16.3158 25.2941 16.5356 25.2719L16.5756 25.6699L16.6159 26.0678C16.3962 26.09 16.1998 25.9299 16.1776 25.7101Z" fill="black"/>
<path fill-rule="evenodd" clip-rule="evenodd" d="M16.6159 30.4543C16.6158 30.4543 16.6158 30.4543 16.5756 30.0563C16.5353 29.6584 16.5354 29.6583 16.5356 29.6583L16.7201 29.6399C16.8411 29.6279 17.0198 29.6103 17.2506 29.588C17.7121 29.5432 18.382 29.4793 19.216 29.4027C20.8838 29.2493 23.2079 29.0449 25.8335 28.8405C31.0813 28.4318 37.5452 28.0222 42.3783 28.0222C47.2115 28.0222 53.6754 28.4318 58.9231 28.8405C61.5487 29.0449 63.8728 29.2493 65.5407 29.4027C66.3746 29.4793 67.0445 29.5432 67.5061 29.588C67.7368 29.6103 67.9155 29.6279 68.0366 29.6399L68.2205 29.6583C68.2206 29.6583 68.2213 29.6584 68.1811 30.0563C68.1409 30.4543 68.1408 30.4543 68.1407 30.4543L67.9577 30.436C67.8372 30.4241 67.659 30.4066 67.4289 30.3842C66.9685 30.3396 66.2999 30.2758 65.4674 30.1993C63.8024 30.0462 61.482 29.8421 58.861 29.638C53.6157 29.2296 47.1782 28.8222 42.3783 28.8222C37.5785 28.8222 31.141 29.2296 25.8956 29.638C23.2746 29.8421 20.9543 30.0462 19.2892 30.1993C18.4567 30.2758 17.7881 30.3396 17.3278 30.3842C17.0976 30.4066 16.9195 30.4241 16.799 30.436L16.6159 30.4543ZM68.1811 30.0563L68.1407 30.4543C68.3605 30.4765 68.5568 30.3163 68.579 30.0966C68.6013 29.8768 68.4403 29.6805 68.2205 29.6583L68.1811 30.0563ZM16.1776 30.0966C16.1554 29.8768 16.3158 29.6805 16.5356 29.6583L16.5756 30.0563L16.6159 30.4543C16.3962 30.4765 16.1998 30.3163 16.1776 30.0966Z" fill="black"/>
<path fill-rule="evenodd" clip-rule="evenodd" d="M16.6159 34.8408C16.6158 34.8408 16.6158 34.8408 16.5756 34.4428C16.5353 34.0448 16.5354 34.0448 16.5356 34.0448L16.7201 34.0264C16.8411 34.0144 17.0198 33.9968 17.2506 33.9745C17.7121 33.9297 18.382 33.8658 19.216 33.7891C20.8838 33.6358 23.2079 33.4314 25.8335 33.2269C31.0813 32.8183 37.5452 32.4086 42.3783 32.4086C47.2115 32.4086 53.6754 32.8183 58.9231 33.2269C61.5487 33.4314 63.8728 33.6358 65.5407 33.7891C66.3746 33.8658 67.0445 33.9297 67.5061 33.9745C67.7368 33.9968 67.9155 34.0144 68.0366 34.0264L68.2205 34.0448C68.2206 34.0448 68.2213 34.0448 68.1811 34.4428C68.1409 34.8408 68.1408 34.8408 68.1407 34.8408L67.9577 34.8225C67.8372 34.8106 67.659 34.793 67.4289 34.7707C66.9685 34.7261 66.2999 34.6623 65.4674 34.5858C63.8024 34.4327 61.482 34.2286 58.861 34.0245C53.6157 33.6161 47.1782 33.2086 42.3783 33.2086C37.5785 33.2086 31.141 33.6161 25.8956 34.0245C23.2746 34.2286 20.9543 34.4327 19.2892 34.5858C18.4567 34.6623 17.7881 34.7261 17.3278 34.7707C17.0976 34.793 16.9195 34.8106 16.799 34.8225L16.6159 34.8408ZM68.1811 34.4428L68.1407 34.8408C68.3605 34.863 68.5568 34.7028 68.579 34.483C68.6013 34.2632 68.4403 34.067 68.2205 34.0448L68.1811 34.4428ZM16.1776 34.483C16.1554 34.2632 16.3158 34.067 16.5356 34.0448L16.5756 34.4428L16.6159 34.8408C16.3962 34.863 16.1998 34.7028 16.1776 34.483Z" fill="black"/>
<path fill-rule="evenodd" clip-rule="evenodd" d="M16.6159 17.2949C16.6158 17.2949 16.6158 17.2949 16.5756 16.897C16.5353 16.499 16.5354 16.499 16.5356 16.499L16.7201 16.4806C16.8411 16.4686 17.0198 16.451 17.2506 16.4286C17.7121 16.3839 18.382 16.32 19.216 16.2433C20.8838 16.09 23.2079 15.8855 25.8335 15.6811C31.0813 15.2725 37.5452 14.8628 42.3783 14.8628C47.2115 14.8628 53.6754 15.2725 58.9231 15.6811C61.5487 15.8855 63.8728 16.09 65.5407 16.2433C66.3746 16.32 67.0445 16.3839 67.5061 16.4286C67.7368 16.451 67.9155 16.4686 68.0366 16.4806L68.2205 16.4989C68.2206 16.4989 68.2213 16.499 68.1811 16.897C68.1409 17.2949 68.1408 17.2949 68.1407 17.2949L67.9577 17.2767C67.8372 17.2647 67.659 17.2472 67.4289 17.2249C66.9685 17.1803 66.2999 17.1165 65.4674 17.0399C63.8024 16.8869 61.482 16.6828 58.861 16.4787C53.6157 16.0702 47.1782 15.6628 42.3783 15.6628C37.5785 15.6628 31.141 16.0702 25.8956 16.4787C23.2746 16.6828 20.9543 16.8869 19.2892 17.0399C18.4567 17.1165 17.7881 17.1803 17.3278 17.2249C17.0976 17.2472 16.9195 17.2647 16.799 17.2767L16.6159 17.2949ZM68.1811 16.897L68.1407 17.2949C68.3605 17.3171 68.5568 17.157 68.579 16.9372C68.6013 16.7174 68.4403 16.5211 68.2205 16.4989L68.1811 16.897ZM16.1776 16.9372C16.1554 16.7174 16.3158 16.5212 16.5356 16.499L16.5756 16.897L16.6159 17.2949C16.3962 17.3171 16.1998 17.157 16.1776 16.9372Z" fill="black"/>
</svg>
