<svg id="Layer_1" data-name="Layer 1" xmlns="http://www.w3.org/2000/svg" xmlns:xlink="http://www.w3.org/1999/xlink" viewBox="0 0 30 30"><defs><style>.cls-1{fill:none;clip-rule:evenodd;}.cls-2{clip-path:url(#clip-path);}.cls-3{fill:#fff;}</style><clipPath id="clip-path"><path class="cls-1" d="M6.1,25A1.1,1.1,0,0,1,5,23.9V6.1A1.1,1.1,0,0,1,6.1,5H23.9A1.1,1.1,0,0,1,25,6.1V23.9A1.1,1.1,0,0,1,23.9,25H18.8V17.25h2.6l.39-3h-3V12.31c0-.87.24-1.47,1.5-1.47h1.59V8.14A20.26,20.26,0,0,0,19.56,8a3.64,3.64,0,0,0-3.88,4v2.23h-2.6v3h2.6V25Z"/></clipPath></defs><title>Facebook – Footer Icon</title><g class="cls-2"><rect class="cls-3" width="30" height="30"/></g></svg>