<svg id="Layer_1" data-name="Layer 1" xmlns="http://www.w3.org/2000/svg" xmlns:xlink="http://www.w3.org/1999/xlink" viewBox="0 0 30.06 30.05"><defs><style>.cls-1{fill:none;}.cls-2{clip-path:url(#clip-path);}.cls-3{fill:#fff;}</style><clipPath id="clip-path"><path class="cls-1" d="M15.06,12.05a3,3,0,1,0,3,3A3,3,0,0,0,15.06,12.05Zm0-2a5,5,0,1,1-5,5A5,5,0,0,1,15.06,10.05Zm5.25-1.5A1.25,1.25,0,1,1,19.06,9.8,1.25,1.25,0,0,1,20.31,8.55Zm-9.65-1.5a3.6,3.6,0,0,0-3.6,3.6v8.8a3.6,3.6,0,0,0,3.6,3.6h8.8a3.6,3.6,0,0,0,3.6-3.6v-8.8a3.6,3.6,0,0,0-3.6-3.6Zm.2-2h8.4a5.8,5.8,0,0,1,5.8,5.8v8.4a5.8,5.8,0,0,1-5.8,5.8h-8.4a5.8,5.8,0,0,1-5.8-5.8v-8.4A5.8,5.8,0,0,1,10.86,5.05Z"/></clipPath></defs><title>Instagram – Footer Icon</title><g class="cls-2"><rect class="cls-3" x="0.06" y="0.05" width="30" height="30"/></g></svg>