<?xml version="1.0" encoding="UTF-8"?>
<svg width="60px" height="41px" viewBox="0 0 60 41" version="1.1" xmlns="http://www.w3.org/2000/svg" xmlns:xlink="http://www.w3.org/1999/xlink">
    <!-- Generator: Sketch 61.2 (89653) - https://sketch.com -->
    <title>multiversion-icon-v2a-revised</title>
    <desc>Created with Sketch.</desc>
    <g id="Page-1" stroke="none" stroke-width="1" fill="none" fill-rule="evenodd">
        <g id="CollectionFilters_Desktop_V3-Copy-19" transform="translate(-223.000000, -1055.000000)">
            <g id="multiversion-icon-v2a-revised" transform="translate(224.000000, 1056.000000)">
                <g id="Path">
                    <g>
                        <path d="M4.57894737,30.0613077 L52.6578947,30 C52.6578947,30 51.8858079,32.6933077 51.8881737,34.6163846 C51.8906158,36.5394615 52.6694184,39.2307692 52.6694184,39.2307692 L4.59053211,39.2920769 L4.57894737,30.0613077 Z" fill="#C6C6C6" fill-rule="nonzero"></path>
                        <path d="M52.6578947,30 L4.57894737,30 L4.57894737,39.2307692 L52.6578947,39.2307692 C52.6578947,39.2307692 52.3797237,38.2648462 52.1565763,37.0769231 L52.1510816,37.0769231 L52.1257447,37.0769231 L52.1004079,37.0769231 L52.0750711,37.0769231 L52.0497342,37.0769231 L52.0243974,37.0769231 L51.9990605,37.0769231 L51.9737237,37.0769231 L51.9483868,37.0769231 L51.92305,37.0769231 L51.8977132,37.0769231 L51.8723763,37.0769231 L51.8470395,37.0769231 L51.8217026,37.0769231 L51.7963658,37.0769231 L51.7710289,37.0769231 L51.7456921,37.0769231 L51.7203553,37.0769231 L51.6950184,37.0769231 L51.6696816,37.0769231 L51.6443447,37.0769231 L51.6190079,37.0769231 L51.5936711,37.0769231 L51.5683342,37.0769231 L51.5429974,37.0769231 L51.5176605,37.0769231 L51.4923237,37.0769231 L51.4669868,37.0769231 L51.4415737,37.0769231 L51.4162368,37.0769231 L51.3909,37.0769231 L51.3655632,37.0769231 L51.3402263,37.0769231 L51.3148895,37.0769231 L51.2895526,37.0769231 L51.2642158,37.0769231 L51.2388789,37.0769231 L51.2135421,37.0769231 L51.1882053,37.0769231 L51.1628684,37.0769231 L51.1375316,37.0769231 L51.1121947,37.0769231 L51.0868579,37.0769231 L51.0615211,37.0769231 L51.0361842,37.0769231 L51.0108474,37.0769231 L50.9855105,37.0769231 L50.9601737,37.0769231 L50.9348368,37.0769231 L50.9095,37.0769231 L50.8841632,37.0769231 L50.8588263,37.0769231 L50.8334895,37.0769231 L50.8081526,37.0769231 L50.7828158,37.0769231 L50.7574789,37.0769231 L50.7321421,37.0769231 L50.7068053,37.0769231 L50.6814684,37.0769231 L50.6561316,37.0769231 L50.6307947,37.0769231 L50.6053816,37.0769231 L50.5800447,37.0769231 L50.5547079,37.0769231 L50.5293711,37.0769231 L50.5040342,37.0769231 L50.4786974,37.0769231 L50.4533605,37.0769231 L50.4280237,37.0769231 L50.4026868,37.0769231 L50.37735,37.0769231 L50.3520132,37.0769231 L50.3266763,37.0769231 L50.3013395,37.0769231 L50.2760026,37.0769231 L50.2506658,37.0769231 L50.2253289,37.0769231 L50.1999921,37.0769231 L50.1746553,37.0769231 L50.1493184,37.0769231 L50.1239816,37.0769231 L50.0986447,37.0769231 L50.0733079,37.0769231 L50.0479711,37.0769231 L50.0226342,37.0769231 L49.9972974,37.0769231 L49.9719605,37.0769231 L49.9466237,37.0769231 L49.9212868,37.0769231 L49.89595,37.0769231 L49.8706132,37.0769231 L49.8452763,37.0769231 L49.8198632,37.0769231 L49.7945263,37.0769231 L49.7691895,37.0769231 L49.7438526,37.0769231 L49.7185158,37.0769231 L49.6931789,37.0769231 L49.6678421,37.0769231 L49.6425053,37.0769231 L49.6171684,37.0769231 L49.5918316,37.0769231 L49.5664947,37.0769231 L49.5411579,37.0769231 L49.5158211,37.0769231 L49.4904842,37.0769231 L49.4651474,37.0769231 L49.4398105,37.0769231 L49.4144737,37.0769231 L49.3891368,37.0769231 L49.3638,37.0769231 L49.3384632,37.0769231 L49.3131263,37.0769231 L49.2877895,37.0769231 L49.2624526,37.0769231 L49.2371158,37.0769231 L49.2117789,37.0769231 L49.1864421,37.0769231 L49.1611053,37.0769231 L49.1357684,37.0769231 L49.1104316,37.0769231 L49.0850947,37.0769231 L49.0597579,37.0769231 L49.0344211,37.0769231 L49.0090842,37.0769231 L48.9836711,37.0769231 L48.9583342,37.0769231 L48.9329974,37.0769231 L48.9076605,37.0769231 L48.8823237,37.0769231 L48.8569868,37.0769231 L48.83165,37.0769231 L48.8063132,37.0769231 L48.7809763,37.0769231 L48.7556395,37.0769231 L48.7303026,37.0769231 L48.7049658,37.0769231 L48.6796289,37.0769231 L48.6542921,37.0769231 L48.6289553,37.0769231 L48.6036184,37.0769231 L48.5782816,37.0769231 L48.5529447,37.0769231 L48.5276079,37.0769231 L48.5022711,37.0769231 L48.4769342,37.0769231 L48.4515974,37.0769231 L48.4262605,37.0769231 L48.4009237,37.0769231 L48.3755868,37.0769231 L48.35025,37.0769231 L48.3249132,37.0769231 L48.2995763,37.0769231 L48.2742395,37.0769231 L48.2489026,37.0769231 L48.2235658,37.0769231 L48.1981526,37.0769231 L48.1728158,37.0769231 L48.1474789,37.0769231 L48.1221421,37.0769231 L48.0968053,37.0769231 L48.0714684,37.0769231 L48.0461316,37.0769231 L48.0207947,37.0769231 L47.9954579,37.0769231 L47.9701211,37.0769231 L47.9447842,37.0769231 L47.9194474,37.0769231 L47.8941105,37.0769231 L47.8687737,37.0769231 L47.8434368,37.0769231 L47.8181,37.0769231 L47.7927632,37.0769231 L47.7674263,37.0769231 L47.7420895,37.0769231 L47.7167526,37.0769231 L47.6914158,37.0769231 L47.6660789,37.0769231 L47.6407421,37.0769231 L47.6154053,37.0769231 L47.5900684,37.0769231 L47.5647316,37.0769231 L47.5393947,37.0769231 L47.5140579,37.0769231 L47.4887211,37.0769231 L47.4633842,37.0769231 L47.4380474,37.0769231 L47.4127105,37.0769231 L47.3873737,37.0769231 L47.3619605,37.0769231 L47.3366237,37.0769231 L47.3112868,37.0769231 L47.28595,37.0769231 L47.2606132,37.0769231 L47.2352763,37.0769231 L47.2099395,37.0769231 L47.1846026,37.0769231 L47.1592658,37.0769231 L47.1339289,37.0769231 L47.1085921,37.0769231 L47.0832553,37.0769231 L47.0579184,37.0769231 L47.0325816,37.0769231 L47.0072447,37.0769231 L46.9819079,37.0769231 L46.9565711,37.0769231 L46.9312342,37.0769231 L46.9058974,37.0769231 L46.8805605,37.0769231 L46.8552237,37.0769231 L46.8298868,37.0769231 L46.80455,37.0769231 L46.7792132,37.0769231 L46.7538763,37.0769231 L46.7285395,37.0769231 L46.7032026,37.0769231 L46.6778658,37.0769231 L46.6525289,37.0769231 L46.6271921,37.0769231 L46.6018553,37.0769231 L46.5764421,37.0769231 L46.5511053,37.0769231 L46.5257684,37.0769231 L46.5004316,37.0769231 L46.4750947,37.0769231 L46.4497579,37.0769231 L46.4244211,37.0769231 L46.3990842,37.0769231 L46.3737474,37.0769231 L46.3484105,37.0769231 L46.3230737,37.0769231 L46.2977368,37.0769231 L46.2724,37.0769231 L46.2470632,37.0769231 L46.2217263,37.0769231 L46.1963895,37.0769231 L46.1710526,37.0769231 L46.1457158,37.0769231 L46.1203789,37.0769231 L46.0950421,37.0769231 L46.0697053,37.0769231 L46.0443684,37.0769231 L46.0190316,37.0769231 L45.9936947,37.0769231 L45.9683579,37.0769231 L45.9430211,37.0769231 L45.9176842,37.0769231 L45.8923474,37.0769231 L45.8670105,37.0769231 L45.8416737,37.0769231 L45.8163368,37.0769231 L45.791,37.0769231 L45.7656632,37.0769231 L45.74025,37.0769231 L45.7149132,37.0769231 L45.6895763,37.0769231 L45.6642395,37.0769231 L45.6389026,37.0769231 L45.6135658,37.0769231 L45.5882289,37.0769231 L45.5628921,37.0769231 L45.5375553,37.0769231 L45.5122184,37.0769231 L45.4868816,37.0769231 L45.4615447,37.0769231 L45.4362079,37.0769231 L45.4108711,37.0769231 L45.3855342,37.0769231 L45.3601974,37.0769231 L45.3348605,37.0769231 L45.3095237,37.0769231 L45.2841868,37.0769231 L45.25885,37.0769231 L45.2335132,37.0769231 L45.2081763,37.0769231 L45.1828395,37.0769231 L45.1575026,37.0769231 L45.1321658,37.0769231 L45.1068289,37.0769231 L45.0814921,37.0769231 L45.0561553,37.0769231 L45.0308184,37.0769231 L45.0054816,37.0769231 L44.9801447,37.0769231 L44.9547316,37.0769231 L44.9293947,37.0769231 L44.9040579,37.0769231 L44.8787211,37.0769231 L44.8533842,37.0769231 L44.8280474,37.0769231 L44.8027105,37.0769231 L44.7773737,37.0769231 L44.7520368,37.0769231 L44.7267,37.0769231 L44.7013632,37.0769231 L44.6760263,37.0769231 L44.6506895,37.0769231 L44.6253526,37.0769231 L44.6000158,37.0769231 L44.5746789,37.0769231 L44.5493421,37.0769231 L44.5240053,37.0769231 L44.4986684,37.0769231 L44.4733316,37.0769231 L44.4479947,37.0769231 L44.4226579,37.0769231 L44.3973211,37.0769231 L44.3719842,37.0769231 L44.3466474,37.0769231 L44.3213105,37.0769231 L44.2959737,37.0769231 L44.2706368,37.0769231 L44.2453,37.0769231 L44.2199632,37.0769231 L44.1946263,37.0769231 L44.1692895,37.0769231 L44.1439526,37.0769231 L44.1185395,37.0769231 L44.0932026,37.0769231 L44.0678658,37.0769231 L44.0425289,37.0769231 L44.0171921,37.0769231 L43.9918553,37.0769231 L43.9665184,37.0769231 L43.9411816,37.0769231 L43.9158447,37.0769231 L43.8905079,37.0769231 L43.8651711,37.0769231 L43.8398342,37.0769231 L43.8144974,37.0769231 L43.7891605,37.0769231 L43.7638237,37.0769231 L43.7384868,37.0769231 L43.71315,37.0769231 L43.6878132,37.0769231 L43.6624763,37.0769231 L43.6371395,37.0769231 L43.6118026,37.0769231 L43.5864658,37.0769231 L43.5611289,37.0769231 L43.5357921,37.0769231 L43.5104553,37.0769231 L43.4851184,37.0769231 L43.4597816,37.0769231 L43.4344447,37.0769231 L43.4091079,37.0769231 L43.3837711,37.0769231 L43.3584342,37.0769231 L43.3330211,37.0769231 L43.3076842,37.0769231 L43.2823474,37.0769231 L43.2570105,37.0769231 L43.2316737,37.0769231 L43.2063368,37.0769231 L43.181,37.0769231 L43.1556632,37.0769231 L43.1303263,37.0769231 L43.1049895,37.0769231 L43.0796526,37.0769231 L43.0543158,37.0769231 L43.0289789,37.0769231 L43.0036421,37.0769231 L42.9783053,37.0769231 L42.9529684,37.0769231 L42.9276316,37.0769231 L42.9022947,37.0769231 L42.8769579,37.0769231 L42.8516211,37.0769231 L42.8262842,37.0769231 L42.8009474,37.0769231 L42.7756105,37.0769231 L42.7502737,37.0769231 L42.7249368,37.0769231 L42.6996,37.0769231 L42.6742632,37.0769231 L42.6489263,37.0769231 L42.6235895,37.0769231 L42.5982526,37.0769231 L42.5729158,37.0769231 L42.5475789,37.0769231 L42.5222421,37.0769231 L42.4968289,37.0769231 L42.4714921,37.0769231 L42.4461553,37.0769231 L42.4208184,37.0769231 L42.3954816,37.0769231 L42.3701447,37.0769231 L42.3448079,37.0769231 L42.3194711,37.0769231 L42.2941342,37.0769231 L42.2687974,37.0769231 L42.2434605,37.0769231 L42.2181237,37.0769231 L42.1927868,37.0769231 L42.16745,37.0769231 L42.1421132,37.0769231 L42.1167763,37.0769231 L42.0914395,37.0769231 L42.0661026,37.0769231 L42.0407658,37.0769231 L42.0154289,37.0769231 L41.9900921,37.0769231 L41.9647553,37.0769231 L41.9394184,37.0769231 L41.9140816,37.0769231 L41.8887447,37.0769231 L41.8634079,37.0769231 L41.8380711,37.0769231 L41.8127342,37.0769231 L41.7873974,37.0769231 L41.7620605,37.0769231 L41.7367237,37.0769231 L41.7113105,37.0769231 L41.6859737,37.0769231 L41.6606368,37.0769231 L41.6353,37.0769231 L41.6099632,37.0769231 L41.5846263,37.0769231 L41.5592895,37.0769231 L41.5339526,37.0769231 L41.5086158,37.0769231 L41.4832789,37.0769231 L41.4579421,37.0769231 L41.4326053,37.0769231 L41.4072684,37.0769231 L41.3819316,37.0769231 L41.3565947,37.0769231 L41.3312579,37.0769231 L41.3059211,37.0769231 L41.2805842,37.0769231 L41.2552474,37.0769231 L41.2299105,37.0769231 L41.2045737,37.0769231 L41.1792368,37.0769231 L41.1539,37.0769231 L41.1285632,37.0769231 L41.1032263,37.0769231 L41.0778895,37.0769231 L41.0525526,37.0769231 L41.0272158,37.0769231 L41.0018789,37.0769231 L40.9765421,37.0769231 L40.9512053,37.0769231 L40.9258684,37.0769231 L40.9005316,37.0769231 L40.8751184,37.0769231 L40.8497816,37.0769231 L40.8244447,37.0769231 L40.7991079,37.0769231 L40.7737711,37.0769231 L40.7484342,37.0769231 L40.7230974,37.0769231 L40.6977605,37.0769231 L40.6724237,37.0769231 L40.6470868,37.0769231 L40.62175,37.0769231 L40.5964132,37.0769231 L40.5710763,37.0769231 L40.5457395,37.0769231 L40.5204026,37.0769231 L40.4950658,37.0769231 L40.4697289,37.0769231 L40.4443921,37.0769231 L40.4190553,37.0769231 L40.3937184,37.0769231 L40.3683816,37.0769231 L40.3430447,37.0769231 L40.3177079,37.0769231 L40.2923711,37.0769231 L40.2670342,37.0769231 L40.2416974,37.0769231 L40.2163605,37.0769231 L40.1910237,37.0769231 L40.1656868,37.0769231 L40.14035,37.0769231 L40.1150132,37.0769231 L40.0896,37.0769231 L40.0642632,37.0769231 L40.0389263,37.0769231 L40.0135895,37.0769231 L39.9882526,37.0769231 L39.9629158,37.0769231 L39.9375789,37.0769231 L39.9122421,37.0769231 L39.8869053,37.0769231 L39.8615684,37.0769231 L39.8362316,37.0769231 L39.8108947,37.0769231 L39.7855579,37.0769231 L39.7602211,37.0769231 L39.7348842,37.0769231 L39.7095474,37.0769231 L39.6842105,37.0769231 C39.5998816,37.0769231 39.5315789,37.0080769 39.5315789,36.9230769 C39.5315789,36.8380769 39.5998816,36.7692308 39.6842105,36.7692308 L39.7095474,36.7692308 L39.7348842,36.7692308 L39.7602211,36.7692308 L39.7855579,36.7692308 L39.8108947,36.7692308 L39.8362316,36.7692308 L39.8615684,36.7692308 L39.8869053,36.7692308 L39.9122421,36.7692308 L39.9375789,36.7692308 L39.9629158,36.7692308 L39.9882526,36.7692308 L40.0135895,36.7692308 L40.0389263,36.7692308 L40.0642632,36.7692308 L40.0896,36.7692308 L40.1150132,36.7692308 L40.14035,36.7692308 L40.1656868,36.7692308 L40.1910237,36.7692308 L40.2163605,36.7692308 L40.2416974,36.7692308 L40.2670342,36.7692308 L40.2923711,36.7692308 L40.3177079,36.7692308 L40.3430447,36.7692308 L40.3683816,36.7692308 L40.3937184,36.7692308 L40.4190553,36.7692308 L40.4443921,36.7692308 L40.4697289,36.7692308 L40.4950658,36.7692308 L40.5204026,36.7692308 L40.5457395,36.7692308 L40.5710763,36.7692308 L40.5964132,36.7692308 L40.62175,36.7692308 L40.6470868,36.7692308 L40.6724237,36.7692308 L40.6977605,36.7692308 L40.7230974,36.7692308 L40.7484342,36.7692308 L40.7737711,36.7692308 L40.7991079,36.7692308 L40.8244447,36.7692308 L40.8497816,36.7692308 L40.8751184,36.7692308 L40.9005316,36.7692308 L40.9258684,36.7692308 L40.9512053,36.7692308 L40.9765421,36.7692308 L41.0018789,36.7692308 L41.0272158,36.7692308 L41.0525526,36.7692308 L41.0778895,36.7692308 L41.1032263,36.7692308 L41.1285632,36.7692308 L41.1539,36.7692308 L41.1792368,36.7692308 L41.2045737,36.7692308 L41.2299105,36.7692308 L41.2552474,36.7692308 L41.2805842,36.7692308 L41.3059211,36.7692308 L41.3312579,36.7692308 L41.3565947,36.7692308 L41.3819316,36.7692308 L41.4072684,36.7692308 L41.4326053,36.7692308 L41.4579421,36.7692308 L41.4832789,36.7692308 L41.5086158,36.7692308 L41.5339526,36.7692308 L41.5592895,36.7692308 L41.5846263,36.7692308 L41.6099632,36.7692308 L41.6353,36.7692308 L41.6606368,36.7692308 L41.6859737,36.7692308 L41.7113105,36.7692308 L41.7367237,36.7692308 L41.7620605,36.7692308 L41.7873974,36.7692308 L41.8127342,36.7692308 L41.8380711,36.7692308 L41.8634079,36.7692308 L41.8887447,36.7692308 L41.9140816,36.7692308 L41.9394184,36.7692308 L41.9647553,36.7692308 L41.9900921,36.7692308 L42.0154289,36.7692308 L42.0407658,36.7692308 L42.0661026,36.7692308 L42.0914395,36.7692308 L42.1167763,36.7692308 L42.1421132,36.7692308 L42.16745,36.7692308 L42.1927868,36.7692308 L42.2181237,36.7692308 L42.2434605,36.7692308 L42.2687974,36.7692308 L42.2941342,36.7692308 L42.3194711,36.7692308 L42.3448079,36.7692308 L42.3701447,36.7692308 L42.3954816,36.7692308 L42.4208184,36.7692308 L42.4461553,36.7692308 L42.4714921,36.7692308 L42.4968289,36.7692308 L42.5222421,36.7692308 L42.5475789,36.7692308 L42.5729158,36.7692308 L42.5982526,36.7692308 L42.6235895,36.7692308 L42.6489263,36.7692308 L42.6742632,36.7692308 L42.6996,36.7692308 L42.7249368,36.7692308 L42.7502737,36.7692308 L42.7756105,36.7692308 L42.8009474,36.7692308 L42.8262842,36.7692308 L42.8516211,36.7692308 L42.8769579,36.7692308 L42.9022947,36.7692308 L42.9276316,36.7692308 L42.9529684,36.7692308 L42.9783053,36.7692308 L43.0036421,36.7692308 L43.0289789,36.7692308 L43.0543158,36.7692308 L43.0796526,36.7692308 L43.1049895,36.7692308 L43.1303263,36.7692308 L43.1556632,36.7692308 L43.181,36.7692308 L43.2063368,36.7692308 L43.2316737,36.7692308 L43.2570105,36.7692308 L43.2823474,36.7692308 L43.3076842,36.7692308 L43.3330211,36.7692308 L43.3584342,36.7692308 L43.3837711,36.7692308 L43.4091079,36.7692308 L43.4344447,36.7692308 L43.4597816,36.7692308 L43.4851184,36.7692308 L43.5104553,36.7692308 L43.5357921,36.7692308 L43.5611289,36.7692308 L43.5864658,36.7692308 L43.6118026,36.7692308 L43.6371395,36.7692308 L43.6624763,36.7692308 L43.6878132,36.7692308 L43.71315,36.7692308 L43.7384868,36.7692308 L43.7638237,36.7692308 L43.7891605,36.7692308 L43.8144974,36.7692308 L43.8398342,36.7692308 L43.8651711,36.7692308 L43.8905079,36.7692308 L43.9158447,36.7692308 L43.9411816,36.7692308 L43.9665184,36.7692308 L43.9918553,36.7692308 L44.0171921,36.7692308 L44.0425289,36.7692308 L44.0678658,36.7692308 L44.0932026,36.7692308 L44.1185395,36.7692308 L44.1439526,36.7692308 L44.1692895,36.7692308 L44.1946263,36.7692308 L44.2199632,36.7692308 L44.2453,36.7692308 L44.2706368,36.7692308 L44.2959737,36.7692308 L44.3213105,36.7692308 L44.3466474,36.7692308 L44.3719842,36.7692308 L44.3973211,36.7692308 L44.4226579,36.7692308 L44.4479947,36.7692308 L44.4733316,36.7692308 L44.4986684,36.7692308 L44.5240053,36.7692308 L44.5493421,36.7692308 L44.5746789,36.7692308 L44.6000158,36.7692308 L44.6253526,36.7692308 L44.6506895,36.7692308 L44.6760263,36.7692308 L44.7013632,36.7692308 L44.7267,36.7692308 L44.7520368,36.7692308 L44.7773737,36.7692308 L44.8027105,36.7692308 L44.8280474,36.7692308 L44.8533842,36.7692308 L44.8787211,36.7692308 L44.9040579,36.7692308 L44.9293947,36.7692308 L44.9547316,36.7692308 L44.9801447,36.7692308 L45.0054816,36.7692308 L45.0308184,36.7692308 L45.0561553,36.7692308 L45.0814921,36.7692308 L45.1068289,36.7692308 L45.1321658,36.7692308 L45.1575026,36.7692308 L45.1828395,36.7692308 L45.2081763,36.7692308 L45.2335132,36.7692308 L45.25885,36.7692308 L45.2841868,36.7692308 L45.3095237,36.7692308 L45.3348605,36.7692308 L45.3601974,36.7692308 L45.3855342,36.7692308 L45.4108711,36.7692308 L45.4362079,36.7692308 L45.4615447,36.7692308 L45.4868816,36.7692308 L45.5122184,36.7692308 L45.5375553,36.7692308 L45.5628921,36.7692308 L45.5882289,36.7692308 L45.6135658,36.7692308 L45.6389026,36.7692308 L45.6642395,36.7692308 L45.6895763,36.7692308 L45.7149132,36.7692308 L45.74025,36.7692308 L45.7656632,36.7692308 L45.791,36.7692308 L45.8163368,36.7692308 L45.8416737,36.7692308 L45.8670105,36.7692308 L45.8923474,36.7692308 L45.9176842,36.7692308 L45.9430211,36.7692308 L45.9683579,36.7692308 L45.9936947,36.7692308 L46.0190316,36.7692308 L46.0443684,36.7692308 L46.0697053,36.7692308 L46.0950421,36.7692308 L46.1203789,36.7692308 L46.1457158,36.7692308 L46.1710526,36.7692308 L46.1963895,36.7692308 L46.2217263,36.7692308 L46.2470632,36.7692308 L46.2724,36.7692308 L46.2977368,36.7692308 L46.3230737,36.7692308 L46.3484105,36.7692308 L46.3737474,36.7692308 L46.3990842,36.7692308 L46.4244211,36.7692308 L46.4497579,36.7692308 L46.4750947,36.7692308 L46.5004316,36.7692308 L46.5257684,36.7692308 L46.5511053,36.7692308 L46.5764421,36.7692308 L46.6018553,36.7692308 L46.6271921,36.7692308 L46.6525289,36.7692308 L46.6778658,36.7692308 L46.7032026,36.7692308 L46.7285395,36.7692308 L46.7538763,36.7692308 L46.7792132,36.7692308 L46.80455,36.7692308 L46.8298868,36.7692308 L46.8552237,36.7692308 L46.8805605,36.7692308 L46.9058974,36.7692308 L46.9312342,36.7692308 L46.9565711,36.7692308 L46.9819079,36.7692308 L47.0072447,36.7692308 L47.0325816,36.7692308 L47.0579184,36.7692308 L47.0832553,36.7692308 L47.1085921,36.7692308 L47.1339289,36.7692308 L47.1592658,36.7692308 L47.1846026,36.7692308 L47.2099395,36.7692308 L47.2352763,36.7692308 L47.2606132,36.7692308 L47.28595,36.7692308 L47.3112868,36.7692308 L47.3366237,36.7692308 L47.3619605,36.7692308 L47.3873737,36.7692308 L47.4127105,36.7692308 L47.4380474,36.7692308 L47.4633842,36.7692308 L47.4887211,36.7692308 L47.5140579,36.7692308 L47.5393947,36.7692308 L47.5647316,36.7692308 L47.5900684,36.7692308 L47.6154053,36.7692308 L47.6407421,36.7692308 L47.6660789,36.7692308 L47.6914158,36.7692308 L47.7167526,36.7692308 L47.7420895,36.7692308 L47.7674263,36.7692308 L47.7927632,36.7692308 L47.8181,36.7692308 L47.8434368,36.7692308 L47.8687737,36.7692308 L47.8941105,36.7692308 L47.9194474,36.7692308 L47.9447842,36.7692308 L47.9701211,36.7692308 L47.9954579,36.7692308 L48.0207947,36.7692308 L48.0461316,36.7692308 L48.0714684,36.7692308 L48.0968053,36.7692308 L48.1221421,36.7692308 L48.1474789,36.7692308 L48.1728158,36.7692308 L48.1981526,36.7692308 L48.2235658,36.7692308 L48.2489026,36.7692308 L48.2742395,36.7692308 L48.2995763,36.7692308 L48.3249132,36.7692308 L48.35025,36.7692308 L48.3755868,36.7692308 L48.4009237,36.7692308 L48.4262605,36.7692308 L48.4515974,36.7692308 L48.4769342,36.7692308 L48.5022711,36.7692308 L48.5276079,36.7692308 L48.5529447,36.7692308 L48.5782816,36.7692308 L48.6036184,36.7692308 L48.6289553,36.7692308 L48.6542921,36.7692308 L48.6796289,36.7692308 L48.7049658,36.7692308 L48.7303026,36.7692308 L48.7556395,36.7692308 L48.7809763,36.7692308 L48.8063132,36.7692308 L48.83165,36.7692308 L48.8569868,36.7692308 L48.8823237,36.7692308 L48.9076605,36.7692308 L48.9329974,36.7692308 L48.9583342,36.7692308 L48.9836711,36.7692308 L49.0090842,36.7692308 L49.0344211,36.7692308 L49.0597579,36.7692308 L49.0850947,36.7692308 L49.1104316,36.7692308 L49.1357684,36.7692308 L49.1611053,36.7692308 L49.1864421,36.7692308 L49.2117789,36.7692308 L49.2371158,36.7692308 L49.2624526,36.7692308 L49.2877895,36.7692308 L49.3131263,36.7692308 L49.3384632,36.7692308 L49.3638,36.7692308 L49.3891368,36.7692308 L49.4144737,36.7692308 L49.4398105,36.7692308 L49.4651474,36.7692308 L49.4904842,36.7692308 L49.5158211,36.7692308 L49.5411579,36.7692308 L49.5664947,36.7692308 L49.5918316,36.7692308 L49.6171684,36.7692308 L49.6425053,36.7692308 L49.6678421,36.7692308 L49.6931789,36.7692308 L49.7185158,36.7692308 L49.7438526,36.7692308 L49.7691895,36.7692308 L49.7945263,36.7692308 L49.8198632,36.7692308 L49.8452763,36.7692308 L49.8706132,36.7692308 L49.89595,36.7692308 L49.9212868,36.7692308 L49.9466237,36.7692308 L49.9719605,36.7692308 L49.9972974,36.7692308 L50.0226342,36.7692308 L50.0479711,36.7692308 L50.0733079,36.7692308 L50.0986447,36.7692308 L50.1239816,36.7692308 L50.1493184,36.7692308 L50.1746553,36.7692308 L50.1999921,36.7692308 L50.2253289,36.7692308 L50.2506658,36.7692308 L50.2760026,36.7692308 L50.3013395,36.7692308 L50.3266763,36.7692308 L50.3520132,36.7692308 L50.37735,36.7692308 L50.4026868,36.7692308 L50.4280237,36.7692308 L50.4533605,36.7692308 L50.4786974,36.7692308 L50.5040342,36.7692308 L50.5293711,36.7692308 L50.5547079,36.7692308 L50.5800447,36.7692308 L50.6053816,36.7692308 L50.6307947,36.7692308 L50.6561316,36.7692308 L50.6814684,36.7692308 L50.7068053,36.7692308 L50.7321421,36.7692308 L50.7574789,36.7692308 L50.7828158,36.7692308 L50.8081526,36.7692308 L50.8334895,36.7692308 L50.8588263,36.7692308 L50.8841632,36.7692308 L50.9095,36.7692308 L50.9348368,36.7692308 L50.9601737,36.7692308 L50.9855105,36.7692308 L51.0108474,36.7692308 L51.0361842,36.7692308 L51.0615211,36.7692308 L51.0868579,36.7692308 L51.1121947,36.7692308 L51.1375316,36.7692308 L51.1628684,36.7692308 L51.1882053,36.7692308 L51.2135421,36.7692308 L51.2388789,36.7692308 L51.2642158,36.7692308 L51.2895526,36.7692308 L51.3148895,36.7692308 L51.3402263,36.7692308 L51.3655632,36.7692308 L51.3909,36.7692308 L51.4162368,36.7692308 L51.4415737,36.7692308 L51.4669868,36.7692308 L51.4923237,36.7692308 L51.5176605,36.7692308 L51.5429974,36.7692308 L51.5683342,36.7692308 L51.5936711,36.7692308 L51.6190079,36.7692308 L51.6443447,36.7692308 L51.6696816,36.7692308 L51.6950184,36.7692308 L51.7203553,36.7692308 L51.7456921,36.7692308 L51.7710289,36.7692308 L51.7963658,36.7692308 L51.8217026,36.7692308 L51.8470395,36.7692308 L51.8723763,36.7692308 L51.8977132,36.7692308 L51.92305,36.7692308 L51.9483868,36.7692308 L51.9737237,36.7692308 L51.9990605,36.7692308 L52.0243974,36.7692308 L52.0497342,36.7692308 L52.0750711,36.7692308 L52.1004079,36.7692308 L52.1009421,36.7692308 C51.9774632,36.056 51.88245,35.2885385 51.88245,34.6153846 C51.88245,32.6923077 52.6578947,30 52.6578947,30 Z" fill="#FFFFFF"></path>
                        <path d="M9.15789474,20.0613077 L57.2368421,20 C57.2368421,20 56.4647553,22.6933077 56.4671211,24.6163846 C56.4695632,26.5394615 57.2483658,29.2307692 57.2483658,29.2307692 L9.16949474,29.2920769 L9.15789474,20.0613077 Z" fill="#C6C6C6" fill-rule="nonzero"></path>
                        <path d="M0,10.0613077 L48.0789474,10 C48.0789474,10 47.3068605,12.6933077 47.3092263,14.6163846 C47.3116684,16.5394615 48.0904711,19.2307692 48.0904711,19.2307692 L0.0115847368,19.2920769 L0,10.0613077 Z" fill="#C6C6C6" fill-rule="nonzero"></path>
                        <path d="M57.2368421,20 L9.15789474,20 L9.15789474,29.2307692 L57.2368421,29.2307692 C57.2368421,29.2307692 56.8703737,27.9585385 56.6412737,26.5384615 L54.5657895,26.5384615 C54.91585,26.4943077 55.4564711,26.4805385 56.0376921,26.4657692 C56.2315342,26.4608462 56.4298789,26.4558462 56.6271553,26.4495385 C56.5918974,26.2243846 56.5603789,25.9961538 56.5345079,25.7692308 L51.1315789,25.7692308 C51.4884316,25.7241538 52.2319763,25.7107692 53.0706105,25.6956923 C54.3304316,25.673 55.8050816,25.6464615 56.5068053,25.5029231 C56.4781868,25.1977692 56.4613974,24.8982308 56.4613974,24.6153846 C56.4613974,24.1327692 56.5102395,23.6016923 56.58335,23.0769231 L48.4605263,23.0769231 C49.1669816,22.9877692 50.4000921,22.9606154 51.7553079,22.9307692 C53.4599737,22.8932308 55.3578711,22.8514615 56.6438684,22.6766154 C56.8731211,21.2629231 57.2368421,20 57.2368421,20 Z" fill="#FFFFFF"></path>
                        <path d="M6.10526316,0.0612923077 L54.1842105,-3.07692308e-06 C54.1842105,-3.07692308e-06 53.4121237,2.69329231 53.4144895,4.61636154 C53.4169316,6.53943846 54.1957342,9.23076923 54.1957342,9.23076923 L6.11684789,9.29207692 L6.10526316,0.0612923077 Z" fill="#C6C6C6" fill-rule="nonzero"></path>
                        <path d="M54.1842105,0 L6.10526316,0 L6.10526316,9.23076923 L54.1842105,9.23076923 C54.1842105,9.23076923 53.5945947,7.18376923 53.4436421,5.38461538 L34.7236842,5.38461538 C38.9210526,5.38461538 48.4605263,5.38461538 53.4436421,4.61538462 C53.4130395,3.38461538 53.9245842,0.897438462 54.1842105,0 Z" fill="#FFFFFF" fill-rule="nonzero"></path>
                        <path d="M0,10.0306923 L48.0789474,9.96938462 C48.0789474,9.96938462 47.7302605,11.1854615 47.5023053,12.5667692 C47.0647868,12.5955385 46.5778921,12.6079231 46.1166395,12.6196154 C45.5354184,12.6343846 44.9947974,12.6481538 44.6447368,12.6923077 L47.4820053,12.6923077 C47.4494947,12.8976154 47.4198842,13.1059231 47.3947,13.3136923 C46.5047816,13.4615385 44.9914395,13.4615385 43.8815789,13.4615385 L47.3776053,13.4615385 C47.3348684,13.848 47.3087684,14.2300769 47.3092263,14.5856923 C47.3099132,15.129 47.3725684,15.7336154 47.4620868,16.3215385 C46.74365,16.4226154 45.5805974,16.4452308 44.5593395,16.4650769 C43.7851158,16.4801538 43.0924737,16.4935385 42.7368421,16.5384615 L47.4965053,16.5384615 C47.7275895,17.9461538 48.0904711,19.2001538 48.0904711,19.2001538 L0.0115847368,19.2613846 L0.009135,17.3076923 L5.72368421,17.3076923 C5.72368421,17.3076923 1.91940316,16.9242308 0.00864657895,16.9230769 L0,10.0306923 Z" fill="#FFFFFF"></path>
                        <path d="M58,20 L10.6842105,20 C9.84122632,20 9.15789474,20.6887692 9.15789474,21.5384615 L9.15789474,27.6923077 C9.15789474,28.542 9.84122632,29.2307692 10.6842105,29.2307692 L58,29.2307692" stroke="#333333" stroke-width="1.15384615" stroke-linecap="round"></path>
                        <path d="M53.4210526,30 L6.10526316,30 C5.26230184,30 4.57894737,30.6887692 4.57894737,31.5384615 L4.57894737,37.6923077 C4.57894737,38.542 5.26230184,39.2307692 6.10526316,39.2307692 L53.4210526,39.2307692" stroke="#333333" stroke-width="1.15384615" stroke-linecap="round"></path>
                        <path d="M48.8421053,10 L1.52631579,10 C0.683354474,10 -1.52631579e-06,10.6887692 -1.52631579e-06,11.5384615 L-1.52631579e-06,17.6923077 C-1.52631579e-06,18.542 0.683354474,19.2307692 1.52631579,19.2307692 L48.8421053,19.2307692" stroke="#333333" stroke-width="1.15384615" stroke-linecap="round"></path>
                        <path d="M54.9473684,0 L7.63157895,0 C6.78861763,0 6.10526316,0.688792308 6.10526316,1.53846154 L6.10526316,7.69230769 C6.10526316,8.542 6.78861763,9.23076923 7.63157895,9.23076923 L54.9473684,9.23076923" stroke="#333333" stroke-width="1.15384615" stroke-linecap="round"></path>
                        <path d="M25.9473684,3.84615385 C29,3.84615385 32.0526316,3.84615385 35.1052632,3.84615385" stroke="#C6C6C6" stroke-width="0.5" stroke-linecap="round" stroke-linejoin="round"></path>
                        <path d="M31.2894737,4.61538462 C35.6140605,4.61538462 39.9385711,4.61538462 44.2631579,4.61538462" stroke="#C6C6C6" stroke-width="0.5" stroke-linecap="round" stroke-linejoin="round"></path>
                        <path d="M16.7894737,6.92307692 C20.6052632,6.92307692 24.4210526,6.92307692 28.2368421,6.92307692" stroke="#C6C6C6" stroke-width="0.5" stroke-linecap="round" stroke-linejoin="round"></path>
                        <path d="M10.6842105,23.8461538 C14.2456395,23.8461538 17.8069921,23.8461538 21.3684211,23.8461538" stroke="#C6C6C6" stroke-width="0.5" stroke-linecap="round" stroke-linejoin="round"></path>
                        <path d="M9.92105263,27.6923077 C19.0789474,27.6923077 28.2368421,27.6923077 37.3947368,27.6923077" stroke="#C6C6C6" stroke-width="0.5" stroke-linecap="round" stroke-linejoin="round"></path>
                        <path d="M5.34210526,37.6923077 C12.2105263,37.6923077 19.0789474,37.6923077 25.9473684,37.6923077" stroke="#C6C6C6" stroke-width="0.5" stroke-linecap="round" stroke-linejoin="round"></path>
                        <path d="M18.3157895,32.3076923 C26.4561658,32.3076923 34.5964658,32.3076923 42.7368421,32.3076923" stroke="#C6C6C6" stroke-width="0.5" stroke-linecap="round" stroke-linejoin="round"></path>
                        <path d="M16.0263158,33.0769231 C20.0964658,33.0769231 24.1666921,33.0769231 28.2368421,33.0769231" stroke="#C6C6C6" stroke-width="0.5" stroke-linecap="round" stroke-linejoin="round"></path>
                        <path d="M5.34210526,36.9230769 C9.66669211,36.9230769 13.9912026,36.9230769 18.3157895,36.9230769" stroke="#C6C6C6" stroke-width="0.5" stroke-linecap="round" stroke-linejoin="round"></path>
                        <path d="M47.3157895,36.1538462 C48.8421053,36.1538462 50.3684211,36.1538462 51.8947368,36.1538462" stroke="#C6C6C6" stroke-width="0.5" stroke-linecap="round" stroke-linejoin="round"></path>
                        <path d="M7.63157895,17.6923077 C14.2456395,17.6923077 20.8596237,17.6923077 27.4736842,17.6923077" stroke="#C6C6C6" stroke-width="0.5" stroke-linecap="round" stroke-linejoin="round"></path>
                        <path d="M0.763157895,15.3846154 C3.05263158,15.3846154 5.34210526,15.3846154 7.63157895,15.3846154" stroke="#C6C6C6" stroke-width="0.5" stroke-linecap="round" stroke-linejoin="round"></path>
                        <path d="M28.2368421,15.3846154 C30.0175184,15.3846154 31.7982711,15.3846154 33.5789474,15.3846154" stroke="#C6C6C6" stroke-width="0.5" stroke-linecap="round" stroke-linejoin="round"></path>
                        <path d="M32.0526316,16.1538462 C35.3596237,16.1538462 38.6666921,16.1538462 41.9736842,16.1538462" stroke="#C6C6C6" stroke-width="0.5" stroke-linecap="round" stroke-linejoin="round"></path>
                        <path d="M9.92105263,24.6153846 C11.7017289,24.6153846 13.4824816,24.6153846 15.2631579,24.6153846" stroke="#C6C6C6" stroke-width="0.5" stroke-linecap="round" stroke-linejoin="round"></path>
                    </g>
                </g>
            </g>
        </g>
    </g>
</svg>