<svg id="Layer_1" data-name="Layer 1" xmlns="http://www.w3.org/2000/svg" xmlns:xlink="http://www.w3.org/1999/xlink" viewBox="0 0 30 26.67"><defs><style>.cls-1{fill:none;clip-rule:evenodd;}.cls-2{clip-path:url(#clip-path);}.cls-3{fill:#fff;}</style><clipPath id="clip-path"><path class="cls-1" d="M25,7a8.12,8.12,0,0,1-2.36.67,4.23,4.23,0,0,0,1.81-2.33,8.21,8.21,0,0,1-2.61,1,4,4,0,0,0-3-1.33,4.16,4.16,0,0,0-4.11,4.21,4.35,4.35,0,0,0,.11,1,11.58,11.58,0,0,1-8.46-4.4,4.32,4.32,0,0,0-.55,2.12,4.25,4.25,0,0,0,1.82,3.5,4,4,0,0,1-1.86-.53v.05A4.2,4.2,0,0,0,9.1,15a3.91,3.91,0,0,1-1.86.07A4.12,4.12,0,0,0,11.08,18,8.13,8.13,0,0,1,6,19.84a7.93,7.93,0,0,1-1-.06,11.44,11.44,0,0,0,6.29,1.89c7.55,0,11.67-6.41,11.67-12,0-.19,0-.37,0-.55A8.19,8.19,0,0,0,25,7"/></clipPath></defs><title>Twitter – Footer Icon</title><g class="cls-2"><rect class="cls-3" width="30" height="26.67"/></g></svg>