<svg width="38" height="20" viewBox="0 0 38 20" fill="none" xmlns="http://www.w3.org/2000/svg">
<path d="M0 9.66868C0 4.32881 4.32881 0 9.66868 0H37.5245V19.3374H9.66868C4.32881 19.3374 0 15.0085 0 9.66868Z" fill="#C4C4C4"/>
<path d="M9.66973 18.2215C14.4397 18.2215 18.3065 14.3547 18.3065 9.58471C18.3065 4.81475 14.4397 0.947937 9.66973 0.947937C4.89977 0.947937 1.03296 4.81475 1.03296 9.58471C1.03296 14.3547 4.89977 18.2215 9.66973 18.2215Z" fill="white"/>
<path d="M9.56677 0C12.2477 0 14.5303 0.93598 16.4128 2.80704C17.3137 3.70828 17.9987 4.73831 18.4665 5.89623C18.9341 7.05445 19.1686 8.28365 19.1686 9.58444C19.1686 10.8966 18.9371 12.1261 18.4755 13.2724C18.0134 14.4189 17.3314 15.4318 16.4304 16.3103C15.495 17.2343 14.4339 17.9421 13.2469 18.4327C12.0605 18.9233 10.8337 19.1686 9.56737 19.1686C8.30102 19.1686 7.08859 18.9266 5.93037 18.4411C4.77245 17.9564 3.73404 17.2547 2.81543 16.3364C1.89682 15.4181 1.19805 14.3824 0.718833 13.2298C0.239611 12.0773 0 10.8625 0 9.58444C0 8.3178 0.242307 7.09997 0.727219 5.93037C1.21213 4.76077 1.91689 3.71397 2.84089 2.78967C4.66642 0.93029 6.90828 0 9.56677 0ZM9.60151 1.72879C7.41087 1.72879 5.56796 2.49345 4.07309 4.02217C3.31981 4.78683 2.74085 5.64523 2.33591 6.59799C1.93037 7.55074 1.72819 8.54632 1.72819 9.58474C1.72819 10.6118 1.93037 11.6017 2.33591 12.5538C2.74115 13.5072 3.31981 14.3572 4.07309 15.1045C4.82606 15.8521 5.67578 16.422 6.62345 16.8162C7.57021 17.2098 8.5631 17.4065 9.60151 17.4065C10.6282 17.4065 11.6232 17.2074 12.5886 16.8078C13.5527 16.408 14.4219 15.8323 15.1982 15.0793C16.6928 13.6189 17.4398 11.7877 17.4398 9.58504C17.4398 8.52386 17.2457 7.51989 16.8578 6.57283C16.4706 5.62577 15.9054 4.78174 15.1644 4.03954C13.6231 2.49914 11.7694 1.72879 9.60151 1.72879ZM9.48141 7.99312L8.19739 8.66074C8.06021 8.3759 7.89219 8.17583 7.69271 8.06171C7.49293 7.9479 7.30754 7.89069 7.13621 7.89069C6.2808 7.89069 5.8525 8.45527 5.8525 9.58504C5.8525 10.0984 5.96092 10.5087 6.17747 10.8169C6.39432 11.1251 6.7139 11.2794 7.13621 11.2794C7.69541 11.2794 8.08897 11.0053 8.3175 10.4578L9.49818 11.0568C9.24719 11.525 8.89915 11.8928 8.45407 12.1609C8.0096 12.4292 7.51869 12.5631 6.98226 12.5631C6.12655 12.5631 5.43587 12.301 4.91113 11.7757C4.38638 11.2509 4.124 10.5207 4.124 9.58534C4.124 8.67242 4.38937 7.9482 4.91981 7.41177C5.45025 6.87564 6.12056 6.60727 6.93105 6.60727C8.11802 6.60667 8.96774 7.06882 9.48141 7.99312ZM15.0095 7.99312L13.7429 8.66074C13.606 8.3759 13.4374 8.17583 13.2379 8.06171C13.0378 7.9479 12.8464 7.89069 12.6646 7.89069C11.8089 7.89069 11.3806 8.45527 11.3806 9.58504C11.3806 10.0984 11.4893 10.5087 11.7059 10.8169C11.9224 11.1251 12.2417 11.2794 12.6646 11.2794C13.2232 11.2794 13.6171 11.0053 13.845 10.4578L15.0431 11.0568C14.781 11.525 14.427 11.8928 13.9825 12.1609C13.5374 12.4292 13.0525 12.5631 12.5278 12.5631C11.6604 12.5631 10.9676 12.301 10.4488 11.7757C9.92888 11.2509 9.6695 10.5207 9.6695 9.58534C9.6695 8.67242 9.93457 7.9482 10.4656 7.41177C10.9957 6.87564 11.6661 6.60727 12.4762 6.60727C13.6629 6.60667 14.5078 7.06882 15.0095 7.99312Z" fill="black"/>
<path d="M22.5082 14.503V6.623H25.2033C25.6142 6.623 25.9929 6.65523 26.3394 6.71969C26.6939 6.77609 27.0001 6.88083 27.2579 7.03392C27.5238 7.18701 27.7293 7.38844 27.8743 7.63821C28.0274 7.88799 28.1039 8.20222 28.1039 8.58091C28.1039 8.75817 28.0798 8.93543 28.0314 9.11269C27.9831 9.28994 27.9146 9.45512 27.826 9.6082C27.7373 9.76129 27.6285 9.89827 27.4996 10.0191C27.3788 10.14 27.2378 10.2286 27.0766 10.285V10.3334C27.2781 10.3817 27.4634 10.4582 27.6326 10.563C27.8018 10.6597 27.9508 10.7846 28.0798 10.9376C28.2087 11.0907 28.3094 11.272 28.3819 11.4815C28.4544 11.6829 28.4907 11.9166 28.4907 12.1825C28.4907 12.5854 28.4101 12.9318 28.249 13.2219C28.0959 13.5119 27.8783 13.7536 27.5963 13.947C27.3224 14.1323 27.0001 14.2733 26.6295 14.37C26.2588 14.4587 25.86 14.503 25.433 14.503H22.5082ZM24.2848 9.77741H25.1187C25.5538 9.77741 25.868 9.69281 26.0614 9.5236C26.2628 9.3544 26.3636 9.1288 26.3636 8.8468C26.3636 8.54062 26.2628 8.32308 26.0614 8.19416C25.86 8.06524 25.5498 8.00079 25.1308 8.00079H24.2848V9.77741ZM24.2848 13.1252H25.2879C26.2628 13.1252 26.7503 12.7707 26.7503 12.0616C26.7503 11.7152 26.6295 11.4694 26.3877 11.3244C26.146 11.1713 25.7794 11.0948 25.2879 11.0948H24.2848V13.1252Z" fill="black"/>
<path d="M30.9669 14.503V11.6991L28.586 6.623H30.4956L31.1966 8.43588C31.3094 8.73399 31.4141 9.02406 31.5108 9.30606C31.6156 9.58 31.7243 9.87006 31.8371 10.1762H31.8855C31.9983 9.87006 32.107 9.58 32.2118 9.30606C32.3246 9.02406 32.4374 8.73399 32.5502 8.43588L33.2633 6.623H35.1245L32.7436 11.6991V14.503H30.9669Z" fill="black"/>
</svg>
