<svg xmlns="http://www.w3.org/2000/svg" viewBox="0 0 120 120" class="fermata">
    <title>Fermata</title>
    <g id="Pattern_Editing_Mode" data-name="Pattern Editing Mode">
      <path d="M44.10077,32.62846c9.55072-3.97564,27.18107-3.49871,39.74008,2.66527,9.9753,4.89589,25.05751,18.30564,26.61554,29.7841.44545,3.28175-.46757,10.79165-4.88188,11.284-4.19886.46836-7.07483-11.125-9.00954-13.81321-6.29158-8.74212-17.951-15.81315-28.6774-17.05437-10.1456-1.174-23.11779,2.107-32.12539,6.77095A31.80187,31.80187,0,0,0,22.38011,64.92685c-1.39487,2.42506-2.72048,10.39538-5.77676,11.31587-12.928,3.89364-2.19358-19.96251.5428-23.61669C24.62348,42.64076,38.21505,35.07848,44.10077,32.62846Z"/>
      <path d="M57.22821,59.9208c8.0167-1.246,14.3061,3.26624,15.24647,10.9383.34929,2.84972-7.78707,11.52716-11.66935,10.39955C56.61316,80.041,52.223,75.97756,50.1477,71.9944,48.08512,68.03566,53.47908,60.50349,57.22821,59.9208Z"/>
    </g>
</svg>
  