<svg id="Layer_1" data-name="Layer 1" xmlns="http://www.w3.org/2000/svg" viewBox="0 0 732 838"><defs><style>.cls-1{fill:#58c3c4;}</style></defs><title>Artboard 1</title><polygon class="cls-1" points="321 571.1 191 592.76 191 602.9 321 581.24 321 571.1"/><polygon class="cls-1" points="51 616.1 51 86.23 401 27.9 401 129.43 411 131.1 411 16.1 41 77.76 41 627.9 181 604.57 181 594.43 51 616.1"/><polygon class="cls-1" points="401 557.76 331 569.43 331 579.57 411 566.24 411 267.99 401 267.99 401 557.76"/><polygon class="cls-1" points="401 257.99 411 257.99 411 141.24 401 139.57 401 257.99"/><rect class="cls-1" x="401" y="257.99" width="10" height="10"/><polygon class="cls-1" points="191 592.76 181 594.43 181 604.57 191 602.9 191 592.76"/><polygon class="cls-1" points="401 139.57 411 141.24 411 131.1 401 129.43 401 139.57"/><polygon class="cls-1" points="321 571.1 321 581.24 331 579.57 331 569.43 321 571.1"/></svg>