<svg id="Layer_1" data-name="Layer 1" xmlns="http://www.w3.org/2000/svg" viewBox="0 0 732 838"><defs><style>.cls-1{fill:#f05c6a;}</style></defs><title>Artboard 1 copy 2</title><polygon class="cls-1" points="331 584.57 321 586.24 321 671.24 541 707.9 541 697.76 331 662.76 331 584.57"/><polygon class="cls-1" points="331 272.99 321 272.99 321 576.1 331 574.43 331 272.99"/><polygon class="cls-1" points="321 262.99 331 262.99 331 132.9 401 144.57 401 134.43 321 121.1 321 262.99"/><polygon class="cls-1" points="691 182.76 411 136.1 411 146.24 681 191.24 681 721.1 551 699.43 551 709.57 691 732.9 691 182.76"/><rect class="cls-1" x="321" y="262.99" width="10" height="10"/><polygon class="cls-1" points="541 697.76 541 707.9 551 709.57 551 699.43 541 697.76"/><polygon class="cls-1" points="401 144.57 411 146.24 411 136.1 401 134.43 401 144.57"/><polygon class="cls-1" points="321 576.1 321 586.24 331 584.57 331 574.43 321 576.1"/></svg>