<svg id="Layer_1" data-name="Layer 1" xmlns="http://www.w3.org/2000/svg" viewBox="0 0 732 838"><defs><style>.cls-1{fill:#4662ac;}</style></defs><title>Artboard 1 copy</title><polygon class="cls-1" points="536 797.99 186 797.99 186 602.9 176 604.57 176 807.99 546 807.99 546 704.57 536 702.9 536 797.99"/><rect class="cls-1" x="326" y="257.99" width="70" height="10"/><polygon class="cls-1" points="316 267.99 316 257.99 176 257.99 176 594.43 186 592.76 186 267.99 316 267.99"/><polygon class="cls-1" points="406 257.99 406 267.99 536 267.99 536 692.76 546 694.43 546 257.99 406 257.99"/><rect class="cls-1" x="396" y="257.99" width="10" height="10"/><polygon class="cls-1" points="186 592.76 176 594.43 176 604.57 186 602.9 186 592.76"/><rect class="cls-1" x="316" y="257.99" width="10" height="10"/><polygon class="cls-1" points="536 692.76 536 702.9 546 704.57 546 694.43 536 692.76"/></svg>