<svg id="Layer_1" data-name="Layer 1" xmlns="http://www.w3.org/2000/svg" xmlns:xlink="http://www.w3.org/1999/xlink" viewBox="0 0 62.95 77.24"><defs><style>.cls-1,.cls-2,.cls-5{fill:#8e8e8e;}.cls-2{clip-rule:evenodd;}.cls-3{fill:none;}.cls-4{clip-path:url(#clip-path);}.cls-5{fill-rule:evenodd;}.cls-6{clip-path:url(#clip-path-2);}.cls-7{clip-path:url(#clip-path-3);}.cls-8,.cls-9{fill:#999;}.cls-12,.cls-8{opacity:0.7;}.cls-10{opacity:0.65;}.cls-11{fill:#a3a2a2;}.cls-13{clip-path:url(#clip-path-4);}.cls-14{clip-path:url(#clip-path-5);}.cls-15{fill:#b7b7b7;}.cls-16{clip-path:url(#clip-path-6);}.cls-17{fill:#5e5e5e;}</style><clipPath id="clip-path"><rect class="cls-1" x="1028.28" y="174.51" width="36.91" height="55.37"/></clipPath><clipPath id="clip-path-2"><polygon class="cls-2" points="1023.38 150.78 986.47 157.1 986.47 214.06 1023.38 207.73 1023.38 150.78"/></clipPath><clipPath id="clip-path-3"><polygon class="cls-2" points="1070.1 220.91 1107.01 227.24 1107.01 170.29 1070.1 163.96 1070.1 220.91"/></clipPath><clipPath id="clip-path-4"><rect class="cls-3" x="35.41" y="11.37" width="27.54" height="57.71"/></clipPath><clipPath id="clip-path-5"><rect class="cls-3" y="0.22" width="35.41" height="59.02"/></clipPath><clipPath id="clip-path-6"><rect class="cls-3" x="13.77" y="54.65" width="35.41" height="22.39"/></clipPath></defs><title>PPA – Image Placeholder</title><rect class="cls-1" x="1028.28" y="174.51" width="36.91" height="55.37"/><g class="cls-4"><rect class="cls-1" x="-669.78" y="-1030.49" width="3796.91" height="6349.28"/></g><polygon class="cls-5" points="1023.38 150.78 986.47 157.1 986.47 214.06 1023.38 207.73 1023.38 150.78"/><g class="cls-6"><rect class="cls-1" x="-666.77" y="-1030.49" width="3796.91" height="6349.28"/></g><polygon class="cls-5" points="1070.1 220.91 1107.01 227.24 1107.01 170.29 1070.1 163.96 1070.1 220.91"/><g class="cls-7"><rect class="cls-1" x="-681.05" y="-1030.49" width="3796.91" height="6349.28"/></g><polygon class="cls-8" points="27.54 23.92 13.77 23.92 13.77 56.94 27.54 54.65 27.54 23.92"/><polygon class="cls-9" points="35.41 23.92 35.41 53.34 27.54 54.65 27.54 63.17 49.18 66.78 49.18 23.92 35.41 23.92"/><g class="cls-10"><polygon class="cls-11" points="27.54 23.92 35.41 23.92 35.41 11.37 27.54 10.05 27.54 23.92"/></g><g class="cls-12"><g class="cls-13"><polygon class="cls-1" points="62.95 15.96 35.41 11.37 35.41 23.92 49.18 23.92 49.18 66.78 62.95 69.08 62.95 15.96"/></g></g><g class="cls-12"><g class="cls-14"><polygon class="cls-15" points="27.54 23.92 27.54 10.05 35.41 11.37 35.41 0.22 0 6.12 0 59.24 13.77 56.94 13.77 23.92 27.54 23.92"/></g></g><g class="cls-16"><polygon class="cls-17" points="27.54 54.65 13.77 56.94 13.77 77.04 49.18 77.04 49.18 66.78 27.54 63.17 27.54 54.65"/></g><polygon class="cls-1" points="27.54 23.92 35.41 23.92 35.41 53.34 27.54 54.65 27.54 23.92"/></svg>