<svg id="Layer_1" data-name="Layer 1" xmlns="http://www.w3.org/2000/svg" viewBox="0 0 1200 1200">
  <defs>
    <style>
      .cls-1 {
        fill: #fff;
      }

      .cls-2 {
        opacity: 0.7;
      }

      .cls-3 {
        opacity: 0.85;
      }
    </style>
  </defs>
  <title>ppa-logo-for-dark-wo-bg</title>
  <g>
    <g>
      <g>
        <path class="cls-1" d="M412.70669,940.08037v-38.592H424.9283a12.59727,12.59727,0,0,1,8.79956,2.9795,10.27594,10.27594,0,0,1,3.28311,7.99936,10.70386,10.70386,0,0,1-1.68272,5.959,9.6211,9.6211,0,0,1-4.60819,3.76426,23.41759,23.41759,0,0,1-8.38531,1.17327h-4.0833v16.71659Zm11.25417-33.68275h-5.70942V918.452h6.04133a7.65871,7.65871,0,0,0,5.18711-1.58495,5.69288,5.69288,0,0,0,1.81909-4.53872Q431.299,906.40019,423.96086,906.39761Z"/>
        <path class="cls-1" d="M450.44959,940.08037V901.54242h9.65636q5.84707,0,9.28328,2.89716a9.71033,9.71033,0,0,1,3.43234,7.83469,9.6423,9.6423,0,0,1-6.50961,9.48911,17.0477,17.0477,0,0,1,3.615,3.31141,67.05035,67.05035,0,0,1,4.96583,7.30981q2.01078,3.28054,3.2265,4.93753l2.04037,2.75822H473.596l-1.68015-2.53952c-.05661-.09263-.16724-.247-.33191-.46828l-1.0755-1.51805-1.70588-2.81483-1.84739-3.01038a29.77177,29.77177,0,0,0-3.1313-3.77712,11.92107,11.92107,0,0,0-2.56782-2.02493,8.68683,8.68683,0,0,0-3.85174-.62009h-1.43572v16.77319Zm7.17344-33.84742h-1.65442v12.165h2.097a15.548,15.548,0,0,0,5.75059-.71786,5.38792,5.38792,0,0,0,2.42631-2.16387,6.27332,6.27332,0,0,0,.86966-3.29855,5.90086,5.90086,0,0,0-.96486-3.296,5.15948,5.15948,0,0,0-2.71706-2.08153A19.61448,19.61448,0,0,0,457.623,906.23294Z"/>
        <path class="cls-1" d="M492.937,901.54242h5.51645v38.53795H492.937Z"/>
        <path class="cls-1" d="M546.09976,901.54242h5.24114v38.53795h-4.74456l-25.76572-29.67921v29.67921h-5.18711V901.54242h4.46925l25.987,29.93136Z"/>
        <path class="cls-1" d="M601.27711,931.14187v6.06964a28.79714,28.79714,0,0,1-14.015,3.31141,21.589,21.589,0,0,1-10.95056-2.59355,19.104,19.104,0,0,1-7.11684-7.14514,19.40179,19.40179,0,0,1-2.62186-9.84933,18.803,18.803,0,0,1,6.00017-14.15134,20.601,20.601,0,0,1,14.79972-5.73772,34.72723,34.72723,0,0,1,13.49008,3.17247v5.9307a26.56973,26.56973,0,0,0-13.21478-3.862,15.27509,15.27509,0,0,0-10.99173,4.18108,14.74693,14.74693,0,0,0-.06947,20.89509,15.34409,15.34409,0,0,0,11.00717,4.0833A24.973,24.973,0,0,0,601.27711,931.14187Z"/>
        <path class="cls-1" d="M616.53739,901.54242h21.84709v4.9118H622.05384V918.205h15.78v4.93753h-15.78v11.972h16.85553v4.9118h-22.372Z"/>
        <path class="cls-1" d="M649.97829,901.48839h32.193v4.90923H668.73782v33.68275h-5.54475V906.39761H649.97829Z"/>
        <path class="cls-1" d="M711.0992,900.9918a20.72174,20.72174,0,0,1,14.87177,5.65539,18.75839,18.75839,0,0,1,5.941,14.17707,18.45932,18.45932,0,0,1-5.995,14.11017q-5.99759,5.58849-15.12135,5.58849a20.091,20.091,0,0,1-14.51413-5.58849,18.62008,18.62008,0,0,1-5.80462-13.99953,19.03214,19.03214,0,0,1,5.84579-14.2877A20.38591,20.38591,0,0,1,711.0992,900.9918Zm.2187,5.24114a14.95087,14.95087,0,0,0-10.8708,4.13734,14.08819,14.08819,0,0,0-4.25827,10.56462A13.84449,13.84449,0,0,0,700.46,931.30911a15.85779,15.85779,0,0,0,21.456-.08491,14.10811,14.10811,0,0,0,4.3123-10.508,13.78752,13.78752,0,0,0-4.3123-10.30475A14.64855,14.64855,0,0,0,711.3179,906.23294Z"/>
        <path class="cls-1" d="M777.79316,901.54242h5.24114v38.53795h-4.74456L752.524,910.40115v29.67921h-5.18711V901.54242h4.46925l25.987,29.93136Z"/>
      </g>
      <g>
        <path class="cls-1" d="M474.28559,1100.79823h3.87747l17.28007,38.75922h-5.64767L484.6598,1128.136H468.21852l-4.814,11.42141h-5.67083Zm8.10743,22.42858-6.21887-13.95836-5.766,13.95836Z"/>
        <path class="cls-1" d="M508.30283,1139.55745V1101.0195h9.65636q5.84707,0,9.28328,2.89716a9.71033,9.71033,0,0,1,3.43234,7.8347,9.6423,9.6423,0,0,1-6.50961,9.48911,17.04768,17.04768,0,0,1,3.615,3.31141,67.05025,67.05025,0,0,1,4.96583,7.30981q2.01078,3.28054,3.2265,4.93753l2.04037,2.75822h-6.56365l-1.68015-2.53952c-.05661-.09263-.16724-.247-.33191-.46828l-1.0755-1.51805-1.70588-2.81483-1.84739-3.01037a29.77181,29.77181,0,0,0-3.1313-3.77712,11.92106,11.92106,0,0,0-2.56782-2.02493,8.68684,8.68684,0,0,0-3.85174-.62009h-1.43572v16.77319Zm7.17344-33.84742h-1.65442v12.165h2.097a15.548,15.548,0,0,0,5.75059-.71786,5.38792,5.38792,0,0,0,2.42631-2.16387,6.27332,6.27332,0,0,0,.86966-3.29855,5.90086,5.90086,0,0,0-.96486-3.296,5.15949,5.15949,0,0,0-2.71706-2.08153A19.61449,19.61449,0,0,0,515.47627,1105.71Z"/>
        <path class="cls-1" d="M583.94815,1130.619v6.06964A28.79713,28.79713,0,0,1,569.93318,1140a21.589,21.589,0,0,1-10.95056-2.59355,19.104,19.104,0,0,1-7.11684-7.14514,19.4018,19.4018,0,0,1-2.62186-9.84933,18.803,18.803,0,0,1,6.00017-14.15134,20.601,20.601,0,0,1,14.79972-5.73772,34.72722,34.72722,0,0,1,13.49008,3.17247v5.9307a26.56973,26.56973,0,0,0-13.21478-3.862,15.27509,15.27509,0,0,0-10.99173,4.18108,14.74693,14.74693,0,0,0-.06947,20.89509,15.34409,15.34409,0,0,0,11.00717,4.0833A24.973,24.973,0,0,0,583.94815,1130.619Z"/>
        <path class="cls-1" d="M626.38158,1101.0195H631.898v38.53795h-5.51645v-16.77319H604.72489v16.77319h-5.51645V1101.0195h5.51645v16.66256h21.65669Z"/>
        <path class="cls-1" d="M648.92337,1101.0195h5.51645v38.53795h-5.51645Z"/>
        <path class="cls-1" d="M695.87493,1101.0195h5.49329l-16.292,38.70262h-1.25046l-16.60852-38.70262h5.555l11.58866,27.0625Z"/>
        <path class="cls-1" d="M714.06326,1101.0195h21.84709v4.9118H719.57971v11.75076h15.78v4.93753h-15.78v11.972h16.85553v4.9118h-22.372Z"/>
      </g>
      <g>
        <path class="cls-1" d="M363.06895,992.95036c-3.37574-4.10389-9.28842-6.15454-15.68225-6.15454a5.14043,5.14043,0,0,0-3.13645.84393,2.83343,2.83343,0,0,0-.84651,1.69044c-.12093,2.41345-.48115,10.737-.48115,27.02391V1041.209c0,8.32356.723,9.40935,9.04914,11.34165,1.68787.36022,2.65273,1.08579,2.65273,2.41087,0,1.20672-1.8088,1.9323-3.25738,1.9323-3.62017,0-6.152-.48372-11.09979-.48372-4.34317,0-12.54838.723-16.52876.723-1.68787,0-3.73853-.723-3.73853-1.92973,0-1.32765.84393-1.92973,3.49667-2.65273,6.51476-1.81137,6.51476-2.89717,7.4822-9.291.36022-2.77624,1.08579-13.51324,1.08579-34.98725,0-9.41193,0-13.7551-.36279-16.52876-.24186-2.77623-2.89459-3.49924-7.35869-4.706-1.9323-.48372-3.25738-1.69044-3.25738-2.89459,0-1.44858.96486-1.81137,3.01552-1.81137,2.77366,0,10.25329.36279,11.8228.36279,4.10131,0,9.17007-.72558,15.08018-.72558,10.49772,0,17.73548,3.26,21.83937,7.4822a25.07378,25.07378,0,0,1,5.91011,15.92411,22.44422,22.44422,0,0,1-6.87755,16.40783c-4.94525,4.82689-12.66673,6.63569-16.768,6.63569-.84651,0-2.89716.12093-4.22224-.84393-.60465-.36279-1.9323-1.56694-1.9323-2.17159a1.68817,1.68817,0,0,1,1.32765-1.56694,23.12929,23.12929,0,0,0,2.65531-.36279c6.152-.12093,14.23624-5.308,14.23624-17.13341C367.17284,1000.91113,365.4824,995.845,363.06895,992.95036Z"/>
        <path class="cls-1" d="M442.45795,1014.18251a56.23045,56.23045,0,0,1-7.35869,4.94782c-.48372.12093-.60465,1.20672-.36279,1.8088,1.69044,3.37831,10.49772,16.89155,16.166,23.28538,5.91269,6.63569,9.291,8.32613,14.23882,9.53028a1.889,1.889,0,0,1,1.68787,1.81137c0,2.29252-5.5499,2.89459-6.99848,2.89459-5.308,0-12.42487-.723-21.35308-12.30652-4.34317-5.67083-11.34165-16.045-13.63417-19.30242-2.77366-3.862-5.79176-3.983-9.89307-3.983a1.92517,1.92517,0,0,0-1.68787,1.81137c0,9.65121.12093,15.80318.48115,20.028.36279,4.34317,1.92973,5.91011,7.47962,7.35869,2.29252.60208,3.25738,1.32765,3.25738,2.65531,0,1.446-2.05066,2.17159-3.85946,2.17159-3.01552,0-9.291-.48372-13.51324-.48372-3.73853,0-5.79176.48372-10.25586.48372-2.89459,0-4.34317-.84651-4.34317-2.05323,0-1.08579,1.20672-1.8088,3.37831-2.5318,4.706-1.56951,6.27547-2.17159,6.51476-8.2052.12093-4.34317.12093-8.32356.12093-30.042,0-14.83832-.23929-19.78614-.48115-22.31794-.24186-2.41345-2.05066-3.7411-6.63569-4.585-2.05066-.36279-3.49924-1.32765-3.49924-2.41345,0-1.8088,2.29252-2.29252,4.82689-2.29252h10.61608c4.585,0,9.53028-.60208,15.322-.60208,10.61608,0,15.08018,2.41087,17.97734,4.58246a17.69231,17.69231,0,0,1,7.47962,14.84089A18.64943,18.64943,0,0,1,442.45795,1014.18251Zm-22.68073-27.50762a18.941,18.941,0,0,0-5.429.96486,2.59828,2.59828,0,0,0-1.32765,2.41345c-.24186,6.63569,0,19.66521.24186,25.69883a1.455,1.455,0,0,0,.96486,1.44858,27.05242,27.05242,0,0,0,7.23777,1.08579c1.81137,0,8.56542-2.17159,11.22072-4.585a16.14393,16.14393,0,0,0,3.98038-10.85793C436.66619,994.15451,432.08373,986.67489,419.77721,986.67489Z"/>
        <path class="cls-1" d="M553.81867,1019.25127a39.74454,39.74454,0,0,1-20.028,34.26425,42.494,42.494,0,0,1-20.14893,5.06618c-22.56238,0-40.056-17.49363-40.056-38.72835a38.953,38.953,0,0,1,10.85793-26.78462c7.36127-7.35869,18.46106-12.5458,29.19807-12.5458C535.96226,980.52292,553.81867,996.68889,553.81867,1019.25127ZM495.6644,992.58757c-5.18711,5.429-8.92821,13.75253-8.92821,25.81718,0,16.89155,11.22072,34.98982,29.67921,34.98982a21.62081,21.62081,0,0,0,14.84089-5.5499c4.82689-4.585,9.291-13.39231,9.291-28.11227,0-17.13084-11.22072-34.14332-29.07714-34.14332C505.6784,985.5891,499.28457,989.08834,495.6644,992.58757Z"/>
        <path class="cls-1" d="M611.48923,983.41751c.723.12093,1.56694,2.05066,1.56694,3.37831,0,1.44858.48372,6.87755.48372,8.68635,0,2.53438-.96486,4.10389-2.53438,4.10389-.96486,0-1.68787-1.81137-2.05066-2.77623-2.29252-7.84241-7.23777-11.46258-14.72-11.46258a11.86416,11.86416,0,0,0-11.94373,11.82537c0,7.11684,3.01552,10.737,13.63417,16.889,11.94373,6.87755,19.66521,12.54838,19.66521,23.89,0,7.84241-5.429,13.6316-9.291,16.045-4.22224,2.77624-11.46,4.585-16.52876,4.585-5.5499,0-14.83832-2.05066-17.61455-4.22224a5.88867,5.88867,0,0,1-1.68787-2.41345c-1.44858-3.01552-1.92973-7.84241-1.92973-10.737,0-2.6553,1.08579-3.862,2.05066-3.862,1.68787,0,2.17159,1.32765,2.89459,3.0181,4.585,10.25329,12.54838,13.27138,18.70035,13.27138a12.21335,12.21335,0,0,0,12.18559-12.42745c0-5.91269-3.37831-9.65121-16.2869-17.73548-7.11941-4.34317-16.04762-11.09979-16.04762-22.68331,0-7.96077,4.82689-13.38974,9.65378-16.40783a29.36171,29.36171,0,0,1,14.83832-3.85946C602.0773,980.52292,607.267,982.33172,611.48923,983.41751Z"/>
        <path class="cls-1" d="M712.47059,1019.25127a39.74454,39.74454,0,0,1-20.028,34.26425,42.494,42.494,0,0,1-20.14893,5.06618c-22.56238,0-40.056-17.49363-40.056-38.72835a38.953,38.953,0,0,1,10.85793-26.78462c7.36127-7.35869,18.46106-12.5458,29.19807-12.5458C694.61418,980.52292,712.47059,996.68889,712.47059,1019.25127Zm-58.15427-26.66369c-5.18711,5.429-8.92821,13.75253-8.92821,25.81718,0,16.89155,11.22072,34.98982,29.67921,34.98982a21.62081,21.62081,0,0,0,14.84089-5.5499c4.82689-4.585,9.291-13.39231,9.291-28.11227,0-17.13084-11.22072-34.14332-29.07714-34.14332C664.33032,985.5891,657.93649,989.08834,654.31632,992.58757Z"/>
        <path class="cls-1" d="M792.45909,991.74364a34.86163,34.86163,0,0,1,12.42745,27.14484c0,18.45849-11.46258,28.47249-17.97734,32.09266-8.56542,4.585-18.93963,6.39383-27.86784,6.39383-4.94782,0-15.92669-.96486-19.78614-.96486-3.862,0-10.86051.60208-13.51324.60208-.84393,0-1.92973-.723-1.92973-1.56694,0-1.32765,1.446-2.77624,4.4641-3.62017,3.49667-.96486,7.60055-2.05066,8.20263-7.47962.48372-5.5499.84393-11.70187.84393-27.62855,0-16.40783-.23929-22.56238-.723-24.734-.24186-1.32508-.96486-3.49667-7.47962-4.34317-2.89716-.36022-4.34317-1.56694-4.34317-2.65273,0-1.32765,1.8088-2.29252,4.94525-2.29252h9.89307c4.22224,0,12.66931-.96486,21.11379-.96486C772.31273,981.72964,783.53088,984.14309,792.45909,991.74364Zm-41.74387-3.7411a4.54667,4.54667,0,0,0-2.05066,2.41345c-.12093,3.13645-.36279,12.5458-.36279,21.59494v8.08427c0,15.443.24186,17.61455.72558,21.35565.84393,5.308,3.01552,7.35869,4.10131,7.96077a30.685,30.685,0,0,0,11.09979,2.77624c2.89459,0,13.63417-3.13645,19.06314-8.56542,5.67083-5.67083,8.92821-13.876,8.92821-24.37117,0-9.17007-2.89716-17.61455-9.04914-23.64817-5.67083-5.5499-15.08275-8.80728-23.89-8.80728A47.19147,47.19147,0,0,0,750.71522,988.00254Z"/>
        <path class="cls-1" d="M812.85245,982.08986c2.41345,0,8.44449.60465,12.06466.60465,5.06875,0,10.25586-.48372,12.30652-.48372,1.56951,0,3.25738.72558,3.25738,2.05066,0,1.20672-.84393,1.9323-3.7411,2.65531-3.25738.84393-2.77366,2.05066-1.446,4.706,3.98038,8.0817,12.90859,23.88746,14.11531,25.336.60208.723.84393.60208,1.44858.12093,1.08579-.72558,12.06466-19.42593,13.87346-23.16445,2.29252-4.706,2.41345-5.79176-2.29252-7.11941-1.92973-.60208-2.89459-1.56694-2.89459-2.41345,0-1.32765,1.32765-2.05066,3.98038-2.05066,3.7411,0,7.60055.36279,9.04914.36279,3.37831,0,7.35869-.60465,10.49515-.60465,2.17416,0,3.37831.96486,3.37831,2.05323,0,.84393-.84393,2.17159-3.25738,2.77366a19.11645,19.11645,0,0,0-11.8228,7.84241c-5.18711,6.87755-15.68483,23.52724-17.25177,27.14484a23.83971,23.83971,0,0,0-1.32765,6.63569c-.36279,4.34317-.12093,14.35717-.12093,18.09827.24186,2.05066,1.08579,3.62017,9.04914,5.429a3.01636,3.01636,0,0,1,2.65273,2.53438c0,1.20672-1.446,2.17159-3.98038,2.17159-1.92973,0-7.60055-.36279-12.30652-.36279-4.94525,0-12.42745.48372-14.71739.48372-2.17159,0-3.37831-.84651-3.37831-2.17159,0-1.56951,2.05066-2.17159,4.22224-2.77624,4.82432-1.44858,6.75662-2.53438,7.23777-10.85793.24186-3.98039.12093-10.97886.12093-13.39231,0-2.05066-.60208-3.62017-2.29252-7.11941-3.25738-6.754-12.78766-22.92259-16.045-27.26577-1.69044-2.29252-4.22224-4.4641-10.49772-6.63569-2.77366-.84393-3.25738-1.8088-3.25738-2.5318C809.47414,982.6945,811.28551,982.08986,812.85245,982.08986Z"/>
      </g>
    </g>
    <g class="cls-2">
      <polygon class="cls-1" points="560 613.333 420 636.667 420 840.992 780 840.992 780 736.667 560 700 560 613.333"/>
    </g>
    <g class="cls-2">
      <polygon class="cls-1" points="560 300.992 560 160 640 173.333 640 60 280 120 280 660 420 636.667 420 300.992 560 300.992"/>
    </g>
    <g class="cls-3">
      <polygon class="cls-1" points="560 300.992 420 300.992 420 636.667 560 613.333 560 300.992"/>
    </g>
    <g class="cls-2">
      <polygon class="cls-1" points="920 220 640 173.333 640 300.992 780 300.992 780 736.667 920 760 920 220"/>
    </g>
    <g class="cls-3">
      <polygon class="cls-1" points="640 300.992 640 600 560 613.333 560 700 780 736.667 780 300.992 640 300.992"/>
    </g>
    <g class="cls-3">
      <polygon class="cls-1" points="560 300.992 640 300.992 640 173.333 560 160 560 300.992"/>
    </g>
    <polygon class="cls-1" points="560 613.333 640 600 640 300.992 560 300.992 560 613.333"/>
  </g>
</svg>
