<svg id="Layer_1" data-name="Layer 1" xmlns="http://www.w3.org/2000/svg" xmlns:xlink="http://www.w3.org/1999/xlink" viewBox="0 0 152.39 75.16"><defs><style>.cls-1{fill:none;}.cls-2{clip-path:url(#clip-path);}.cls-3{fill:#373636;}.cls-4{clip-path:url(#clip-path-2);}.cls-5{clip-path:url(#clip-path-3);}.cls-6{clip-path:url(#clip-path-4);}.cls-7{clip-path:url(#clip-path-5);}.cls-8{clip-path:url(#clip-path-6);}.cls-9{clip-path:url(#clip-path-7);}.cls-10{clip-path:url(#clip-path-8);}.cls-11{clip-path:url(#clip-path-9);}.cls-12{clip-path:url(#clip-path-10);}.cls-13{clip-path:url(#clip-path-11);}.cls-14{clip-path:url(#clip-path-12);}.cls-15{clip-path:url(#clip-path-13);}.cls-16{clip-path:url(#clip-path-14);}.cls-17{clip-path:url(#clip-path-15);}.cls-18{clip-path:url(#clip-path-16);}.cls-19{clip-path:url(#clip-path-17);}.cls-20{clip-path:url(#clip-path-18);}.cls-21{clip-path:url(#clip-path-19);}.cls-22{clip-path:url(#clip-path-20);}.cls-23{clip-path:url(#clip-path-21);}.cls-24{clip-path:url(#clip-path-22);}.cls-25{clip-path:url(#clip-path-23);}</style><clipPath id="clip-path"><path class="cls-1" d="M31.45,7.47H30v2.94h1.51a2,2,0,0,0,1.3-.39,1.37,1.37,0,0,0,.46-1.1C33.29,8,32.67,7.47,31.45,7.47Zm-2.82,8.2V6.28h3.06A3.27,3.27,0,0,1,33.9,7,2.51,2.51,0,0,1,34.72,9a2.58,2.58,0,0,1-.42,1.45,2.4,2.4,0,0,1-1.16.92,6,6,0,0,1-2.1.28H30v4.07Z"/></clipPath><clipPath id="clip-path-2"><path class="cls-1" d="M39.88,7.43h-.42v3H40a3.93,3.93,0,0,0,1.44-.17A1.36,1.36,0,0,0,42,9.69a1.5,1.5,0,0,0,.21-.8,1.37,1.37,0,0,0-.24-.8,1.29,1.29,0,0,0-.68-.51A5,5,0,0,0,39.88,7.43Zm-1.8,8.24V6.29H40.5A3.55,3.55,0,0,1,42.82,7a2.31,2.31,0,0,1,.86,1.9,2.34,2.34,0,0,1-1.63,2.31A4.4,4.4,0,0,1,43,12,16.67,16.67,0,0,1,44.2,13.8q.51.79.81,1.2l.51.67H43.88l-.42-.61-.09-.12-.27-.37-.42-.68-.47-.74a7.45,7.45,0,0,0-.78-.92,3.39,3.39,0,0,0-.64-.49,2.3,2.3,0,0,0-1-.15h-.36v4.08Z"/></clipPath><clipPath id="clip-path-3"><rect class="cls-1" x="48.72" y="6.29" width="1.38" height="9.38"/></clipPath><clipPath id="clip-path-4"><polygon class="cls-1" points="62.03 6.29 63.34 6.29 63.34 15.67 62.15 15.67 55.7 8.45 55.7 15.67 54.4 15.67 54.4 6.29 55.52 6.29 62.03 13.58 62.03 6.29"/></clipPath><clipPath id="clip-path-5"><path class="cls-1" d="M75.84,13.5V15a7.35,7.35,0,0,1-3.51.8,5.55,5.55,0,0,1-2.74-.63,4.72,4.72,0,0,1-1.78-1.74,4.64,4.64,0,0,1-.66-2.4,4.51,4.51,0,0,1,1.5-3.44,5.27,5.27,0,0,1,3.71-1.4,9,9,0,0,1,3.38.77V8.39a6.75,6.75,0,0,0-3.31-.94,3.85,3.85,0,0,0-2.75,1,3.52,3.52,0,0,0,0,5.09,4,4,0,0,0,2.75,1A6.47,6.47,0,0,0,75.84,13.5Z"/></clipPath><clipPath id="clip-path-6"><polygon class="cls-1" points="79.66 6.29 85.13 6.29 85.13 7.49 81.04 7.49 81.04 10.35 84.99 10.35 84.99 11.55 81.04 11.55 81.04 14.46 85.26 14.46 85.26 15.66 79.66 15.66 79.66 6.29"/></clipPath><clipPath id="clip-path-7"><polygon class="cls-1" points="88.03 6.28 96.09 6.28 96.09 7.47 92.73 7.47 92.73 15.67 91.34 15.67 91.34 7.47 88.03 7.47 88.03 6.28"/></clipPath><clipPath id="clip-path-8"><path class="cls-1" d="M103.39,7.43a3.82,3.82,0,0,0-2.72,1A3.36,3.36,0,0,0,99.6,11a3.31,3.31,0,0,0,1.07,2.53,4.06,4.06,0,0,0,5.37,0A3.42,3.42,0,0,0,107.12,11,3.3,3.3,0,0,0,106,8.45a3.75,3.75,0,0,0-2.65-1Zm-.06-1.27a5.31,5.31,0,0,1,3.73,1.37A4.5,4.5,0,0,1,108.54,11a4.41,4.41,0,0,1-1.5,3.43,5.39,5.39,0,0,1-3.78,1.36,5.13,5.13,0,0,1-3.64-1.36A4.47,4.47,0,0,1,98.17,11a4.57,4.57,0,0,1,1.46-3.48A5.19,5.19,0,0,1,103.33,6.16Z"/></clipPath><clipPath id="clip-path-9"><polygon class="cls-1" points="120.03 6.29 121.34 6.29 121.34 15.67 120.15 15.67 113.7 8.45 113.7 15.67 112.4 15.67 112.4 6.29 113.52 6.29 120.03 13.58 120.03 6.29"/></clipPath><clipPath id="clip-path-10"><path class="cls-1" d="M45.86,66.79,44.31,63.3l-1.45,3.49Zm-2-5.61h1l4.33,9.69H47.71L46.43,68H42.32l-1.21,2.86H39.69Z"/></clipPath><clipPath id="clip-path-11"><path class="cls-1" d="M54.14,62.41h-.41v3h.52a3.88,3.88,0,0,0,1.44-.18,1.33,1.33,0,0,0,.61-.54,1.72,1.72,0,0,0,.22-.83,1.49,1.49,0,0,0-.25-.82,1.26,1.26,0,0,0-.68-.52A4.71,4.71,0,0,0,54.14,62.41Zm-1.79,8.46V61.23h2.41a3.52,3.52,0,0,1,2.32.73,2.59,2.59,0,0,1-.77,4.33,4.22,4.22,0,0,1,.91.83A16.33,16.33,0,0,1,58.46,69q.51.81.81,1.23l.51.69H58.14l-.42-.63a.61.61,0,0,0-.09-.12l-.27-.38L56.94,69l-.46-.75a7.86,7.86,0,0,0-.79-.94,2.87,2.87,0,0,0-.64-.51,2.13,2.13,0,0,0-1-.15h-.36v4.19Z"/></clipPath><clipPath id="clip-path-12"><path class="cls-1" d="M71.27,68.64v1.51a7.12,7.12,0,0,1-3.5.83A5.33,5.33,0,0,1,65,70.33a4.68,4.68,0,0,1-1.78-1.78,4.86,4.86,0,0,1-.66-2.47,4.71,4.71,0,0,1,1.5-3.54,5.15,5.15,0,0,1,3.71-1.43,8.94,8.94,0,0,1,3.37.79v1.49a6.67,6.67,0,0,0-3.31-1,3.8,3.8,0,0,0-2.75,1,3.68,3.68,0,0,0,0,5.22,3.81,3.81,0,0,0,2.75,1A6.23,6.23,0,0,0,71.27,68.64Z"/></clipPath><clipPath id="clip-path-13"><polygon class="cls-1" points="81.89 61.23 83.27 61.23 83.27 70.87 81.89 70.87 81.89 66.68 76.47 66.68 76.47 70.87 75.09 70.87 75.09 61.23 76.47 61.23 76.47 65.4 81.89 65.4 81.89 61.23"/></clipPath><clipPath id="clip-path-14"><rect class="cls-1" x="87.53" y="61.23" width="1.38" height="9.64"/></clipPath><clipPath id="clip-path-15"><polygon class="cls-1" points="99.28 61.23 100.66 61.23 96.58 70.91 96.27 70.91 92.11 61.23 93.5 61.23 96.4 68 99.28 61.23"/></clipPath><clipPath id="clip-path-16"><polygon class="cls-1" points="103.83 61.23 109.3 61.23 109.3 62.46 105.21 62.46 105.21 65.4 109.16 65.4 109.16 66.64 105.21 66.64 105.21 69.63 109.43 69.63 109.43 70.86 103.83 70.86 103.83 61.23"/></clipPath><clipPath id="clip-path-17"><path class="cls-1" d="M16.3,31.36a5,5,0,0,0-3.93-1.55,1.38,1.38,0,0,0-.79.21.79.79,0,0,0-.21.43c0,.61-.12,2.7-.12,6.8V43.5c0,2.1.18,2.37,2.27,2.85.42.1.66.28.66.61s-.45.49-.81.49c-.91,0-1.54-.12-2.78-.12-1.09,0-3.15.18-4.14.18-.43,0-.94-.18-.94-.49s.21-.48.88-.67C8,45.9,8,45.63,8.26,44c.09-.7.27-3.4.27-8.8a41.2,41.2,0,0,0-.09-4.16c-.06-.7-.72-.88-1.84-1.19-.49-.12-.82-.42-.82-.73s.24-.45.76-.45c.69,0,2.57.09,3,.09,1,0,2.3-.18,3.78-.18a7.47,7.47,0,0,1,5.47,1.88,6.37,6.37,0,0,1,1.48,4,5.65,5.65,0,0,1-1.73,4.12,6.55,6.55,0,0,1-4.2,1.67,1.75,1.75,0,0,1-1.05-.21c-.16-.09-.49-.39-.49-.54a.43.43,0,0,1,.33-.4c.23,0,.45-.05.67-.09,1.54,0,3.57-1.34,3.57-4.31A5.55,5.55,0,0,0,16.3,31.36Z"/></clipPath><clipPath id="clip-path-18"><path class="cls-1" d="M30.5,29.78a5.25,5.25,0,0,0-1.36.24.67.67,0,0,0-.33.61c-.06,1.67,0,4.95.06,6.47a.36.36,0,0,0,.24.36,6.56,6.56,0,0,0,1.81.27,6.27,6.27,0,0,0,2.81-1.15,4,4,0,0,0,1-2.73C34.73,31.66,33.58,29.78,30.5,29.78Zm5.68,6.92A13.54,13.54,0,0,1,34.34,38c-.12,0-.15.3-.09.45a42.73,42.73,0,0,0,4,5.86,6.21,6.21,0,0,0,3.56,2.4.47.47,0,0,1,.43.45c0,.58-1.39.73-1.76.73-1.33,0-3.11-.18-5.34-3.09-1.09-1.43-2.85-4-3.42-4.86a2.51,2.51,0,0,0-2.48-1,.48.48,0,0,0-.42.45c0,2.43,0,4,.12,5s.48,1.49,1.87,1.85c.58.15.82.34.82.67s-.51.55-1,.55c-.75,0-2.32-.12-3.38-.12s-1.45.12-2.57.12c-.73,0-1.09-.22-1.09-.52s.3-.45.85-.64c1.18-.39,1.57-.54,1.63-2.06,0-1.09,0-2.09,0-7.56,0-3.73-.06-5-.12-5.61s-.51-.94-1.66-1.16c-.52-.09-.88-.33-.88-.6,0-.46.57-.58,1.21-.58h2.66c1.15,0,2.39-.15,3.84-.15,2.66,0,3.77.6,4.5,1.15a4.45,4.45,0,0,1,1.87,3.73A4.68,4.68,0,0,1,36.18,36.7Z"/></clipPath><clipPath id="clip-path-19"><path class="cls-1" d="M49.51,31.27a9.08,9.08,0,0,0-2.24,6.49c0,4.25,2.81,8.81,7.44,8.81a5.4,5.4,0,0,0,3.71-1.4c1.21-1.15,2.33-3.37,2.33-7.07,0-4.31-2.81-8.59-7.28-8.59A6.27,6.27,0,0,0,49.51,31.27ZM64.08,38a10,10,0,0,1-5,8.62A10.6,10.6,0,0,1,54,47.87,9.73,9.73,0,0,1,46.7,31.39,10.78,10.78,0,0,1,54,28.23,9.71,9.71,0,0,1,64.08,38Z"/></clipPath><clipPath id="clip-path-20"><path class="cls-1" d="M78.52,29c.18,0,.39.52.39.85S79,31.54,79,32c0,.64-.24,1-.63,1s-.42-.46-.51-.7a3.55,3.55,0,0,0-3.69-2.88,2.93,2.93,0,0,0-2.11.86,3,3,0,0,0-.88,2.11c0,1.79.75,2.7,3.41,4.25,3,1.73,4.93,3.16,4.93,6a5,5,0,0,1-2.33,4,8.48,8.48,0,0,1-4.14,1.15,9.87,9.87,0,0,1-4.41-1.06,1.37,1.37,0,0,1-.42-.61,7.14,7.14,0,0,1-.49-2.7c0-.67.27-1,.52-1,.42,0,.54.33.72.76a5.08,5.08,0,0,0,4.68,3.34,3.07,3.07,0,0,0,3.06-3.13c0-1.49-.85-2.43-4.08-4.46-1.79-1.09-4-2.79-4-5.71a4.82,4.82,0,0,1,2.42-4.12,7.33,7.33,0,0,1,3.71-1A14.92,14.92,0,0,1,78.52,29Z"/></clipPath><clipPath id="clip-path-21"><path class="cls-1" d="M89.25,31.27A9.08,9.08,0,0,0,87,37.76c0,4.25,2.81,8.81,7.43,8.81a5.44,5.44,0,0,0,3.72-1.4c1.21-1.15,2.33-3.37,2.33-7.07,0-4.31-2.81-8.59-7.28-8.59A6.27,6.27,0,0,0,89.25,31.27ZM103.81,38a10,10,0,0,1-5,8.62,10.6,10.6,0,0,1-5,1.27,9.73,9.73,0,0,1-7.31-16.48,10.78,10.78,0,0,1,7.31-3.16A9.7,9.7,0,0,1,103.81,38Z"/></clipPath><clipPath id="clip-path-22"><path class="cls-1" d="M113.39,30.12a1.11,1.11,0,0,0-.51.6c0,.79-.09,3.16-.09,5.44v2a36.72,36.72,0,0,0,.18,5.37,2.65,2.65,0,0,0,1,2,7.59,7.59,0,0,0,2.78.69,9.25,9.25,0,0,0,4.77-2.15A8.4,8.4,0,0,0,123.79,38,8.16,8.16,0,0,0,121.52,32a8.84,8.84,0,0,0-6-2.22A12,12,0,0,0,113.39,30.12Zm10.46.94A8.78,8.78,0,0,1,127,37.89a9.09,9.09,0,0,1-4.5,8.07,15.12,15.12,0,0,1-7,1.61c-1.24,0-4-.24-5-.24s-2.72.15-3.38.15c-.21,0-.49-.18-.49-.4s.37-.7,1.12-.91,1.91-.51,2.06-1.88.21-2.94.21-6.95a47,47,0,0,0-.18-6.22c-.06-.34-.24-.88-1.88-1.1-.72-.09-1.08-.39-1.08-.66s.45-.58,1.23-.58h2.48c1.06,0,3.18-.24,5.29-.24A11.8,11.8,0,0,1,123.85,31.06Z"/></clipPath><clipPath id="clip-path-23"><path class="cls-1" d="M129,28.63c.6,0,2.11.15,3,.15,1.27,0,2.57-.12,3.08-.12s.82.18.82.51-.22.49-.94.67-.7.52-.36,1.19c1,2,3.23,6,3.53,6.37.15.18.21.15.37,0A66.82,66.82,0,0,0,142,31.6c.57-1.18.6-1.45-.57-1.79-.49-.15-.73-.39-.73-.6s.33-.52,1-.52c.94,0,1.9.09,2.26.09.85,0,1.85-.15,2.63-.15.55,0,.85.24.85.51s-.21.55-.82.7a4.78,4.78,0,0,0-3,2,65.33,65.33,0,0,0-4.32,6.82,6,6,0,0,0-.33,1.67c-.09,1.1,0,3.62,0,4.56.06.51.27.91,2.27,1.36a.76.76,0,0,1,.66.64c0,.3-.36.55-1,.55-.48,0-1.9-.09-3.08-.09s-3.11.12-3.69.12-.84-.22-.84-.55.51-.55,1.06-.7c1.2-.36,1.69-.63,1.81-2.73.06-1,0-2.76,0-3.37a3.94,3.94,0,0,0-.58-1.79,68.21,68.21,0,0,0-4-6.86,5,5,0,0,0-2.63-1.67c-.7-.21-.82-.45-.82-.64C128.11,28.78,128.56,28.63,129,28.63Z"/></clipPath></defs><title>ppaLogoType_NavBar_Revised</title><g class="cls-2"><rect class="cls-3" x="23.63" y="1.27" width="16.09" height="19.4"/></g><g class="cls-4"><rect class="cls-3" x="33.08" y="1.29" width="17.44" height="19.39"/></g><g class="cls-5"><rect class="cls-3" x="43.72" y="1.29" width="11.38" height="19.38"/></g><g class="cls-6"><rect class="cls-3" x="49.4" y="1.29" width="18.94" height="19.38"/></g><g class="cls-7"><rect class="cls-3" x="62.15" y="1.17" width="18.69" height="19.62"/></g><g class="cls-8"><rect class="cls-3" x="74.66" y="1.29" width="15.6" height="19.37"/></g><g class="cls-9"><rect class="cls-3" x="83.03" y="1.28" width="18.06" height="19.4"/></g><g class="cls-10"><rect class="cls-3" x="93.17" y="1.15" width="20.38" height="19.63"/></g><g class="cls-11"><rect class="cls-3" x="107.4" y="1.29" width="18.94" height="19.38"/></g><g class="cls-12"><rect class="cls-3" x="34.69" y="56.18" width="19.44" height="19.69"/></g><g class="cls-13"><rect class="cls-3" x="47.35" y="56.23" width="17.43" height="19.64"/></g><g class="cls-14"><rect class="cls-3" x="57.59" y="56.11" width="18.68" height="19.88"/></g><g class="cls-15"><rect class="cls-3" x="70.09" y="56.23" width="18.18" height="19.64"/></g><g class="cls-16"><rect class="cls-3" x="82.53" y="56.23" width="11.38" height="19.64"/></g><g class="cls-17"><rect class="cls-3" x="87.11" y="56.23" width="18.55" height="19.68"/></g><g class="cls-18"><rect class="cls-3" x="98.83" y="56.23" width="15.6" height="19.62"/></g><g class="cls-19"><rect class="cls-3" x="0.51" y="23.6" width="24.72" height="28.91"/></g><g class="cls-20"><rect class="cls-3" x="18.52" y="23.57" width="28.77" height="29.27"/></g><g class="cls-21"><rect class="cls-3" x="38.98" y="23.23" width="30.1" height="29.64"/></g><g class="cls-22"><rect class="cls-3" x="62.76" y="23.23" width="21.79" height="29.64"/></g><g class="cls-23"><rect class="cls-3" x="78.72" y="23.23" width="30.1" height="29.64"/></g><g class="cls-24"><rect class="cls-3" x="101.65" y="23.54" width="30.31" height="29.03"/></g><g class="cls-25"><rect class="cls-3" x="123.11" y="23.63" width="29.28" height="28.82"/></g></svg>