<svg id="Layer_1" data-name="Layer 1" xmlns="http://www.w3.org/2000/svg" viewBox="0 0 598 272"><defs><style>.cls-1{fill:#363636;}</style></defs><title>prosodylogo</title><path class="cls-1" d="M110.71,55.54V17h12.22a12.59,12.59,0,0,1,8.8,3,10.3,10.3,0,0,1,3.28,8,10.73,10.73,0,0,1-1.68,6,9.59,9.59,0,0,1-4.61,3.76,23.45,23.45,0,0,1-8.39,1.18h-4.08V55.54ZM122,21.86h-5.71v12h6a7.63,7.63,0,0,0,5.19-1.58,5.71,5.71,0,0,0,1.82-4.54q0-5.92-7.34-5.93"/><path class="cls-1" d="M148.45,55.54V17h9.66q5.83,0,9.28,2.9a9.71,9.71,0,0,1,3.43,7.84,9.61,9.61,0,0,1-6.51,9.48,17.47,17.47,0,0,1,3.62,3.32,66.15,66.15,0,0,1,5,7.31c1.34,2.18,2.42,3.83,3.23,4.93l2,2.76H171.6L169.92,53l-.34-.47L168.51,51,166.8,48.2l-1.85-3a29.58,29.58,0,0,0-3.13-3.78,11.87,11.87,0,0,0-2.56-2,8.75,8.75,0,0,0-3.86-.62H154V55.54Zm7.17-33.85H154V33.86h2.09a15.55,15.55,0,0,0,5.76-.72A5.4,5.4,0,0,0,164.24,31a6.31,6.31,0,0,0,.87-3.3,6,6,0,0,0-1-3.3,5.23,5.23,0,0,0-2.72-2.08,19.73,19.73,0,0,0-5.81-.61"/><rect class="cls-1" x="190.94" y="17" width="5.52" height="38.54"/><polygon class="cls-1" points="244.1 17 249.34 17 249.34 55.54 244.6 55.54 218.83 25.86 218.83 55.54 213.64 55.54 213.64 17 218.11 17 244.1 46.94 244.1 17"/><path class="cls-1" d="M299.28,46.6v6.07a28.79,28.79,0,0,1-14,3.31,21.59,21.59,0,0,1-10.95-2.59,19.13,19.13,0,0,1-7.12-7.14,19.5,19.5,0,0,1-2.62-9.85,18.79,18.79,0,0,1,6-14.15,20.59,20.59,0,0,1,14.8-5.74,34.58,34.58,0,0,1,13.49,3.17v5.93a26.58,26.58,0,0,0-13.21-3.86,15.25,15.25,0,0,0-11,4.18,13.87,13.87,0,0,0-4.38,10.47,13.73,13.73,0,0,0,4.31,10.42,15.32,15.32,0,0,0,11,4.09,25,25,0,0,0,13.69-4.31"/><polygon class="cls-1" points="314.54 17 336.38 17 336.38 21.92 320.05 21.92 320.05 33.67 335.83 33.67 335.83 38.6 320.05 38.6 320.05 50.58 336.91 50.58 336.91 55.49 314.54 55.49 314.54 17"/><polygon class="cls-1" points="347.98 16.95 380.17 16.95 380.17 21.86 366.74 21.86 366.74 55.54 361.19 55.54 361.19 21.86 347.98 21.86 347.98 16.95"/><path class="cls-1" d="M409.1,16.45A20.73,20.73,0,0,1,424,22.11a18.75,18.75,0,0,1,5.94,14.18,18.49,18.49,0,0,1-6,14.11A21.34,21.34,0,0,1,408.8,56a20.12,20.12,0,0,1-14.52-5.58,18.63,18.63,0,0,1-5.8-14,19,19,0,0,1,5.84-14.29,20.4,20.4,0,0,1,14.78-5.66m.22,5.24a14.93,14.93,0,0,0-10.87,4.14,14.1,14.1,0,0,0-4.26,10.57,13.84,13.84,0,0,0,4.27,10.37,15.86,15.86,0,0,0,21.46-.08,14.14,14.14,0,0,0,4.31-10.51,13.81,13.81,0,0,0-4.31-10.31,14.68,14.68,0,0,0-10.6-4.18"/><polygon class="cls-1" points="475.79 17 481.03 17 481.03 55.54 476.29 55.54 450.52 25.86 450.52 55.54 445.34 55.54 445.34 17 449.81 17 475.79 46.94 475.79 17"/><path class="cls-1" d="M172.29,216.26h3.87L193.44,255h-5.65l-5.13-11.42H166.22L161.4,255h-5.67Zm8.1,22.43-6.22-14-5.76,14Z"/><path class="cls-1" d="M206.3,255V216.48H216q5.85,0,9.28,2.9a9.7,9.7,0,0,1,3.43,7.83,9.64,9.64,0,0,1-6.51,9.49,16.89,16.89,0,0,1,3.62,3.31,67.91,67.91,0,0,1,5,7.31q2,3.28,3.22,4.94l2,2.76h-6.56l-1.68-2.54-.33-.47-1.08-1.52-1.7-2.81-1.85-3a29.71,29.71,0,0,0-3.13-3.78,11.82,11.82,0,0,0-2.57-2,8.56,8.56,0,0,0-3.85-.62h-1.44V255Zm7.18-33.85h-1.66v12.17h2.1a15.52,15.52,0,0,0,5.75-.72,5.39,5.39,0,0,0,2.43-2.17,6.24,6.24,0,0,0,.87-3.29,5.94,5.94,0,0,0-1-3.3,5.14,5.14,0,0,0-2.72-2.08,19.32,19.32,0,0,0-5.8-.61"/><path class="cls-1" d="M282,246.08v6.07a28.79,28.79,0,0,1-14,3.31A21.59,21.59,0,0,1,257,252.87a19.06,19.06,0,0,1-7.11-7.15,19.35,19.35,0,0,1-2.63-9.85,18.82,18.82,0,0,1,6-14.15A20.64,20.64,0,0,1,268,216a34.61,34.61,0,0,1,13.49,3.18v5.93a26.58,26.58,0,0,0-13.21-3.86,15.25,15.25,0,0,0-11,4.18,14.73,14.73,0,0,0-.07,20.89,15.37,15.37,0,0,0,11,4.09A25,25,0,0,0,282,246.08"/><polygon class="cls-1" points="324.38 216.48 329.9 216.48 329.9 255.02 324.38 255.02 324.38 238.25 302.73 238.25 302.73 255.02 297.21 255.02 297.21 216.48 302.73 216.48 302.73 233.14 324.38 233.14 324.38 216.48"/><rect class="cls-1" x="346.92" y="216.48" width="5.52" height="38.54"/><polygon class="cls-1" points="393.88 216.48 399.37 216.48 383.08 255.18 381.83 255.18 365.22 216.48 370.77 216.48 382.36 243.54 393.88 216.48"/><polygon class="cls-1" points="412.06 216.48 433.91 216.48 433.91 221.39 417.58 221.39 417.58 233.14 433.36 233.14 433.36 238.08 417.58 238.08 417.58 250.05 434.44 250.05 434.44 254.96 412.06 254.96 412.06 216.48"/><path class="cls-1" d="M61.07,108.41c-3.38-4.1-9.29-6.15-15.68-6.15a5.15,5.15,0,0,0-3.14.84,2.86,2.86,0,0,0-.85,1.69c-.12,2.42-.48,10.74-.48,27v24.85c0,8.32.73,9.41,9,11.34,1.69.36,2.65,1.09,2.65,2.41s-1.8,1.94-3.25,1.94c-3.62,0-6.16-.49-11.1-.49-4.35,0-12.55.73-16.53.73-1.69,0-3.74-.73-3.74-1.93s.84-1.93,3.5-2.66C28,166.2,28,165.12,29,158.72c.36-2.78,1.08-13.51,1.08-35,0-9.41,0-13.75-.36-16.52s-2.89-3.5-7.36-4.71c-1.93-.48-3.25-1.69-3.25-2.9,0-1.44,1-1.81,3-1.81,2.77,0,10.25.37,11.82.37,4.11,0,9.17-.73,15.08-.73,10.5,0,17.74,3.26,21.84,7.48a25.07,25.07,0,0,1,5.91,15.93,22.45,22.45,0,0,1-6.87,16.4c-4.95,4.83-12.67,6.64-16.77,6.64-.85,0-2.9.12-4.22-.84-.61-.37-1.94-1.57-1.94-2.18a1.69,1.69,0,0,1,1.33-1.56,21.67,21.67,0,0,0,2.66-.37c6.15-.12,14.23-5.3,14.23-17.13,0-5.43-1.69-10.49-4.1-13.39"/><path class="cls-1" d="M140.46,129.64a55.45,55.45,0,0,1-7.36,5c-.48.12-.61,1.21-.36,1.81,1.69,3.38,10.49,16.89,16.16,23.29,5.92,6.63,9.29,8.32,14.24,9.53a1.88,1.88,0,0,1,1.69,1.81c0,2.29-5.55,2.89-7,2.89-5.31,0-12.42-.72-21.35-12.3-4.35-5.68-11.34-16.05-13.64-19.31-2.77-3.86-5.79-4-9.89-4a1.93,1.93,0,0,0-1.69,1.81c0,9.65.12,15.8.48,20s1.93,5.91,7.48,7.36c2.3.6,3.26,1.33,3.26,2.65s-2,2.18-3.86,2.18c-3,0-9.29-.49-13.51-.49-3.74,0-5.79.49-10.26.49-2.89,0-4.34-.85-4.34-2.06s1.21-1.81,3.38-2.53c4.7-1.57,6.27-2.17,6.51-8.2.12-4.35.12-8.33.12-30,0-14.84-.24-19.78-.48-22.32s-2.05-3.74-6.63-4.58c-2-.36-3.5-1.33-3.5-2.41,0-1.81,2.29-2.3,4.82-2.3h10.62c4.59,0,9.53-.6,15.32-.6,10.62,0,15.08,2.41,18,4.58a17.71,17.71,0,0,1,7.48,14.85,18.62,18.62,0,0,1-5.67,12.9m-22.68-27.5a19,19,0,0,0-5.43,1,2.59,2.59,0,0,0-1.33,2.41c-.24,6.64,0,19.67.24,25.7a1.45,1.45,0,0,0,1,1.45,27.14,27.14,0,0,0,7.24,1.09c1.81,0,8.56-2.17,11.22-4.59a16.13,16.13,0,0,0,4-10.86c0-8.68-4.59-16.16-16.89-16.16"/><path class="cls-1" d="M251.82,134.71a39.77,39.77,0,0,1-20,34.27A42.56,42.56,0,0,1,211.64,174c-22.56,0-40-17.49-40-38.73a39,39,0,0,1,10.85-26.78C189.81,101.17,200.9,96,211.64,96c22.32,0,40.18,16.17,40.18,38.73m-58.16-26.66c-5.18,5.43-8.92,13.75-8.92,25.82,0,16.89,11.22,35,29.68,35a21.66,21.66,0,0,0,14.84-5.55c4.82-4.59,9.29-13.4,9.29-28.12,0-17.13-11.22-34.14-29.08-34.14-5.79,0-12.19,3.5-15.81,7"/><path class="cls-1" d="M309.49,98.88c.72.12,1.57,2.05,1.57,3.38s.48,6.87.48,8.68c0,2.54-1,4.11-2.53,4.11-1,0-1.69-1.81-2.05-2.78-2.3-7.84-7.24-11.46-14.72-11.46a11.87,11.87,0,0,0-11.95,11.82c0,7.12,3,10.74,13.64,16.89,11.94,6.88,19.66,12.55,19.66,23.89,0,7.85-5.43,13.63-9.29,16.05-4.22,2.77-11.46,4.58-16.53,4.58-5.55,0-14.84-2-17.61-4.22a5.81,5.81,0,0,1-1.69-2.41c-1.45-3-1.93-7.84-1.93-10.74,0-2.66,1.08-3.86,2-3.86,1.69,0,2.17,1.33,2.89,3,4.59,10.25,12.55,13.27,18.7,13.27a12.22,12.22,0,0,0,12.19-12.43c0-5.91-3.38-9.65-16.29-17.74-7.12-4.34-16-11.1-16-22.68,0-8,4.82-13.39,9.65-16.41A29.4,29.4,0,0,1,294.53,96c5.55,0,10.74,1.81,15,2.9"/><path class="cls-1" d="M410.47,134.71a39.77,39.77,0,0,1-20,34.27A42.53,42.53,0,0,1,370.29,174c-22.56,0-40.05-17.49-40.05-38.73a38.93,38.93,0,0,1,10.86-26.78C348.46,101.17,359.56,96,370.29,96c22.32,0,40.18,16.17,40.18,38.73m-58.15-26.66c-5.19,5.43-8.93,13.75-8.93,25.82,0,16.89,11.22,35,29.68,35a21.66,21.66,0,0,0,14.84-5.55c4.83-4.59,9.29-13.4,9.29-28.12,0-17.13-11.22-34.14-29.08-34.14-5.79,0-12.18,3.5-15.8,7"/><path class="cls-1" d="M490.46,107.2a34.9,34.9,0,0,1,12.43,27.15c0,18.46-11.47,28.47-18,32.09-8.57,4.59-18.94,6.4-27.87,6.4-5,0-15.93-1-19.78-1s-10.87.6-13.52.6c-.84,0-1.93-.72-1.93-1.56,0-1.33,1.45-2.78,4.47-3.62,3.49-1,7.6-2.06,8.2-7.48s.84-11.7.84-27.63c0-16.41-.24-22.56-.72-24.74-.24-1.32-1-3.49-7.48-4.34-2.9-.36-4.34-1.57-4.34-2.65,0-1.33,1.81-2.29,4.94-2.29h9.9c4.22,0,12.66-1,21.11-1,11.58,0,22.8,2.41,31.73,10m-41.74-3.74a4.56,4.56,0,0,0-2.06,2.42c-.12,3.13-.36,12.54-.36,21.59v8.09c0,15.44.24,17.61.73,21.35.84,5.31,3,7.36,4.1,8a30.62,30.62,0,0,0,11.1,2.78c2.89,0,13.63-3.14,19.06-8.57,5.67-5.67,8.93-13.87,8.93-24.37,0-9.17-2.9-17.61-9.05-23.65-5.67-5.55-15.08-8.8-23.89-8.8a47.32,47.32,0,0,0-8.56,1.2"/><path class="cls-1" d="M510.85,97.55c2.42,0,8.45.61,12.07.61,5.07,0,10.25-.49,12.3-.49,1.57,0,3.26.73,3.26,2s-.84,1.93-3.74,2.66c-3.26.84-2.77,2.05-1.45,4.7,4,8.09,12.91,23.89,14.12,25.34.6.72.84.6,1.45.12,1.08-.72,12.06-19.43,13.87-23.16,2.29-4.71,2.41-5.8-2.29-7.12-1.93-.61-2.9-1.57-2.9-2.42,0-1.32,1.33-2,4-2,3.75,0,7.6.37,9.05.37,3.38,0,7.36-.61,10.5-.61,2.17,0,3.38,1,3.38,2,0,.85-.85,2.18-3.26,2.78a19.07,19.07,0,0,0-11.82,7.84c-5.19,6.88-15.69,23.53-17.25,27.14a23.73,23.73,0,0,0-1.33,6.64c-.37,4.34-.12,14.36-.12,18.1.24,2.05,1.08,3.62,9.05,5.43a3,3,0,0,1,2.65,2.53c0,1.21-1.45,2.17-4,2.17-1.93,0-7.6-.36-12.31-.36-4.94,0-12.43.49-14.72.49s-3.37-.85-3.37-2.18c0-1.57,2-2.17,4.22-2.77,4.82-1.45,6.75-2.54,7.24-10.86.24-4,.12-11,.12-13.39,0-2-.61-3.62-2.3-7.12-3.25-6.76-12.78-22.93-16-27.27-1.69-2.29-4.22-4.46-10.5-6.63-2.77-.85-3.26-1.81-3.26-2.54,0-1.44,1.82-2,3.38-2"/></svg>